<svg width="91" height="90" viewBox="0 0 91 90" fill="none" xmlns="http://www.w3.org/2000/svg"><path d="M70.71 1.457c-2.114 1.506-2.906 4.092-2.955 6.357-.058 2.664.88 5.532 2.136 7.744.257.452.548.9.796 1.294.259.41.484.784.668 1.162 1 2.064 1.765 5.426 1.586 7.616-.04.498-.178.994-.367 1.58-.177.552-.418 1.232-.56 1.934l-.613 3.043 2.425-1.94c.738-.59 1.227-1.24 1.634-1.846.428-.638.707-1.127 1.138-1.663 1.711-2.13 4.27-3.184 7.107-3.496.809-.089 1.467-.155 2.126-.086 1.22.128 2.255.61 3.08 1.438a5 5 0 0 0-.564-.034c-1.121.008-2.058.49-3.204 1.667-1.559 1.6-1.882 3.85-1.841 5.666.04 1.748.467 3.55.678 5.004.224 1.534.266 2.914-.252 4.312-.189.51-.421.972-.64 1.201v.001c-.197.206-.42.368-.788.676-.316.263-.734.635-1.028 1.133l-.177.302.024.35.01.161.043.602.523.299c.284.162.57.253.77.312.238.07.342.096.46.142 1.245.482 1.962 1.148 2.266 2.28.32 1.19.27 2.617.12 4.027-.049.465-.123.92-.2 1.422a17 17 0 0 0-.18 1.547c-.063 1.09.057 2.268.743 3.463.403.702.964 1.347 1.753 1.794q.282.156.564.273c-.399.069-.85.091-1.388.067a22 22 0 0 1-1.614-.153c-.553-.066-1.15-.143-1.75-.185l-.993-.07-.194.974c-.679 3.403-1.47 5.676-2.939 8.855-.804 1.74-1.616 3.448-2.615 4.977-2.056 3.147-5.229 5.847-8.465 7.993-1.023.679-2.127 1.104-3.427 1.665-1.229.53-2.36 1.068-3.52 1.523l-.5.19c-1.225.45-2.594.79-3.951 1.135-.447.114-1.026.182-1.748.292-.556.085-1.234.199-1.806.415h-7.24c-.607-.225-1.357-.346-1.986-.432-.812-.11-1.465-.167-1.984-.261a19.7 19.7 0 0 1-4.104-1.225l-.006-.002-1.282-.54c-2.9-1.242-5.186-2.377-7.223-3.809-2.312-1.624-4.348-3.661-6.57-6.745-.993-1.377-1.958-2.652-2.637-4.027-.435-.88-.79-1.813-1.145-2.794-.348-.964-.703-1.999-1.115-2.996l-.507-1.228-1.13.7c-.72.446-1.573.781-2.455 1.027-2.577.72-5.732.692-7.913-.556h.001c-.673-.385-1.446-1.154-2.129-2.11a11 11 0 0 1-.594-.926q.321.135.638.226l.265.07c1.772.423 3.962-.283 5.026-1.913.552-.845.788-1.932.975-2.534.632-2.042 1.067-4.058 1.99-5.622 1.027-1.74 2.347-2.733 4.226-3.87.246-.148.813-.512.994-1.235l.145-.583-.402-.445a1.6 1.6 0 0 0-.596-.4 2.7 2.7 0 0 0-.465-.13 7 7 0 0 0-.86-.098c-.274-.017-.562-.026-.778-.035q-.187-.007-.286-.015l-.133-.012c-1.99-.331-3.76-.93-5.576-1.84C5.58 43.19 2.907 40.14 1.85 37.35c-.151-.398-.25-.838-.362-1.367-.094-.447-.202-.97-.36-1.487V33.2c.197.373.429.74.701 1.073.726.892 1.665 1.287 2.688 1.39 1.387.14 3.363.223 4.92-.284 1.723-.56 3.2-1.906 4.29-2.762 2.397-1.882 4.814-3.15 7.753-3.717 2.137-.411 3.99-.723 6.035-.608.086.005.594.056.932.059.2.001.441-.007.684-.053a1.9 1.9 0 0 0 .851-.373l.555-.447-.163-.692a1.7 1.7 0 0 0-.443-.78 3 3 0 0 0-.514-.416 8 8 0 0 0-1.108-.584c-.375-.168-.764-.325-1.076-.452a8 8 0 0 1-.636-.278c-3.306-1.808-6.072-5.031-7.831-8.438-.78-1.509-.602-3.081-.091-4.896.576 1.034 1.373 2.166 2.345 2.957 1.584 1.29 3.826 1.362 5.74 1.206.994-.082 1.996-.236 2.904-.38.928-.148 1.737-.28 2.422-.342 3.131-.28 6.37.266 8.737 2.095.335.258.65.568 1.013.935.347.35.749.764 1.195 1.133l2.36 1.948-.53-3.014c-.261-1.488-.21-3.084-.068-4.782.137-1.646.368-3.465.397-5.16.016-.918.014-2.076-.136-3.222-.119-.902-.338-1.868-.761-2.728.538.242 1.067.455 1.477.643 1.296.596 2.698 1.418 3.748 2.293.938.783 2.243 2.436 3.466 4.297 1.063 1.618 1.986 3.273 2.494 4.461l.192.48c.044.119.105.316.192.597.083.266.183.585.291.899.108.31.233.644.373.938.119.248.325.642.653.91l.573.472.66-.34.11-.058.44-.227.13-.476a4.5 4.5 0 0 0 .142-.954c.018-.294.021-.461.046-.646a26 26 0 0 1 .485-2.486c.421-1.752 1.635-4.355 2.7-5.84.901-1.255 2.578-2.807 3.891-3.554 1.444-.82 2.892-1.385 4.355-1.54Z" fill="#FCFCFF" stroke="#FCFCFF" stroke-width="2.257"/><path d="M48.187 28.251c1.268-.174 3.153-.155 4.453.005.734.09 2.087.37 3.465.713 1.388.345 2.683.728 3.332 1 4.81 2.027 9.938 6.604 12.76 11.072.484.767.9 1.598 1.281 2.465l.37.877c.463 1.136.908 2.224 1.197 3.311v.001c.269 1.013.394 2.068.548 3.223.594 4.46.442 8.878-1.234 12.943a45 45 0 0 1-2.635 5.33c-1.073 1.833-2.25 3.475-3.395 4.528-1.24 1.14-2.869 2.065-4.493 2.737-1.574.651-3.169 1.315-4.692 1.675-3.959.933-9.09.349-12.86-1.273-1.882-.809-3.89-2.354-5.642-4.24-1.75-1.885-3.172-4.033-3.937-5.975-.328-.835-.515-1.732-.723-2.738-.764-3.695-.751-7.264.674-10.637 1.049-2.481 2.113-4.261 3.477-5.662 1.359-1.395 3.077-2.477 5.528-3.465 2.46-.993 4.457-1.081 6.984-.454l.513.134c.8.222 1.565.446 2.273.73l.3.127c1.226.539 2.549 1.587 3.714 2.886 1.162 1.293 2.097 2.756 2.595 4.045.482 1.246.71 2.967.658 4.748-.052 1.78-.381 3.497-.917 4.73-.942 2.17-2.572 3.58-4.829 4.457-1.946.756-3.938.813-5.742-.013-1.52-.695-2.618-1.843-3.27-3.396l-.125-.316a9.5 9.5 0 0 1-.543-2.785c-.043-1.005.09-1.922.402-2.606.377-.826 1.012-1.515 1.71-1.82l.141-.056c.328-.117.675-.104 1.088.071l.182.085c.523.268.878.677 1.028 1.179.239.794.087 1.394-.407 2.34L50.2 60.55l2.524-.715c.785-.223 1.94-.529 2.707-1.669.636-.947.807-2.203.655-3.23l-.034-.203-.072-.33c-.391-1.67-1.334-3.65-2.92-4.73-1.662-1.13-3.685-1.417-5.555-1.03-2.35.486-4.116 2.037-5.318 3.884v.001c-1.907 2.934-2.193 6.222-1.53 9.461.814 3.97 2.68 6.782 6.068 9.024 3.374 2.232 7.342 3.016 11.311 2.17 1.151-.246 2.493-.787 3.724-1.442 1.23-.654 2.437-1.469 3.287-2.312 1.047-1.039 1.98-2.45 2.696-3.567 2.961-4.618 2.899-10.288 1.875-15.193l-.004-.02-.095-.394a15.7 15.7 0 0 0-.921-2.674c-2.32-5.14-5.589-8.951-11.087-11.01-5.826-2.183-11.935-1.834-17.535.782-5.145 2.404-9.347 7.935-11.232 13.124-.444 1.222-.664 2.501-.88 3.633-1.08 5.672-.62 11.322 1.819 16.654C32.11 76.072 36.432 80.81 41.97 83.04l.54.208c.908.335 1.915.575 2.714.807v-.001c1.224.356 2.6.813 3.993 1.06 3.05.543 6.722.423 9.793-.122l.605-.115c.973-.196 1.933-.513 2.779-.772 1.045-.32 2.272-.648 3.412-1.194 1.353-.648 2.631-1.548 3.757-2.29h.001c1.24-.818 2.554-1.707 3.733-2.762 3.795-3.394 6.12-7.888 7.925-12.425-1.234 4.276-2.992 8.753-5.687 12.12l-.267.327c-1.963 2.347-5.491 4.936-8.262 6.418-2.89 1.545-7.411 3.144-10.524 3.401-4.747.393-8.046.136-12.642-1.08-1.899-.502-3.742-1.104-5.435-1.96-.968-.49-1.8-1.09-2.85-1.749-1.178-.739-2.259-1.383-3.242-2.165l-.416-.344a28.37 28.37 0 0 1-8.44-12.894l-.004-.01-.186-.589c-.36-1.165-.64-2.27-.778-3.427l-.056-.584c-.212-2.773-.42-5.614-.232-8.279.411-5.81 2.802-12.084 6.533-16.476 3.31-3.896 8.888-7.477 13.761-8.935 1.592-.476 3.208-.734 4.895-.89l.761-.063z" fill="#633463" stroke="#633463" stroke-width="2.257"/></svg>