<svg width="91" height="92" viewBox="0 0 91 92" fill="none" xmlns="http://www.w3.org/2000/svg"><g clip-path="url(#a)"><path d="M45.5 8.292c12.148 0 13.59.046 18.39.268 12.33.567 18.09 6.482 18.65 18.856.22 4.85.262 6.306.262 18.588 0 12.286-.045 13.739-.261 18.588-.565 12.362-6.31 18.289-18.651 18.856-4.8.222-6.234.268-18.39.268-12.148 0-13.59-.046-18.386-.268-12.36-.571-18.09-6.513-18.651-18.86-.22-4.85-.265-6.302-.265-18.588 0-12.282.049-13.735.265-18.588.565-12.37 6.31-18.289 18.651-18.856 4.8-.218 6.238-.264 18.386-.264M45.5 0C33.143 0 31.596.054 26.743.276 10.219 1.043 1.035 10.312.277 27.033.053 31.943 0 33.507 0 46s.053 14.06.273 18.967c.758 16.706 9.927 25.99 26.466 26.757 4.857.222 6.404.276 18.761.276s13.908-.054 18.761-.276c16.51-.767 25.715-10.036 26.462-26.757C90.947 60.061 91 58.493 91 46s-.053-14.057-.273-18.963C89.984 10.346 80.804 1.047 64.265.28 59.408.054 57.857 0 45.5 0m0 22.379c-12.903 0-23.364 10.576-23.364 23.621S32.597 69.625 45.5 69.625 68.864 59.049 68.864 46c0-13.045-10.461-23.621-23.364-23.621m0 38.954c-8.376 0-15.167-6.861-15.167-15.333 0-8.468 6.791-15.333 15.167-15.333S60.667 37.532 60.667 46c0 8.472-6.791 15.333-15.167 15.333m24.29-45.405c-3.019 0-5.464 2.472-5.464 5.52s2.445 5.52 5.463 5.52c3.015 0 5.457-2.473 5.457-5.52 0-3.048-2.442-5.52-5.457-5.52" fill="#FCFCFF"/></g><defs><clipPath id="a"><path fill="#fff" d="M0 0h91v92H0z"/></clipPath></defs></svg>