<svg width="91" height="92" viewBox="0 0 91 92" fill="none" xmlns="http://www.w3.org/2000/svg">
<g clip-path="url(#clip0_111_18)">
<path d="M45.5 8.2915C57.6485 8.2915 59.0893 8.3375 63.8896 8.55983C76.2201 9.12717 81.9796 15.042 82.5408 27.416C82.7607 32.2652 82.8024 33.7218 82.8024 46.0038C82.8024 58.2897 82.7569 59.7425 82.5408 64.5917C81.9758 76.9542 76.2315 82.8805 63.8896 83.4478C59.0893 83.6702 57.6561 83.7162 45.5 83.7162C33.3515 83.7162 31.9107 83.6702 27.1142 83.4478C14.7534 82.8767 9.02417 76.935 8.463 64.5878C8.24308 59.7387 8.19758 58.2858 8.19758 46C8.19758 33.718 8.24688 32.2652 8.463 27.4122C9.02796 15.042 14.7723 9.12333 27.1142 8.556C31.9145 8.3375 33.3515 8.2915 45.5 8.2915ZM45.5 0C33.143 0 31.596 0.0536667 26.7426 0.276C10.2185 1.04267 1.03513 10.3117 0.276792 27.0327C0.0530833 31.9432 0 33.5072 0 46C0 58.4928 0.0530833 60.0607 0.273 64.9673C1.03133 81.673 10.1996 90.9573 26.7388 91.724C31.596 91.9463 33.143 92 45.5 92C57.857 92 59.4078 91.9463 64.2612 91.724C80.7701 90.9573 89.9762 81.6883 90.7232 64.9673C90.9469 60.0607 91 58.4928 91 46C91 33.5072 90.9469 31.9432 90.727 27.0365C89.9838 10.3462 80.8042 1.0465 64.265 0.279833C59.4078 0.0536667 57.857 0 45.5 0ZM45.5 22.379C32.597 22.379 22.1357 32.9552 22.1357 46C22.1357 59.0448 32.597 69.6248 45.5 69.6248C58.403 69.6248 68.8643 59.0487 68.8643 46C68.8643 32.9552 58.403 22.379 45.5 22.379ZM45.5 61.3333C37.1242 61.3333 30.3333 54.4717 30.3333 46C30.3333 37.5322 37.1242 30.6667 45.5 30.6667C53.8758 30.6667 60.6667 37.5322 60.6667 46C60.6667 54.4717 53.8758 61.3333 45.5 61.3333ZM69.7894 15.9275C66.7713 15.9275 64.3256 18.4 64.3256 21.4475C64.3256 24.495 66.7713 26.9675 69.7894 26.9675C72.8038 26.9675 75.2456 24.495 75.2456 21.4475C75.2456 18.4 72.8038 15.9275 69.7894 15.9275Z" fill="#FCFCFF"/>
</g>
<defs>
<clipPath id="clip0_111_18">
<rect width="91" height="92" fill="white"/>
</clipPath>
</defs>
</svg>
