<svg width="91" height="92" viewBox="0 0 91 92" fill="none" xmlns="http://www.w3.org/2000/svg"><g clip-path="url(#a)"><path d="M9.473 0h72.215c.65.111 1.296.195 1.932.374 2.243.645 4.2 2.047 5.547 3.972a10.2 10.2 0 0 1 1.63 3.896c.087.436.096.908.203 1.333v72.84c-.116.65-.17 1.295-.332 1.938a10.2 10.2 0 0 1-4.034 5.83c-1.078.76-2.381 1.344-3.673 1.597-.452.089-.961.095-1.399.22H9.38c-.437-.117-.92-.142-1.366-.236a9.7 9.7 0 0 1-3.797-1.683c-1.792-1.324-3.202-3.27-3.802-5.442-.206-.747-.299-1.496-.415-2.26V9.532c.12-.418.134-.915.216-1.35a10.2 10.2 0 0 1 1.487-3.66A10.07 10.07 0 0 1 7.523.343C8.173.175 8.821.128 9.473 0m39.71 40.863c.097-1.977-.037-3.964.018-5.942-2.46-.034-4.925-.008-7.386-.006-1.873.001-3.753-.032-5.626.011-.04 1.361-.011 2.73-.01 4.09l.005 7.246.01 22.328.003 6.881c0 1.253.038 2.52-.011 3.771.767-.08 1.572-.031 2.346-.029l4.074.01 4.306-.007c.764-.001 1.56-.051 2.32.024-.077-1.654-.024-3.327-.027-4.984l-.01-9.57v-6.314c-.001-1.498-.055-3.012.12-4.502.166-1.41.54-2.841 1.237-4.082.825-1.6 2.344-2.799 4.032-3.333 1.986-.628 4.517-.639 6.39.363 1.694.907 2.713 2.513 3.257 4.332.762 2.554.617 5.28.615 7.918l-.003 6.016c0 4.72.06 9.45-.002 14.17.774-.09 1.588-.04 2.369-.039l4.122.004 4.554-.006c.82-.002 1.664-.047 2.481.021-.07-2.483-.019-4.981-.02-7.466V58.29l.008-4.86c.009-2.708.005-5.376-.61-8.028-.683-2.938-2.045-5.752-4.234-7.842-3.09-2.953-7.412-4.12-11.586-3.995a3 3 0 0 0-.258.018c-.85.07-1.687.139-2.526.308a15.27 15.27 0 0 0-8.689 5.219c-.467.555-.87 1.148-1.268 1.754M20.385 12.809c-4.452.152-7.936 3.928-7.78 8.428s3.894 8.019 8.346 7.856c4.444-.163 7.917-3.935 7.761-8.428s-3.883-8.01-8.327-7.856m-6.452 66.437 9.009-.023 2.767-.006c.611-.003 1.232-.032 1.84.02-.075-.684-.04-1.402-.04-2.09l.003-3.503v-29.36l-.002-5.942c0-1.136-.03-2.282.022-3.416l-9.381-.01H15.3c-.445.001-.905.03-1.35.005l-.002 29.052.003 9.998c-.002 1.756.03 3.52-.02 5.275" fill="#FCFCFF"/></g><defs><clipPath id="a"><path fill="#fff" d="M0 0h91v92H0z"/></clipPath></defs></svg>