<svg width="196" height="126" viewBox="0 0 196 126" fill="none" xmlns="http://www.w3.org/2000/svg"><g clip-path="url(#a)"><path d="M59.74 75.924c-2.819-1.873-6.711-2.441-9.262-4.667-1.606-1.401-2.173-3.241-2.308-5.308-.25-3.841.535-8.151 3.15-11.115 3.443-3.901 7.05-3.729 11.81-3.719 3.159.007 6.42.168 9.568-.03-.24 1.836-.778 4.83-1.345 6.573-.922 2.83-2.962 3.186-5.63 3.162l-3.172-.03c-.765-.008-1.621-.068-2.318.303-.759.402-.898 1.287-1.118 2.042 2.54 1.7 5.613 2.532 8.154 4.22 2.358 1.569 3.12 3.738 3.668 6.381.252-2.228.966-4.485 1.493-6.666a773 773 0 0 1 2.68-11.011c-.583-.013-1.322.04-1.853-.231-.218-.54.663-3.915.83-4.707l6.499-.009c1.222-.003 2.532-.096 3.739.073.59.084 1.173.271 1.671.605.764.513 1.148 1.558 1.161 2.452.022 1.507-.704 3.324-1.055 4.79L82.5 73.968c-.388 1.656-.899 3.313-1.217 4.979-.072.373-.113.728-.04 1.104.181.299.414.421.742.515 1.326.383 3.316.287 4.528-.393.919-.516 1.4-2.511 1.662-3.5.635-1.986 1.016-4.125 1.518-6.156 1.192-4.823 2.342-9.66 3.593-14.466-.57-.004-1.33.064-1.851-.2-.197-.674.674-3.88.848-4.736l6.487-.006c1.196 0 2.528-.111 3.703.12.673.133 1.319.408 1.826.879.632.587.809 1.316.84 2.154.074 2.012-.896 4.856-1.393 6.852l-1.993 7.99-1.905 7.676c-.425 1.708-.786 3.469-1.405 5.118-.595 1.583-1.436 3.09-2.597 4.329-2.867 3.057-7.102 3.877-11.121 4.008-4.136.136-9.533.194-12.754-2.874-1.214-1.155-2.29-3.075-2.32-4.786v-.113c-.046.016-.099.017-.137.046-.198.15-.5.984-.658 1.256-.373.639-.81 1.287-1.278 1.86-.877 1.073-2.011 1.954-3.225 2.615a13.4 13.4 0 0 1-4.298 1.433c-2.47.403-5.145.205-7.644.203-1.85-.001-3.844.14-5.676-.118-.584-.083-1.192-.361-1.764-.528-.274.086-.121.371-.317.606-1.545.106-3.12.047-4.669.047-1.327 0-2.698.069-4.02-.055-1.11-.103-2.083-.444-2.81-1.333a3.64 3.64 0 0 1-.772-1.717c-.338-2-.119-4.279-.118-6.315 0-2.446-.165-5.024.093-7.453l-4.21 10.455c-.857 2.096-1.918 4.247-2.548 6.416-2.321-.01-4.788.17-7.094-.027-.881-.076-1.724-.278-2.31-.984a3.3 3.3 0 0 1-.674-1.486c-.15-.775-.113-1.6-.16-2.386-.12-1.994-.214-3.971-.29-5.967-.065-1.692-.32-3.451-.142-5.137-1.457 3.57-2.217 7.428-3.698 10.997q1.071.09 2.145.118c-.287 1.64-.91 3.23-1.094 4.886-2.178-.05-8.537.324-10.148-.433-.84-.395-1.388-1.086-1.7-1.955-.344-.954-.128-1.802.12-2.749.425-1.623 1.12-3.231 1.698-4.807l3.175-8.645 3.593-9.81c.659-1.794 1.254-3.673 2.052-5.407-.74-.047-1.435-.168-2.16-.316.12-.876.681-4.119 1.243-4.656l6.715.002c1.176 0 2.393-.071 3.564.022 1.08.086 2.175.459 2.887 1.316.517.623.765 1.414.903 2.2.387 2.218.19 4.913.248 7.185.047 1.871.322 3.874.13 5.733 1.63-3.857 3.194-7.751 4.91-11.57-.394.024-.89.044-1.274-.044-.232-.053-.294-.09-.422-.283.03-1.383.697-3.197 1.05-4.557 2.27-.027 4.543-.008 6.813-.007 1.39 0 2.866-.101 4.24.096.57.082 1.121.234 1.597.57.682.482 1.096 1.143 1.289 1.952.426 1.787.214 5.042.22 6.964.007 1.765.12 3.518.155 5.281.055 2.807.038 5.628.042 8.435q-.007 3.363.026 6.726c.012.964-.074 2.068.106 3.007l.017.085c.192-1.058.838-4.856 1.316-5.567.99-.442 3.22-.182 4.341-.168.04.662.164 1.323.257 1.98 1.914-.023 5.793.278 7.46-.145a3.94 3.94 0 0 0 1.87-1.06c.978-.983 1.134-2.025 1.124-3.344" fill="#92989C"/><path d="M30.465 53.091c1.742.022 8.756-.271 9.87.272.429.21.59 1.213.642 1.632.258 2.072.038 4.431.07 6.54l.197 17.368c.034 1.976-.273 4.439.357 6.326.316.946 1.011 1.3 1.855 1.71l-.312.94-4.47.019c-.877.002-1.823.072-2.689-.07-.405-.067-.856-.19-1.16-.48-.371-.358-.51-.846-.572-1.342-.306-2.486 0-5.104.006-7.606q-.03-7.677.02-15.354c-.366.75-.665 1.538-.981 2.31-1.075 2.49-2.043 5.041-3.06 7.557l-6.062 14.984c-1.095-.03-5.762.279-6.415-.327-.247-.228-.322-.938-.357-1.259-.299-2.735-.268-5.674-.403-8.439-.241-4.939-.572-9.9-.662-14.842-1.317 3.45-2.343 7.08-3.486 10.594-1.125 3.458-2.406 6.926-3.39 10.423-.135.481-.326 1.082-.293 1.58.054.805.99.859 1.497 1.334.138.345.045.559-.02.92-1.648.003-6.018.262-7.347-.147-.407-.125-.701-.31-.894-.704-.255-.523-.128-1.06.008-1.597.548-2.146 1.55-4.266 2.295-6.356l5.525-15.075c.834-2.271 1.764-4.544 2.499-6.848.208-.654.517-1.464.15-2.11-.325-.569-1.022-.743-1.603-.921l.285-1.029 5.892-.003c1.001 0 2.087-.092 3.074.062.42.065.797.161 1.114.464.37.352.487.764.564 1.25.393 2.498.248 5.678.312 8.254.114 4.512.317 9.021.364 13.535 1.534-3.193 2.938-6.889 4.344-10.193 1.366-3.215 2.943-6.497 4.119-9.774.184-.513.493-1.255.225-1.775-.26-.506-.91-.689-1.406-.863zm45.263-.005c1.336.032 8.485-.25 9.099.348.292.284.266.946.222 1.33-.213 1.864-.994 4.313-1.46 6.214l-3.143 12.877c-.457 1.877-1.208 4.026-1.244 5.96-.012.674.158 1.275.64 1.762.989 1 2.73 1.177 4.069 1.178 1.55.001 3.161-.274 4.292-1.427.672-.685 1.1-1.613 1.408-2.512.61-1.782 1.003-3.66 1.454-5.488l2.115-8.59c.425-1.726 2.201-8.009 2.146-9.267-.044-.978-.85-.909-1.435-1.448-.13-.348-.032-.574.038-.935q2.548.021 5.097-.004c.962-.004 2.042-.1 2.984.102.341.073.822.223 1.003.543.451.792-.037 2.157-.245 2.974l-3.842 15.489c-.709 2.879-1.269 5.945-2.263 8.73-.393 1.099-.915 2.146-1.606 3.088-1.867 2.542-4.672 3.563-7.67 4.013-3.724.559-10.466.627-13.574-1.72-1.352-1.02-2.113-2.515-2.284-4.19a12 12 0 0 1 .073-2.823c.337-2.34 1.057-4.702 1.615-7.003l3.127-12.932c.179-.743.971-3.444.855-4.06-.136-.718-1.03-.83-1.54-1.207-.107-.306.015-.689.07-1.002m-16.852.037c2.021-.116 4.1-.026 6.127-.026 1.736-.001 3.547-.106 5.274.04-.275 1.302-.454 3.525-1.136 4.612-1.563 2.496-8.041-.427-10.656 2.151-.741.732-1.292 2.056-1.278 3.1.008.671.29 1.235.768 1.697.7.674 1.646 1.074 2.516 1.483 2.058.967 4.93 1.978 6.542 3.58 1.407 1.398 1.89 3.286 1.9 5.223.016 3.494-.888 7.386-3.437 9.916-3.013 2.99-6.752 3.001-10.707 2.981-2.015.008-6.269.257-8.059-.192-.564-.142-1.213-.427-1.503-.965-.473-.878.529-4.478.833-5.567.084-.299.146-.564.42-.72.806.01.907 1.112 1.466 1.582a1.9 1.9 0 0 0 .926.422c.866.146 1.933.026 2.822.025 1.485-.003 3.031.102 4.509-.04 1.686-.161 3.211-.85 4.287-2.19.946-1.176 1.39-2.848 1.208-4.345a2.55 2.55 0 0 0-.86-1.61c-1.826-1.63-6.63-2.582-8.798-4.341-1.152-.935-1.736-2.253-1.884-3.71-.34-3.347.364-7.271 2.53-9.93 1.592-1.951 3.735-2.911 6.19-3.176" fill="#FCFCFF"/><path d="M31.94 42.568a83 83 0 0 1 1.323-3.287c.14-.323.373-.644.49-.965.115-.318-.229-.493-.123-.798.633-.258 1.582-.096 2.262-.053.176 2.163-.138 4.413.165 6.558.075.53.316.963.56 1.431-.686.05-1.484.221-2.037-.301-.674-.637-.32-3.053-.304-3.935.06-.313.155-.621.06-.934-.29.171-.425.82-.518 1.138-.534 1.134-.915 3.12-1.728 4.003-.407.175-.954.098-1.394.085-.41-1.832-.288-3.763-.336-5.634-.372 1.356-.921 2.669-1.268 4.03-.108.426-.208.855.04 1.25.056.09.03.114.015.216a.7.7 0 0 1-.204.109c-.394.112-1.187.078-1.54-.125-.647-1.07 1.939-5.555 2.077-7.035.032-.341-.093-.418-.302-.662l.046-.128.048-.017c.51-.172 1.74-.189 2.24.062.457.44.35 4.143.427 4.992m-14.649.136c.262-.835 1.771-4.212 1.815-4.579-.073-.194-.17-.38-.141-.593.602-.279 1.622-.112 2.286-.077.103 1.77-.135 5.513.217 6.873.101.393.341.8.526 1.162-.481.006-1.562.16-1.931-.153-.454-.385-.287-4.662-.332-5.51l-.358 1.014c-.307.87-1.346 4.05-1.927 4.575-.146.132-.492.139-.683.12a.77.77 0 0 1-.593-.343c-.649-.877-.433-4.154-.348-5.247-.436.958-1.472 3.627-1.528 4.6-.02.361.278.507.241.853-.314.177-1.108.142-1.461.058-.27-.063-.332-.131-.484-.343-.086-1.22 1.85-5.141 2.223-6.66.074-.3-.057-.508-.208-.754l-.05-.08c.239-.19.625-.177.92-.209.492-.011 1.047-.085 1.465.217.42.88.25 3.9.351 5.075m70.721-5.293 1.176.057c-.055 1.699-.672 3.587-1.092 5.236-.122.48-.364 1.11-.389 1.597-.018.35.071.76.12 1.11-.56.558-1.408-.225-2.005-.194-.475.025-.948.288-1.473.316-.371-.03-.711-.078-1.052-.237-.252-.117-.506-.325-.589-.6-.27-.901.557-3.839 1.005-4.673.69-1.286 2.322-.701 3.379-1.123.247-.099.284-.193.383-.42-.012-.287-.126-.48-.266-.723l-.057-.098.041-.145zm-3.168 6.736c.43-.021.806-.01 1.102-.373.375-.457.941-2.83.931-3.436l-.126-.043c-.585.04-.952.085-1.362.552-.612.696-.86 1.698-.772 2.611.025.264.098.46.227.689m48.869-5.132c.693-.034 1.587-.121 2.256.053.67.175.982.476 1.319 1.072-.014 1.323-.228 2.888-.886 4.052-.408.723-.889 1.051-1.674 1.27-1.197.093-2.03-.007-3.136-.466-.19-.328-.331-.704-.485-1.05.337-1.194.409-2.54.985-3.652.385-.742.84-1.034 1.621-1.28m.526 5.144c.644-.43.977-1.458 1.125-2.202.077-.389.143-.973-.099-1.314a.76.76 0 0 0-.507-.3c-.142-.02-.29-.017-.433-.016-.729.583-1.075 1.526-1.184 2.44-.041.346-.053.783.167 1.073.158.208.395.307.648.322.096.006.188.002.283-.003m-17.555-6.75c.3-.003.723-.025 1.004.073.979.343-1.457 5.16-.781 6.31.112.19.269.276.479.33.291.077.579.07.834-.103.96-.653 1.702-4.68 1.903-5.928-.093-.192-.206-.363-.168-.583.558-.239 1.467-.08 2.074-.04-.043.494-.094.965-.217 1.446-.372 1.483-.65 3.032-1.098 4.49-.226.737-.598 1.38-1.302 1.745-.935.484-2.453.532-3.441.191-.413-.143-.854-.415-1.021-.838-.477-1.209.585-4.117.926-5.443.055-.213.231-.71.188-.919-.031-.154-.178-.382-.248-.531l.076-.11zm-77.93 1.605c.978-.013 2.413-.198 3.322.123 1.77.624-.828 4.598-.21 5.802.075.146.111.234.138.396q-.028.033-.057.064c-.52.517-1.596-.142-2.202-.175-.405.174-.727.272-1.168.3-.497-.007-1.046-.071-1.419-.438-.309-.305-.439-.731-.449-1.156-.023-.967.382-1.886 1.036-2.579 1.012-.223 2.267.046 3.125-.613l-.012-.141c-.675-.335-1.54-.108-2.238-.366-.12-.044-.187-.066-.23-.189-.07-.2-.097-.638.005-.827.074-.138.218-.15.359-.201m1.047 5.097c.534-.419.51-1.261.59-1.887l-1.285.075c-.28.132-.509.475-.598.771-.059.193-.003.407.097.576.128.215.319.408.573.45.198.034.423.018.623.015m51.607-5.091c.824-.049 1.828-.136 2.606.177.363.146.666.388.813.76.291.732-.034 1.642-.35 2.312-1.106.222-2.307.14-3.433.14-.18.692-.146 1.002.11 1.673 1.059.035 1.74.05 2.69-.458.05-.05.136-.063.203-.086l.071.148c-.037.363-.081.744-.256 1.07-.19.357-.486.619-.88.721-.847.22-2.404.14-3.151-.313a1.6 1.6 0 0 1-.742-1c-.272-1.141.433-3.207 1.042-4.164.316-.497.692-.85 1.277-.98m-.262 2.285 1.615-.037c.222.005.274.03.46-.103.043-.212.066-.325-.074-.51a.82.82 0 0 0-.635-.32c-.18-.007-.362.002-.542.008-.29.311-.563.626-.824.962m-36.209-2.287c.628-.021 1.304-.082 1.926.004.464.065.932.236 1.205.642.483.717.163 1.794-.004 2.571q-.024.007-.049.01l-.082.016c-.918.179-2.666-.14-3.401.356-.228.154-.256.266-.312.514.068.288.22.547.434.753.378.364 1.443.217 1.94.203l.762-.611.099.035c.053.068.06.067.094.16.102.275-.04.699-.172.95-.226.43-.707.713-1.162.84-1.097.308-2.432.07-3.408-.48-.344-1.382-.172-3.308.47-4.605.384-.778.856-1.085 1.66-1.358m-.143 2.29 1.6-.043.275-.03.103-.137c-.061-.297-.172-.425-.42-.595-.307-.211-.684-.157-1.039-.135-.274.278-.382.581-.519.94m41.47-2.273c.383-.02.944-.116 1.314-.024.288.072.315.199.44.444.8.07 1.36-.815 2.323-.49.556.188.716.47.957.968-.152 1.32-1.024 3.381-1.013 4.505.003.273.195.643.296.9l-.121.111c-.422.08-.954.121-1.376.043a.54.54 0 0 1-.411-.288c-.415-.73.276-2.575.495-3.371.083-.495.124-1.003.183-1.501-.387.01-.795-.01-1.163.126-.22.08-.358.4-.449.601-.252.561-1.021 3.062-.916 3.639.034.189.216.469.292.666l-.155.105c-.526.075-1.173.097-1.671-.098-.946-1.006 1.269-4.567.662-5.97-.058-.133-.034-.131.001-.264zm42.401-.004a23 23 0 0 1 1.599-.006.5.5 0 0 1 .152.281l.025.122c.803-.057 1.477-.752 2.332-.454.535.187.693.508.918.988-.186 1.161-1.002 3.5-1.025 4.428-.009.356.285.68.265 1.039a1.7 1.7 0 0 1-.477.084c-.528.018-.98.085-1.381-.286-.385-.938.219-2.411.474-3.342.071-.454.138-.898.15-1.358-.083-.12-.073-.156-.224-.196-.305-.081-.73.086-.991.25-.551.344-1.264 3.404-1.266 4.037-.001.31.308.492.239.808-.107.04-.193.07-.307.087-.389.054-1.059.104-1.383-.163-.817-.672.417-3.641.589-4.566.087-.471.074-1.084.018-1.556l-.009-.066zm-59.608.004c-.079 1.475-.71 2.87-.799 4.318-.018.303.023.525.23.756.23.079.34.12.581.03.36-.136.657-.502.804-.847.258-.608.956-3.047.889-3.572-.02-.156-.161-.399-.223-.551.461-.281 1.478-.142 2.023-.125a12 12 0 0 1-.334 2.22c-.198 1.264-1.037 2.756-.512 3.983l.05.115-.069.085c-.378.084-1.538.178-1.876-.004-.166-.09-.267-.32-.467-.326-.785-.021-1.501.685-2.336.29-.284-.134-.615-.438-.692-.753-.263-1.067 1.198-4.28.924-5.035-.054-.149-.204-.281-.267-.452l.23-.114c.612-.049 1.23-.026 1.843-.018m44.25-.009c.293-.01.627-.05.916 0 .303.052.352.211.524.444.937-.366 1.514-.493 2.522-.452q.102.085.2.174c.164.148.427.365.487.583.187.688-.954 3.788-1.101 4.654-.052.308.195.659.213.983-.252.182-.874.152-1.181.114-.234-.029-.497-.118-.634-.324-.429-.642.449-2.804.619-3.59.117-.414.156-.83.2-1.257-.478-.014-.953.02-1.43.048q-.07.135-.128.274c-.439 1.01-.995 2.702-.995 3.802 0 .257.149.558.246.794a.8.8 0 0 1-.32.182c-.337.1-1.301.127-1.604-.059-.153-.093-.236-.21-.245-.395-.06-1.277 1.037-3.47 1.166-4.804.028-.29-.057-.603-.136-.881l-.027-.093c.208-.161.45-.156.708-.197M69.42 37.41l2.295-.011c-.039.353-.068.688-.2 1.02-.389.447-.931.399-1.478.458-.733.079-.965.356-1.409.905.646.53 1.483.77 2.118 1.31.388.33.608.644.642 1.169.052.77-.122 1.786-.66 2.376-.722.792-1.982.806-2.975.866-.377.002-.822.043-1.191-.023-.174-.031-.302-.076-.388-.237-.205-.385-.125-1.158.01-1.562.035-.103.008-.058.134-.12.094.163.194.314.305.466.696.138 1.449.066 2.156.049.262-.21.55-.452.738-.735.16-.24.192-.42.146-.7-.356-.717-1.477-.81-2.097-1.24a1.53 1.53 0 0 1-.622-1.062c-.092-.713.221-1.517.676-2.057.516-.612 1.016-.804 1.8-.871m-24.524 1.612c.969-.02 1.931-.004 2.9.031-.124.302-.25.705-.464.953-.505.586-1.815.404-2.548.476.584.555 1.234.812 1.893 1.247.413.273.768.655.848 1.162.097.61-.153 1.283-.525 1.76-.5.641-1.03.73-1.788.815-.65.035-2.031.213-2.567-.166-.156-.235-.187-.44-.153-.722.16-1.29 1.981-.017 3.26-.957.066-.125.136-.176.096-.32-.129-.464-1.104-.863-1.493-1.101-.472-.288-.884-.633-.998-1.208-.091-.456.079-.846.325-1.217.338-.509.632-.641 1.213-.753m62.732-.001c.751-.016 1.522-.064 2.272-.031.239.01.463-.02.63.16.004.143.008.289-.007.432-.129 1.187-1.716.53-2.39 1.074.181.542 1.298.945 1.785 1.222.275.156.5.314.569.636.171.806-.324 1.907-.732 2.573a5 5 0 0 1-1.638.391c-.712.022-1.679.165-2.338-.121-.07-.08-.192-.182-.223-.282-.096-.306.044-.875.203-1.151.019-.031.026-.073.057-.092.065-.039 1.931.337 2.562.114.249-.087.291-.176.401-.395-.091-1.268-1.467-.934-2.047-1.773-.425-.616-.238-1.395-.134-2.08.33-.315.57-.57 1.03-.677m-57.025-.98a3 3 0 0 1 .791.013c.098.19-.207.444-.242.67-.02.13.034.144.11.242.453.167.842-.065 1.283.006.188.03.198.095.293.244-.004.26-.011.426-.134.658-.427.35-1.237.423-1.777.53-.248.818-.923 2.492-.67 3.323.078.252.2.287.416.39.653 0 1.072-.395 1.564-.768l-.368 1.473c-.034.12-.104.222-.165.33a2.3 2.3 0 0 1-.972.333c-.746.101-1.732.126-2.361-.349-.577-.884.681-3.63.681-4.762 0-.364-.278-.242-.495-.474.183-.606 1.538-1.376 2.046-1.86m-25.935.986a32 32 0 0 1 2.746.032c-1.092 2.384-1.309.774-2.33 1.458-.586.393-.91 1.877-.992 2.526-.048.38-.055.656.184.965.518.172 1.17.091 1.712.082.228-.176.456-.404.748-.445.131.252.027.485-.024.76-.06.266-.17.557-.367.752-.656.647-2.415.353-3.287.306-.27-.255-.743-.642-.846-1.01-.276-.99.45-3.262.915-4.157.379-.73.762-1.024 1.54-1.269m50.131-1.13.276.129c.153.297.021.652-.043.966l1.474.015c-.012.314-.01.606-.132.901-.227.202-.282.188-.592.212-.07.006-.14.008-.21.017a1.14 1.14 0 0 0-.778.471c-.426.573-.992 2.816-.876 3.475.449.412 1.269-.467 1.87-.233.11.376-.121.878-.234 1.249-.835.375-2.035.635-2.92.281-.409-.163-.533-.414-.683-.796.106-.616.995-4.061.881-4.269-.126-.231-.304-.22-.404-.537.03-.066.082-.238.127-.283.17-.169 1.97-1.443 2.244-1.598m29.551-.004c.128.038.234.089.353.146.146.286.021.652-.034.957.318-.007.938-.09 1.22.038.165.075.174.148.241.304-.013.183-.021.376-.128.532-.282.413-1.334.444-1.799.532-.176 1.038-.629 2.173-.693 3.203-.015.236-.033.272.12.448.671.125 1.035-.005 1.645-.286l.13.061c.01.434-.168.885-.291 1.297-.566.273-1.114.373-1.74.397-.524.02-1.252-.051-1.636-.455-.146-.153-.25-.312-.248-.526.013-1.18 1.015-2.947.954-4.222-.194-.166-.322-.262-.382-.516.025-.07.073-.277.116-.324.269-.287.852-.535 1.188-.778.341-.246.651-.547.984-.808M59.926 39.02c.42-.012.833-.017 1.25.008.165.01.207.12.312.239a.33.33 0 0 0 .248.007c.623-.196 1.036-.305 1.708-.276-.038.333-.04.923-.29 1.168-.206.203-.413.166-.68.165-.36-.002-.626-.005-.93.208-.783.547-1.03 2.86-1.233 3.803-.292.465.157.647.116 1.075a1 1 0 0 1-.276.074c-.462.05-1.259.07-1.622-.247-.374-1.055 1.082-4.304 1.054-5.558-.004-.197-.169-.298-.298-.43.167-.173.415-.191.641-.237m69.726-.006q.732.063 1.462.153a72 72 0 0 1-.755 3.393c-.135.554-.356 1.155-.429 1.718-.054.414.326.795.23 1.157l-.267.072-.239.003c-.473.002-1.034.076-1.386-.306-.073-.08-.168-.197-.181-.306-.109-.928 1.087-3.967 1.149-5.279-.093-.153-.2-.282-.177-.47zm.302-1.613c.313-.014.721-.06 1.028.001.235.047.402.133.536.332.02.406-.16.674-.407.99l-.574-.004c-.326-.002-.622-.051-.893-.248-.183-.133-.182-.253-.193-.462.14-.266.265-.426.503-.61" fill="#92989C"/><path d="M33.818 41.422c.093-.319.228-.967.518-1.138.095.313 0 .621-.06.934z" fill="#92989C" fill-opacity=".039"/><path d="M160.643 0h1.715c-.182 3.212-1.526 5.915-3.508 8.41 2.477-1.324 5.134-2.049 7.927-1.342-.137 2.431-1.012 4.2-2.543 6.038-.414.496-.95 1.017-1.251 1.587.211.002.392-.114.535-.264.35-.368.624-.792.991-1.156 3.809-3.774 8.121-7.217 12.567-10.208 1.125-.758 2.292-1.588 3.524-2.156 1.464-.676 4.178-.419 5.079-.909h1.365c.645.246 1.38.244 2.058.357.905.149 1.75.39 2.613.704-1.447 3.33-4.152 6.188-7.352 7.92 3.406-.466 6.568-.533 9.599 1.313-1.496 3.741-4.716 5.63-8.21 7.265 2.931-.36 6.245-.39 8.692 1.535.275.216.549.44.799.684-1.16 3.053-3.883 4.67-6.718 5.945-.52.233-1.038.47-1.576.656 2.897.28 6.27.995 8.221 3.356q.301.37.586.752c-1.766 3.166-4.934 4.168-8.098 5.392 2.501.58 5.71 2.26 7.083 4.514.153.25.35.667.291.963-.149.744-2.001 1.918-2.599 2.237-1.673.894-3.765 1.345-5.654 1.157 3.069 1.632 5.221 3.285 6.716 6.491a10.54 10.54 0 0 1-7.693 2.906c2.378 1.786 4.314 4.329 4.843 7.308-2.265 1.596-5.163 2.677-7.975 2.484 1.903 2.57 3.336 5.148 3.386 8.42-1.828 1.66-4.34 2.261-6.757 2.146-.5-.024-.981-.104-1.476-.172 1.622 2.075 2.547 5.844 2.26 8.46-.05.453-.186.907-.558 1.197-1.47 1.143-5.601 1.483-7.443 1.22a5 5 0 0 1-.746-.154c1.556 1.785.44 4.348 1.147 6.406.348 1.014 1.224 1.946 1.795 2.862 1.609 2.582 3.978 6.698 4.626 9.599.202.901.232 1.818.169 2.736-.112 1.615-.419 3.277-1.016 4.785-2.11.34-4.551.377-6.525-.586-.225 2.278-.384 5.166-1.589 7.172-2.652.052-4.752-.928-6.961-2.277-.511 2.508-1.965 4.611-3.585 6.53-2.623-1.138-4.457-2.502-6.15-4.826-.981 2.129-2.276 3.618-4.443 4.589-2.268-1.123-4.302-3.372-5.124-5.781q-.034-.102-.064-.206c.492-2.035.774-4.105 1.239-6.136l-.061-.039c-.616.284-1.612 1.423-2.207 1.898-6.251 4.986-13.273 9.021-20.414 12.578-.675.336-2.356 1.471-3.107 1.32-.892-.179-2.364-1.386-3.144-1.927-5.394-3.744-11.032-8.122-14.558-13.754-1.376-2.198-2.467-4.916-2.422-7.548.03-1.788.619-3.604 1.046-5.332.578-2.333 1.177-4.662 1.728-7 3.089-13.111 6.483-26.156 9.48-39.288 1.239-.1 2.547.003 3.794.007l7.775.01c7.016 0 14.069-.156 21.08.039 1.1-1.83 3.095-6.07 3.319-8.057.246-2.177-1.037-6.89-1.546-9.13a879 879 0 0 1-2.136-9.352c-.326-1.52-.84-3.305-.767-4.857.033-.68.283-1.315.573-1.923 1.671-3.503 7.604-13.31 10.656-15.174a16.6 16.6 0 0 1 4.55-1.883c.684-.17 1.417-.24 2.078-.484z" fill="#92989C"/><path d="M111.196 50.83c1.239-.099 2.547.005 3.794.008l7.775.01c7.016 0 14.069-.156 21.08.039-.301.615-.591 1.383-.987 1.934a265 265 0 0 1-5.772 10.332c-3.416 0-6.831.103-10.246.091l-2.111-.004c-2.609-.018-4.152-.085-6.147 1.888q-.247.245-.491.493c-1.869.373-3.861.798-5.01 2.486-1.015 1.491-.97 3.356-1.032 5.084 1.58-1.389 2.938-2.16 5.106-2.024 1.759.11 3.787.68 5.274 1.64.646.368 1.37.76 1.917 1.27a.8.8 0 0 0-.181.31c-.414 1.442-3.881 15.552-3.835 15.874.006.044.04.116.054.152-.761-.11-1.509-.171-2.277-.092-1.179.275-2.121 1.006-2.752 2.035-.305.498-.603 1.098-.626 1.691.122.107.239.181.378.262.124.59-.251 1.25-.207 1.87.178.103.32.102.518.108.383.424.015 1.448.574 1.866.865-.447 1.598-.763 2.581-.858.982-.726 1.646-1.348 2.945-1.16.72.103 1.342.422 1.782 1.015.234.317.368.682.308 1.08-.232 1.55-2.697 2.194-3.574 4.615-.134.368-.291.887-.23 1.279.186.092.515.118.567.322.152.591-.271 1.358.185 1.87.148.012.398-.013.497.099.201.227.283.901.386 1.209.114.34.307.654.478.967 1.064-.981 1.512-.978 2.622-1.673 1.372-.859 1.15-1.83 3.345-1.745.673.026 1.292.246 1.747.759.4.452.593 1.016.551 1.619-.071.992-.66 2.914-1.426 3.558q-.303.25-.619.488c.481.226.924.41 1.446.522.869.223 1.616-.1 2.42-.387.042 1.036-1.079 4.83-1.399 6.075a92 92 0 0 0 10.203-6.884c1.272-1.006 3.108-2.981 4.279-3.729.032.934-.203 1.808-.231 2.729l-.061-.039c-.616.284-1.612 1.423-2.207 1.898-6.251 4.986-13.273 9.021-20.414 12.578-.675.336-2.356 1.471-3.107 1.32-.892-.179-2.364-1.386-3.144-1.927-5.394-3.744-11.032-8.122-14.558-13.754-1.376-2.198-2.467-4.916-2.422-7.548.03-1.788.619-3.604 1.046-5.332.578-2.333 1.177-4.662 1.728-7 3.089-13.111 6.483-26.156 9.48-39.288" fill="#F9B939"/><path d="M111.196 50.83c1.239-.099 2.547.005 3.794.008l7.775.01c7.016 0 14.069-.156 21.08.039-.301.615-.591 1.383-.987 1.934a265 265 0 0 1-5.772 10.332c-3.416 0-6.831.103-10.246.091l-2.111-.004c.198-1.329.579-2.648.895-3.955l1.58-6.503-9.287.013c-1.788 0-3.6.06-5.385-.033-1.072 4.042-2.009 8.125-2.994 12.189l-5.024 20.704-2.364 9.726c-.476 1.958-1.186 4.089-1.263 6.106-.094 2.423.88 4.872 2.076 6.934 2.252 3.883 5.338 6.44 8.535 9.44.422-2.431 4.836-19.058 4.577-19.624l-.083-.084c.865-.447 1.598-.763 2.581-.858.982-.726 1.646-1.348 2.945-1.16.72.103 1.342.422 1.782 1.015.234.317.368.682.308 1.08-.232 1.55-2.697 2.194-3.574 4.615-.134.368-.291.887-.23 1.279.186.092.515.118.567.322.152.591-.271 1.358.185 1.87.148.012.398-.013.497.099.201.227.283.901.386 1.209.114.34.307.654.478.967 1.064-.981 1.512-.978 2.622-1.673 1.372-.859 1.15-1.83 3.345-1.745.673.026 1.292.246 1.747.759.4.452.593 1.016.551 1.619-.071.992-.66 2.914-1.426 3.558q-.303.25-.619.488c.481.226.924.41 1.446.522.869.223 1.616-.1 2.42-.387.042 1.036-1.079 4.83-1.399 6.075a92 92 0 0 0 10.203-6.884c1.272-1.006 3.108-2.981 4.279-3.729.032.934-.203 1.808-.231 2.729l-.061-.039c-.616.284-1.612 1.423-2.207 1.898-6.251 4.986-13.273 9.021-20.414 12.578-.675.336-2.356 1.471-3.107 1.32-.892-.179-2.364-1.386-3.144-1.927-5.394-3.744-11.032-8.122-14.558-13.754-1.376-2.198-2.467-4.916-2.422-7.548.03-1.788.619-3.604 1.046-5.332.578-2.333 1.177-4.662 1.728-7 3.089-13.111 6.483-26.156 9.48-39.288" fill="#FEDEA6"/><path d="M118.573 97.295c.982-.726 1.646-1.348 2.945-1.16.72.103 1.342.422 1.782 1.015.234.317.368.682.308 1.08-.233 1.55-2.697 2.194-3.574 4.615-.134.368-.291.887-.231 1.279.187.092.515.118.568.322.152.591-.271 1.358.185 1.87.148.012.398-.013.497.099.201.227.283.901.386 1.209.114.34.307.654.478.967 1.064-.981 1.512-.978 2.622-1.673 1.372-.859 1.15-1.83 3.345-1.745.673.026 1.292.246 1.747.759.4.452.593 1.017.551 1.619-.071.992-.66 2.914-1.426 3.558q-.303.252-.619.488c.481.226.924.41 1.446.522l.086.075c.197.409-1.351 6.174-1.613 7.019-1.124.787-2.441 1.398-3.657 2.031-1.583.824-3.172 1.694-4.814 2.394-2.203-1.297-4.301-2.857-6.333-4.405.439-1.327.722-2.736 1.051-4.094l1.626-6.745 1.709-7.041c.326-1.343.706-2.697.935-4.058m10.817-44.533c1.279.085 2.583.034 3.866.034 3.192 0 6.413-.09 9.602.025a264 264 0 0 1-5.772 10.332c-3.416 0-6.831.103-10.246.091.996-3.43 1.707-7.008 2.55-10.483" fill="#F9B939"/><path d="M122.429 72.807c.646.368 1.37.76 1.917 1.27a.8.8 0 0 0-.181.31c-.414 1.442-3.881 15.552-3.835 15.874.006.044.04.116.054.152-.761-.11-1.509-.171-2.277-.092.18-.225 3.038-12.496 3.355-13.814.283-1.172.465-2.612.967-3.7" fill="#FEDEA6"/><path d="M144.925 98.408c.46 2.762.638 6.017.161 8.786-1.171.748-3.007 2.723-4.279 3.729a92 92 0 0 1-10.203 6.884c.32-1.245 1.441-5.039 1.399-6.075 1.607-.904 2.199-2.726 2.126-4.51-.031-.755-.269-1.778.016-2.493.249-.621.933-1.177 1.439-1.593 2.793-2.303 6.02-3.437 9.341-4.728m-24.541-7.995c-.015-.036-.048-.108-.054-.152-.046-.322 3.421-14.432 3.835-15.873a.8.8 0 0 1 .181-.311c1.288 1.048 2.604 2.336 3.238 3.903.297.733.375 1.584.536 2.356.305 1.468 1.045 2.911 1.958 4.096-.989 1.888-3.949 6.41-5.415 7.638-.191.16-.434.26-.663.353-1.122-.951-2.143-1.694-3.616-2.01" fill="#F9B939"/><path d="M180.51 3c.711 1.918 1.124 3.955 1.645 5.93-4.664 2.602-8.928 5.74-13.421 8.596l.262.15c4.228-2.569 9.07-4.971 13.629-6.91.399 2.054.853 4.104 1.167 6.173a359 359 0 0 0-15.111 6.266l.036.26c1.464-.6 3.093-.997 4.609-1.45a308 308 0 0 1 10.746-3.02c.354.857.788 5.322.774 6.346a163 163 0 0 0-17.791 4.209c1.841-.104 3.708-.458 5.538-.703 4.119-.55 8.296-1.15 12.44-1.444q.142 3.454.108 6.911a174 174 0 0 0-17.838.85c1.363.356 3.37.214 4.815.275q4.104.194 8.205.459c1.579.097 3.223.12 4.786.354-.114 2.216-.311 4.423-.485 6.635-1.564-.35-3.238-.495-4.828-.69a206 206 0 0 0-9.246-.935 1.3 1.3 0 0 0-.287.386 216 216 0 0 1 14.08 3.048c-.26 1.685-.672 5.421-1.332 6.867-1.788-.733-3.757-1.212-5.618-1.726a163 163 0 0 0-13.594-3.118c2.207.838 4.502 1.493 6.745 2.233 4.072 1.344 8.159 2.746 12.142 4.337 1.002.392 2.044.751 3 1.245 2.073 1.651 3.639 3.471 4.469 6.034-2.138 1.25-4.269 1.823-6.748 1.9-1.034-.44-2.064-1.111-3.062-1.643a149 149 0 0 0-17.986-7.8c-.43-.159-2.038-.843-2.369-.76 1.866 1.147 3.992 2.016 5.952 3.008 4.568 2.31 9.379 4.728 13.716 7.435.954.545 2.236 1.11 3.039 1.844 1.642 2.076 2.651 4.242 3.032 6.875-1.99 1.248-4.17 1.834-6.515 1.483-.97-.473-2.191-1.556-3.099-2.21-1.362-1.046-2.866-1.98-4.312-2.91a148 148 0 0 0-9.62-5.673c-1.922-1.032-3.886-1.978-5.815-2.997l-.179.245c6.445 3.917 13.097 8.586 18.924 13.392 1.01.747 2.115 1.56 2.981 2.47 1.21 2.384 1.815 4.79 1.572 7.47-2.213.875-4.203 1.056-6.565 1.074-1.009-.866-1.944-2.014-2.837-3.008-1.698-1.546-3.356-3.113-5.123-4.582a118 118 0 0 0-14.359-10.043l-.093.277c5.998 4.472 13.378 10.802 18.283 16.45.773.829 2.248 2.126 2.644 3.201.361 2.039.007 5.468-.381 7.5-1.287.495-3.857 1.141-5.119.532a.9.9 0 0 1-.252-.196l-2.554-3.43C158.413 84.04 153.048 77.866 146.553 73c-.79-.592-1.97-1.681-2.965-1.825-.79-.114-1.553.184-2.278.459.456.072.924.138 1.356.306 1.339.52 2.54 1.482 3.672 2.346 6.396 4.882 11.953 11.254 16.68 17.734 3.449 4.728 5.705 10.347 7.42 15.903.274.968.496 1.937.698 2.923-.336 2-.421 3.846-1.197 5.752-1.794-.368-4.002-.929-5.398-2.201-.227-.905-.372-1.854-.533-2.775-1.287-5.262-3.078-11.535-5.971-16.122.496 1.679 1.138 3.312 1.631 4.992a105 105 0 0 1 2.618 11.554c.192 1.008.283 2.034.384 3.054-.548 1.983-1.467 3.906-2.881 5.422-1.772-.956-3.704-2.233-4.676-4.062.223-1.865.051-3.815.063-5.694-.299-4.648-1.128-9.986-3.251-14.163 1.584 5.579 2.336 11.45 1.528 17.236-.11.917-.247 1.856-.512 2.743-.699 1.673-1.718 2.926-3.316 3.802-1.863-1.126-2.959-2.724-4.012-4.57.081-.872.363-1.798.548-2.659 1.124-5.22 1.64-11.137.412-16.367 1.395-.64 2.603-1.491 3.929-2.246.431.404.799.91 1.176 1.368-.245-.569-.601-1.7-1.223-1.912-.754-.258-3.93 2.066-4.798 2.49-2.29 1.117-4.743 1.832-7.006 3.03-1.009.532-1.844 1.408-2.876 1.883-.167-.171-.074-.416-.133-.641-.024-.093-.031-.123-.12-.167-.384-.19-1.366.213-1.77.333.029-.619.195-1.225.139-1.849l-.114-.092-.43.06c-.156-.282.231-.942.362-1.23 1.595-3.52 2.481-7.064 3.839-10.639.248-.653 1.528-3.422 1.396-3.903-.291-1.067-1.793-1.873-2.696-2.401.569.65 1.428 1.274 1.732 2.1.147.4.008.703-.153 1.065q-.31.67-.589 1.352c-.263.766-.606 1.579-.762 2.374-.138-.24-3.329-2.632-4.091-3.537-.042-.366-1.284-1.908-1.549-2.355-1.049-1.767-.647-2.886-1.233-4.517-.267-.742-.781-1.452-1.26-2.075-2.514-3.269-6.189-5.166-10.233-5.701-.437-.042-.897-.014-1.336-.013-1.158-.004-1.938.495-2.774 1.247.131-.599.25-1.214.497-1.777.558-1.275 1.54-1.827 2.785-2.312.665-.157 1.34-.24 2.017-.33.451-.076.869-.74 1.197-1.071.453-.457.926-.914 1.561-1.094 1.723-.486 4.506-.237 6.342-.236h9.67c-.619.633-1.23 1.295-1.642 2.087-.31.595-.766 1.866-.564 2.516.447-.307.776-1.433 1.11-1.92.258-.376.672-.722 1.01-1.031 1.411-1.29 2.973-2.435 4.427-3.679a252 252 0 0 0 13.448-12.304c2.013-2.014 4.238-4.16 5.752-6.582a6.4 6.4 0 0 0 .685-1.576c.602-2.043.798-4.324 1.047-6.438q.67-6.1 1.262-12.208c.24-2.281.409-4.685.92-6.924.102-.447.224-.864.487-1.244.581-.838 1.512-1.564 2.262-2.25A86 86 0 0 1 180.51 3" fill="#FCFCFF"/><path d="M174.325 73.132c1.009.747 2.114 1.56 2.98 2.47 1.21 2.384 1.815 4.79 1.572 7.47-2.213.875-4.203 1.056-6.565 1.074-1.009-.866-1.943-2.014-2.836-3.008.964-.833 3.877-6.397 4.849-8.006" fill="#F9B939"/><path d="M177.305 75.603c1.21 2.383 1.815 4.788 1.572 7.47-2.213.874-4.203 1.055-6.565 1.073a77 77 0 0 0 2.966-4.925c.668-1.206 1.285-2.458 2.027-3.618" fill="#92989C"/><path d="M168.183 83.24c.773.83 2.248 2.127 2.644 3.201.361 2.04.007 5.468-.381 7.5-1.287.495-3.857 1.141-5.119.532a.9.9 0 0 1-.252-.196l-2.553-3.43c2-2.46 3.784-5.055 5.661-7.606" fill="#F9B939"/><path d="M170.827 86.441c.361 2.04.007 5.469-.381 7.5-1.287.495-3.857 1.141-5.119.532a.9.9 0 0 1-.252-.196c.73-1.104 1.608-2.14 2.403-3.198a277 277 0 0 0 3.349-4.638" fill="#92989C"/><path d="M178.869 63.083c.954.545 2.236 1.11 3.039 1.845 1.643 2.075 2.651 4.241 3.032 6.874-1.99 1.248-4.169 1.835-6.514 1.483-.97-.473-2.192-1.556-3.1-2.21 1.402-2.507 2.477-5.327 3.543-7.992" fill="#F9B939"/><path d="M181.908 64.928c1.643 2.075 2.651 4.241 3.032 6.874-1.99 1.248-4.169 1.835-6.514 1.483.384-1.057.931-2.099 1.383-3.133a103 103 0 0 0 2.099-5.224m-.011-11.264c1.002.392 2.044.751 3.001 1.245 2.073 1.652 3.638 3.471 4.468 6.035-2.138 1.248-4.269 1.822-6.747 1.899-1.034-.44-2.065-1.111-3.063-1.643 1.028-2.3 1.624-5.106 2.341-7.536" fill="#92989C"/><path d="M181.897 53.664c1.002.392 2.044.751 3.001 1.245-.694 2.657-1.365 5.342-2.279 7.934-1.034-.44-2.065-1.111-3.063-1.643 1.028-2.3 1.624-5.106 2.341-7.536m-27.51 57.477c.107.957.062 1.947.062 2.91 1.354-.083 6.028-.724 6.995-1.477l.054-.153c.191 1.008.283 2.034.384 3.054-.549 1.983-1.468 3.906-2.881 5.422-1.773-.956-3.704-2.233-4.677-4.061.223-1.866.052-3.816.063-5.695" fill="#F9B939"/><path d="M154.324 116.835c2.584-.101 5.074-.67 7.558-1.36-.549 1.983-1.468 3.906-2.881 5.422-1.773-.956-3.704-2.233-4.677-4.062" fill="#92989C"/><path d="M169.649 108.298c.274.969.496 1.937.699 2.923-.337 2-.422 3.846-1.197 5.752-1.795-.367-4.002-.929-5.399-2.201-.227-.905-.371-1.854-.533-2.775 1.607-.752 5.346-2.446 6.43-3.699" fill="#F9B939"/><path d="M170.348 111.221c-.337 2-.422 3.846-1.197 5.752-1.795-.367-4.002-.929-5.399-2.201 2.321-.806 4.538-2.221 6.596-3.551" fill="#92989C"/><path d="M145.372 113.531c2.403.479 4.845.661 7.293.683-.11.918-.247 1.856-.513 2.743-.699 1.673-1.718 2.926-3.316 3.802-1.863-1.126-2.959-2.724-4.012-4.569.081-.873.363-1.799.548-2.659" fill="#F9B939"/><path d="M144.824 116.19c2.455.46 4.835.68 7.328.767-.699 1.673-1.718 2.926-3.316 3.802-1.863-1.126-2.959-2.724-4.012-4.569m-27.503-46.237c3.173-.338 7.225 1.538 9.642 3.493 1.385 1.12 2.633 2.478 3.676 3.92-.181 1.933.245 3.525 1.483 5.032 1.196 1.457 2.724 2.416 4.327 3.366-.262.766-.606 1.579-.762 2.374-.138-.24-3.328-2.632-4.091-3.537-.042-.366-1.283-1.908-1.549-2.355-1.048-1.767-.647-2.886-1.233-4.516-.267-.743-.781-1.453-1.26-2.076-2.513-3.269-6.189-5.165-10.233-5.701" fill="#92989C"/><path d="M115.985 69.94c.645-.096 1.299-.238 1.951-.26 3.365-.11 7.034 1.24 9.715 3.231 1.521 1.131 3.043 2.638 4.151 4.175-.01 2.008.181 3.526 1.671 5.016.991.992 2.281 1.76 3.565 2.31q-.309.67-.589 1.352c-1.603-.95-3.131-1.909-4.327-3.365-1.238-1.508-1.664-3.1-1.483-5.033-1.043-1.442-2.291-2.8-3.676-3.92-2.417-1.955-6.469-3.83-9.642-3.493-.437-.042-.896-.014-1.336-.013" fill="#F9B939"/><path d="M165.907 41.304c1.283.129 2.571.194 3.854.333a1.3 1.3 0 0 0-.286.386c-1.185-.162-2.446-.29-3.568-.72" fill="#92989C"/><path d="M116.493 67.098c.666-.157 1.341-.24 2.018-.33l-.144.488c-.439.058-.906.089-1.315.266-.224-.102-.381-.259-.559-.424" fill="#FCFCFF"/><path d="M117.052 67.522c.409-.177.876-.208 1.315-.266.173.231.251.291.273.586l-.111.088c-.162-.04-.321-.073-.475-.136-.379-.157-.757-.067-1.151-.011.029-.15.036-.157.149-.26" fill="#92989C"/><path d="M153.8 58.696a15 15 0 0 1 1.779.799l-.179.245a19 19 0 0 1-1.6-1.044m-5.323 6.974c.515.246 1.066.489 1.516.843l-.093.277a22 22 0 0 1-1.423-1.12m19.468-47.769.262.15c-.257.173-.694.527-.999.489.121-.295.481-.467.737-.639m-.053 5.679.036.26c-.483.201-1.001.322-1.506.46.47-.263.949-.577 1.47-.72" fill="#FCFCFF"/><path d="M121.452 65.457c1.26-.263 2.545-.223 3.818-.103l.15.106-.028.24c-.443.288-1.777-.215-1.942-.012-.348.428-.092 1.239-1.03 1.419-.387-.11-.575-.323-.773-.68-.099-.178-.123-.4-.147-.599z" fill="#92989C"/><path d="m121.452 65.457.048.372c-.662.21-1.308.915-1.931 1.267.535-.731 1.047-1.267 1.883-1.639" fill="#92989C"/><path d="M154.427 3.985c2.089-1.166 4.17-2.022 6.561-2.303-.624 2.344-1.807 4.864-3.525 6.62-.465.518-.949 1.091-1.485 1.537-1.931 2.35-3.881 4.664-5.742 7.074-.728.944-1.534 1.902-2.177 2.906l.305.123a115 115 0 0 1 8.47-8.623c.81.615 2.058 3.59 2.77 4.594l-10.231 8.99.22.208c3.522-2.625 7.153-5.215 10.877-7.54.509-.431 1.175-.785 1.74-1.144.48-.267.958-.502 1.465-.713a36 36 0 0 0-.423 2.436c-.196 1.372-.244 2.837-.545 4.183l.033.193c-1.035.715-2.215 1.273-3.3 1.914a155 155 0 0 0-7.284 4.603c-.935.63-1.938 1.235-2.808 1.95 2.396-1.032 4.717-2.309 7.066-3.448 2.001-.97 4.125-1.84 6.069-2.903a342 342 0 0 1-.621 6.466c-3.711 1.317-7.553 2.788-11.095 4.507 1.214-.225 2.422-.645 3.608-.989 2.427-.702 4.856-1.447 7.312-2.04l-.648 5.665q-3.728.825-7.42 1.798l.105.235c2.367-.435 4.782-.798 7.178-1.019-.581 2.548-.95 3.911-2.844 5.84-1.456.2-2.963.257-4.402.523.981.591 2.571-.16 3.68.226-.337.899-4.527 4.852-5.438 5.612l-.324.32a274 274 0 0 1-10.967 9.87l-.753-.053c2.112-3.433 8.924-15.553 8.964-19.182.018-1.616-.382-3.268-.703-4.845a311 311 0 0 0-1.807-8.033c-.685-2.957-1.57-6.03-1.917-9.045-.054-.474-.087-.973.048-1.436.296-1.02.936-2.016 1.454-2.939a76 76 0 0 1 7.123-10.648c.407-.538.869-1.084 1.411-1.49" fill="#FCFCFF"/><path d="M154.427 3.985c2.089-1.166 4.17-2.022 6.561-2.303-.624 2.344-1.807 4.864-3.525 6.62-1.058-1.402-1.971-2.915-3.036-4.317" fill="#92989C"/><path d="M153.016 5.475c.407-.538.869-1.084 1.411-1.49 1.065 1.402 1.978 2.915 3.036 4.316-.465.519-.949 1.092-1.485 1.538-.596-1.029-2.147-3.627-2.962-4.364m9.194 10.952c.48-.267.958-.502 1.465-.713a36 36 0 0 0-.423 2.436c-.196 1.372-.244 2.837-.545 4.183-.711-1.605-1.541-3.154-2.238-4.763.51-.43 1.176-.784 1.741-1.143" fill="#F9B939"/><path d="M162.21 16.427c.48-.267.958-.502 1.465-.713a36 36 0 0 0-.423 2.436c-.445-.408-.731-1.194-1.042-1.723m-9.652 29.263q.55-.014 1.098-.062c.981.591 2.571-.16 3.68.226q-2.267.069-4.535.068z" fill="#92989C"/><path d="M146.659 21.758c.427-.664.867-1.355 1.4-1.94l.305.123c-.518.646-1.066 1.29-1.705 1.817m2.925 29.771c.707-.082 1.62-.217 2.314-.063l-.324.32c-.654-.115-1.331-.173-1.99-.257m-.211-26.626.22.208c-.494.418-1.035.792-1.555 1.179.379-.547.839-.952 1.335-1.387m4.351 15.381c-.239.055-.487.125-.731.148-.176.017-.266.034-.403-.076.298-.224.67-.246 1.029-.307z" fill="#FCFCFF"/><path d="M152.801 45.922c-.302.003-.546-.003-.837-.104.145-.128.4-.11.594-.127z" fill="#92989C"/><path d="M171.876 92.733c.51.901 1.121 1.755 1.666 2.637 1.17 1.895 2.288 3.9 3.136 5.963.439.868.803 1.772 1.086 2.703.391 2.068.096 4.459-.62 6.439-1.418.058-3.721.129-4.987-.573-.397-.861-.684-1.809-1.024-2.698-1.545-4.17-3.907-7.88-6.313-11.582 2.332.412 4.452.087 6.616-.838q.206-1.029.44-2.05" fill="#FCFCFF"/><path d="M176.678 101.333c.439.868.803 1.772 1.086 2.703.391 2.068.096 4.459-.62 6.439-1.418.058-3.721.129-4.987-.573-.397-.861-.684-1.809-1.024-2.698 2.089-1.765 3.832-3.752 5.545-5.871" fill="#F9B939"/><path d="M177.764 104.036c.391 2.068.096 4.459-.619 6.439-1.419.058-3.722.129-4.988-.573.726-.818 1.638-1.517 2.425-2.283 1.149-1.119 2.179-2.333 3.182-3.583m9.023-76.53c2.868.324 5.52.864 7.604 3.044-1.701 2.255-4.608 3.526-7.297 4.15-.91-.033-1.831-.008-2.742-.01q.034-3.458-.107-6.912c.823-.173 1.704-.153 2.542-.272" fill="#92989C"/><path d="M186.787 27.506c.151 2.387.333 4.8.307 7.194-.91-.033-1.831-.008-2.742-.01q.034-3.458-.107-6.912c.823-.173 1.704-.153 2.542-.272" fill="#F9B939"/><path d="M131.596 84.602c.763.904 3.953 3.297 4.091 3.536-.594 1.659-.972 3.4-1.562 5.066-1.184.11-2.401.34-3.534.704-.747.239-1.481.569-2.253.713-.174-.18.083-.494-.035-.758-.493-.175-1.196-.093-1.72-.093.174-.424.624-1.253.515-1.684-.172-.061-.322-.092-.422-.257.427-.817 1.195-1.501 1.731-2.26 1.134-1.606 2.154-3.297 3.189-4.967" fill="#FCFCFF"/><path d="M185.733 18.763c2.407-.46 5.495-.442 7.592.957q.278.189.543.396c-1.531 2.711-4.552 4.068-7.319 5.157-.816.195-1.656.363-2.492.443.014-1.024-.42-5.489-.773-6.346.807-.119 1.653-.408 2.449-.607" fill="#92989C"/><path d="M183.284 19.37c.807-.118 1.653-.408 2.449-.607.318 2.158.656 4.333.816 6.51-.816.195-1.656.363-2.492.444.014-1.025-.42-5.49-.773-6.346" fill="#F9B939"/><path d="M184.32 36.627c.907.005 1.88.123 2.78.25 2.784.835 4.836 1.887 6.68 4.219-1.801 1.817-4.192 2.584-6.712 2.585q-.183.001-.365-.004l-2.868-.415c.174-2.212.372-4.419.485-6.635" fill="#92989C"/><path d="M184.32 36.627c.907.005 1.88.123 2.78.25a212 212 0 0 1-.397 6.8l-2.868-.415c.174-2.212.372-4.419.485-6.635" fill="#F9B939"/><path d="M183.554 45.071c.968.27 1.975.51 2.908.883 2.377 1.179 4.307 2.674 5.652 4.998-2.137 1.591-4.212 2.034-6.813 1.97-1.018-.344-2.037-.721-3.079-.984.661-1.445 1.072-5.182 1.332-6.867" fill="#92989C"/><path d="M183.554 45.071c.968.27 1.975.51 2.908.883-.344 2.328-.67 4.666-1.161 6.969-1.018-.345-2.037-.722-3.079-.985.661-1.445 1.072-5.182 1.332-6.867" fill="#F9B939"/><path d="M184.018 10.277c2.878-.585 5.808-.758 8.534.524-1.585 2.563-4.43 4.572-7.231 5.64-.764.313-1.541.592-2.318.873-.314-2.069-.768-4.12-1.167-6.173a34 34 0 0 1 2.182-.864" fill="#92989C"/><path d="M181.836 11.14c.722-.307 1.44-.607 2.182-.864q.686 3.075 1.303 6.165c-.764.313-1.541.592-2.318.873-.314-2.069-.768-4.12-1.167-6.173" fill="#F9B939"/><path d="M181.841 2.235c2.816-.416 5.285-.635 8.092-.027-1.679 2.382-3.875 4.56-6.445 5.974q-1.056.57-2.121 1.123c-.522-1.975-.934-4.012-1.646-5.93a9.3 9.3 0 0 1 2.12-1.14" fill="#92989C"/><path d="M179.721 3.375a9.3 9.3 0 0 1 2.12-1.14c.51 1.993 1.116 3.96 1.647 5.947q-1.056.57-2.121 1.123c-.522-1.975-.934-4.012-1.646-5.93" fill="#F9B939"/><path d="M158.477 9.96c2.11-1.48 4.587-2.116 7.141-1.997-.703 2.553-2.298 4.894-4.335 6.594-.535.444-1.092.989-1.679 1.356-.712-1.005-1.96-3.98-2.77-4.594.536-.462 1.033-.998 1.643-1.36" fill="#92989C"/><path d="M158.477 9.96c.96 1.506 1.788 3.138 2.806 4.597-.535.444-1.092.989-1.679 1.356-.712-1.005-1.96-3.98-2.77-4.594.536-.462 1.033-.998 1.643-1.36" fill="#F9B939"/><path d="M132.365 100.203c.048.021.096.082.134.119q-.09.878-.171 1.757c.705-.246 1.447-.395 2.174-.568-.467.916-1.2 1.785-1.49 2.779-.405 1.386.292 3.051-.381 4.956-.154.438-.411 1.071-.87 1.262-.28.116-.505.077-.775-.036-.72-.76.589-2.594.447-3.687-.117-.894-.822-1.597-1.507-2.115-3.931-2.309-5.437 1.515-6.685 1.528a.71.71 0 0 1-.571-.273.7.7 0 0 1-.148-.54c.056-.405.506-.873.785-1.151 1.08-1.076 2.564-1.675 4.068-1.791.742-.057 1.451-.066 2.157-.329 1.055-.395 1.962-1.211 2.833-1.911m-5.72-7.821c-.249.592-.448 1.21-.71 1.793.597.004 1.266-.053 1.849.08.034.622-1.125 1.474-1.329 2.147l-.017.058c-.362 1.197-.044 2.706-.854 3.751a11 11 0 0 0-1.719.09c.59-.835 1.032-1.63.844-2.687-.149-.836-.68-1.574-1.379-2.04-.782-.521-2.048-.847-2.976-.635-.769.175-2.393 1.589-3.028 1.229-.182-.104-.189-.174-.26-.353.023-.42.226-.768.532-1.05 1.018-.938 2.484-1.3 3.836-1.219 2.592.156 2.872.026 5.211-1.164" fill="#92989C"/><path d="M132.621 94.788c.283.433-1.695 4.324-1.856 5.17-.42.373-.855.708-1.359.958l-1.334-.74c-.312-.159-.648-.274-.976-.4.227-.907.096-2.35.582-3.115.549-.862 3.894-1.68 4.943-1.873" fill="#F9B939"/><path d="m123.856 100.742.009-.441a11 11 0 0 1 1.719-.09c.009.162-.016.312.082.445.887.114 1.682.447 2.499.788-1.125-.048-2.309-.162-3.422.045-.739.137-1.498.766-2.237.723-.076-.073-.17-.154-.224-.245-.123-.208-.072-.323 0-.529.454-.466.96-.563 1.574-.696" fill="#92989C"/><path d="m123.856 100.742.009-.441a11 11 0 0 1 1.719-.09c.009.162-.016.312.082.445q-.906.008-1.81.086" fill="#FCFCFF"/><path d="M125.449 101.79c.881-.076 1.777.02 2.657.086-1.623.244-2.946.498-4.326 1.458-.278.244-.727.725-1.107.759-.238.021-.311-.021-.492-.166-.06-.292.015-.496.187-.738.668-.942 2.008-1.245 3.081-1.399m-4.447-8.709c-1.463.095-3.307 1.222-3.789 1.215-.172-.14-.26-.214-.262-.451-.002-.236.149-.411.323-.55.826-.659 2.392-.775 3.392-.603.385.05.767.078 1.121.252l-.06.093q-.362.033-.725.044" fill="#92989C"/><path d="M120.666 92.692c.386.05.767.078 1.121.252l-.06.093a12 12 0 0 1-.725.044l-.419-.09-.072-.118z" fill="#92989C"/><path d="M118.522 91.442c1.651-.166 3.079.562 4.37 1.502a120 120 0 0 1-1.461-.528c-1.561-.373-3.343.243-3.845.116-.107-.028-.145-.141-.203-.228-.007-.25-.017-.304.113-.53.301-.218.669-.26 1.026-.332" fill="#92989C"/><path d="m139.853 61.603.754.053-1.546 1.33z" fill="#FCFCFF"/></g><defs><clipPath id="a"><path fill="#fff" d="M0 0h196v126H0z"/></clipPath></defs></svg>