<svg width="196" height="126" viewBox="0 0 196 126" fill="none" xmlns="http://www.w3.org/2000/svg">
<g clip-path="url(#clip0_249_310)">
<path d="M59.7402 75.9241C56.9213 74.051 53.029 73.4829 50.4778 71.257C48.8719 69.8557 48.3049 68.0158 48.1698 65.9491C47.9193 62.1078 48.7046 57.798 51.3205 54.8336C54.7627 50.933 58.3707 51.1053 63.1295 51.1155C66.2888 51.1222 69.55 51.2833 72.6975 51.0842C72.4585 52.921 71.9202 55.9159 71.3526 57.6583C70.4309 60.4877 68.3909 60.8437 65.7237 60.8197L62.5508 60.7891C61.7862 60.7824 60.9299 60.7221 60.2326 61.0925C59.4744 61.4954 59.3345 62.3802 59.1149 63.1346C61.6546 64.8355 64.7281 65.6668 67.2685 67.3558C69.6269 68.9239 70.3898 71.093 70.9367 73.7362C71.1894 71.5084 71.9033 69.2506 72.4304 67.07C73.2967 63.393 74.19 59.7224 75.1101 56.0585C74.5269 56.0461 73.7884 56.099 73.2572 55.8276C73.0388 55.2885 73.92 51.9133 74.0864 51.1206L80.5856 51.112C81.8079 51.1094 83.1183 51.016 84.3249 51.1854C84.9152 51.2686 85.4984 51.4565 85.9962 51.7905C86.7598 52.3031 87.1442 53.3484 87.1572 54.2422C87.1789 55.7488 86.4532 57.5664 86.1023 59.0325L82.5001 73.9674C82.1125 75.6227 81.601 77.2795 81.2826 78.9459C81.2112 79.3188 81.1698 79.6738 81.2428 80.0499C81.4245 80.3488 81.6574 80.4713 81.985 80.5654C83.3115 80.9482 85.3008 80.8521 86.5128 80.1717C87.4316 79.6556 87.9122 77.661 88.1755 76.6728C88.81 74.6861 89.1905 72.5473 89.6928 70.5157C90.885 65.6935 92.0349 60.8564 93.2861 56.0496C92.7157 56.0461 91.9556 56.1137 91.4348 55.8506C91.2378 55.1765 92.1089 51.9698 92.2832 51.1136L98.7703 51.1082C99.9657 51.1075 101.298 50.9968 102.473 51.2284C103.146 51.3611 103.792 51.6358 104.299 52.1069C104.931 52.6942 105.108 53.4234 105.139 54.261C105.213 56.2735 104.243 59.1173 103.746 61.1126L101.753 69.1029L99.8478 76.779C99.4233 78.4865 99.0622 80.248 98.443 81.8968C97.8483 83.4803 97.0073 84.9872 95.8462 86.2258C92.9795 89.2833 88.744 90.1025 84.7249 90.2339C80.5892 90.3695 75.1917 90.4281 71.9706 87.3604C70.7573 86.2054 69.6807 84.2851 69.6514 82.5737L69.6504 82.4614C69.6049 82.4767 69.5523 82.4783 69.5137 82.5074C69.3161 82.657 69.0143 83.4911 68.8556 83.7629C68.483 84.4018 68.0452 85.05 67.5776 85.6226C66.7012 86.696 65.5669 87.577 64.353 88.2383C63.0116 88.956 61.5583 89.4402 60.055 89.6705C57.5854 90.0737 54.91 89.8757 52.4107 89.8741C50.5619 89.8728 48.5666 90.0138 46.7353 89.7557C46.1505 89.6731 45.5431 89.3949 44.971 89.2275C44.6972 89.3139 44.8496 89.5991 44.6539 89.8342C43.1095 89.9398 41.5335 89.8814 39.9853 89.8814C38.6585 89.8814 37.2869 89.95 35.9652 89.8265C34.8545 89.7229 33.8816 89.3822 33.1556 88.4932C32.7467 87.9927 32.4901 87.4124 32.3827 86.7764C32.0452 84.7757 32.2642 82.4972 32.2648 80.4611C32.2658 78.0147 32.1003 75.4367 32.3585 73.0079L28.1482 83.4631C27.2907 85.5591 26.23 87.7104 25.5999 89.8792C23.2786 89.869 20.8118 90.0495 18.5055 89.8517C17.6246 89.7765 16.7818 89.5745 16.1969 88.8683C15.845 88.4431 15.6268 87.9203 15.5218 87.3815C15.3711 86.6073 15.4093 85.7824 15.3622 84.9961C15.2428 83.0021 15.1481 81.0247 15.0719 79.0291C15.0073 77.3369 14.7527 75.5777 14.9299 73.8922C13.4732 77.4619 12.7127 81.3201 11.2321 84.8889C11.9456 84.9499 12.6607 84.9894 13.3765 85.0069C13.0904 86.6472 12.4678 88.2364 12.2828 89.8929C10.1047 89.8428 3.74558 90.2173 2.13516 89.4603C1.29434 89.0651 0.747332 88.3739 0.434551 87.5053C0.090754 86.5505 0.307177 85.7027 0.554975 84.7562C0.980062 83.1326 1.67477 81.5246 2.2531 79.9491L5.42803 71.3036L9.02088 61.4944C9.67964 59.6998 10.2754 57.8206 11.073 56.0866C10.3338 56.0397 9.63833 55.9188 8.91361 55.7714C9.03223 54.8952 9.59413 51.6524 10.156 51.1149L16.8707 51.1168C18.0471 51.1171 19.264 51.046 20.4349 51.1391C21.5154 51.2249 22.6104 51.5978 23.3219 52.4549C23.8392 53.0782 24.0872 53.869 24.2247 54.6556C24.612 56.8729 24.4157 59.5677 24.473 61.8399C24.5202 63.7114 24.7951 65.7136 24.6025 67.5727C26.2326 63.7158 27.7971 59.8216 29.5138 56.0027C29.1186 56.0266 28.6239 56.0474 28.2391 55.959C28.0072 55.9057 27.9451 55.8687 27.8174 55.6757C27.8461 54.2929 28.5143 52.4795 28.8675 51.119C31.1373 51.0919 33.4099 51.1107 35.6797 51.1117C37.0695 51.1123 38.546 51.0109 39.9196 51.2077C40.4907 51.2897 41.0414 51.4418 41.5173 51.7784C42.199 52.26 42.6126 52.921 42.8058 53.7299C43.2322 55.5169 43.0203 58.7715 43.0266 60.6937C43.0327 62.459 43.1461 64.2122 43.1809 65.9752C43.236 68.7817 43.2194 71.6025 43.2233 74.4099C43.2178 76.652 43.2268 78.8939 43.2494 81.1357C43.2612 82.1 43.1755 83.204 43.3555 84.1431L43.3724 84.228C43.564 83.1699 44.2096 79.3724 44.688 78.661C45.6779 78.2189 47.9075 78.4786 49.0293 78.4926C49.0695 79.1551 49.1935 79.8158 49.2859 80.4729C51.2003 80.4502 55.0789 80.7507 56.7463 80.328C57.4554 80.1545 58.1027 79.7874 58.6155 79.2674C59.5936 78.2852 59.7504 77.2431 59.7402 75.9241Z" fill="#92989C"/>
<path d="M30.4653 53.091C32.2074 53.1127 39.2214 52.8199 40.3346 53.3628C40.7636 53.5721 40.9242 54.5762 40.9765 54.9951C41.2346 57.0666 41.0147 59.4261 41.0469 61.5343L41.2442 78.9032C41.2779 80.8786 40.9707 83.3419 41.6011 85.229C41.9173 86.1748 42.612 86.5298 43.4556 86.9391L43.1439 87.8788L38.6748 87.898C37.7974 87.9005 36.8509 87.9697 35.985 87.8278C35.5796 87.7614 35.129 87.6389 34.8252 87.3471C34.4536 86.9898 34.3147 86.5021 34.2535 86.0061C33.9469 83.5205 34.2522 80.9016 34.2589 78.3995C34.2382 73.2816 34.2452 68.1638 34.2796 63.0463C33.9131 63.7953 33.6145 64.5841 33.2977 65.3558C32.2231 67.8464 31.2548 70.3974 30.2371 72.9126L24.1764 87.8967C23.0809 87.8664 18.414 88.1758 17.7606 87.57C17.5144 87.3416 17.439 86.6316 17.404 86.311C17.1054 83.5757 17.1362 80.6369 17.0011 77.8722C16.7597 72.9333 16.4289 67.9727 16.3394 63.0297C15.0221 66.4805 13.9962 70.11 12.8532 73.6236C11.7283 77.0817 10.4467 80.5501 9.46347 84.0471C9.32828 84.5282 9.13652 85.1295 9.16992 85.6277C9.22378 86.4316 10.1603 86.4855 10.6666 86.9611C10.8048 87.3056 10.7118 87.52 10.6462 87.8807C8.99919 87.8839 4.62877 88.1429 3.30002 87.7343C2.89278 87.609 2.59877 87.4243 2.40633 87.03C2.15088 86.5069 2.27763 85.9694 2.4145 85.4328C2.96195 83.287 3.96346 81.1667 4.70874 79.0767L10.2342 64.0017C11.0681 61.7308 11.9982 59.4577 12.7329 57.1543C12.9415 56.5004 13.2501 55.6901 12.8827 55.0448C12.5581 54.4751 11.8612 54.3006 11.28 54.1229L11.5652 53.0942L17.4571 53.091C18.4584 53.0901 19.5435 52.9992 20.5312 53.1526C20.9516 53.2177 21.3282 53.3143 21.6454 53.6167C22.015 53.9695 22.1323 54.3813 22.2089 54.8671C22.6025 57.3645 22.4567 60.5454 22.5214 63.1213C22.6349 67.633 22.8383 72.1425 22.8854 76.6562C24.4186 73.4625 25.8235 69.767 27.2286 66.4627C28.5954 63.2479 30.1715 59.9655 31.348 56.6886C31.5321 56.1756 31.8407 55.4343 31.5731 54.914C31.3129 54.4084 30.6631 54.2253 30.1673 54.0512L30.4653 53.091Z" fill="#FCFCFF"/>
<path d="M75.7283 53.0859C77.0643 53.1178 84.213 52.8361 84.8265 53.4336C85.1191 53.7181 85.0933 54.3803 85.0493 54.7637C84.8364 56.6282 84.0546 59.0768 83.5897 60.9776L80.4457 73.8545C79.9887 75.7321 79.2381 77.8814 79.2021 79.8157C79.1897 80.4885 79.3602 81.0901 79.8418 81.5772C80.8307 82.5772 82.5714 82.7542 83.9106 82.7552C85.461 82.7562 87.0721 82.4812 88.2028 81.3284C88.8753 80.6432 89.3033 79.7149 89.6108 78.8163C90.2205 77.0338 90.6138 75.1566 91.0651 73.3278L93.18 64.7378C93.6048 63.0118 95.3812 56.7293 95.3258 55.4706C95.2824 54.4929 94.4755 54.5621 93.8913 54.0234C93.7616 53.6754 93.8594 53.4486 93.9286 53.0881C95.6279 53.1025 97.3272 53.1009 99.0262 53.0836C99.9883 53.0804 101.068 52.9844 102.01 53.186C102.351 53.2594 102.832 53.4093 103.013 53.7286C103.464 54.5213 102.976 55.8859 102.768 56.7025L98.9264 72.1916C98.2173 75.0705 97.6573 78.1366 96.6627 80.9217C96.2704 82.0206 95.748 83.0681 95.0568 84.0098C93.1905 86.5521 90.385 87.5732 87.3876 88.023C83.6629 88.5818 76.9212 88.6495 73.8126 86.3027C72.4613 85.2825 71.6996 83.7878 71.5294 82.1134C71.4418 81.1727 71.4663 80.225 71.6021 79.2904C71.939 76.95 72.6595 74.5882 73.2169 72.2867L76.3437 59.3546C76.5228 58.6123 77.3154 55.9108 77.1988 55.2945C77.063 54.5768 76.1691 54.4658 75.6591 54.0884C75.5521 53.7825 75.6738 53.3991 75.7283 53.0859Z" fill="#FCFCFF"/>
<path d="M58.8768 53.1228C60.898 53.007 62.9772 53.097 65.0038 53.0967C66.7401 53.096 68.5506 52.9908 70.2783 53.1365C70.003 54.4387 69.8238 56.662 69.1425 57.7494C67.5786 60.2455 61.1007 57.322 58.4861 59.9C57.7445 60.6315 57.1938 61.9556 57.2075 62.9993C57.2164 63.6711 57.4972 64.2354 57.9762 64.6966C58.6767 65.3707 59.6223 65.771 60.4917 66.1799C62.5495 67.1474 65.422 68.158 67.0336 69.7593C68.441 71.1577 68.9245 73.0458 68.9337 74.9834C68.95 78.4766 68.0461 82.3695 65.4969 84.8994C62.4839 87.8893 58.7446 87.9001 54.7902 87.88C52.7747 87.888 48.5214 88.1374 46.7315 87.688C46.1671 87.5463 45.5176 87.2615 45.2276 86.7227C44.7553 85.8449 45.7566 82.2445 46.0613 81.1564C46.1448 80.8572 46.2066 80.5921 46.4807 80.4352C47.2867 80.4466 47.3877 81.5478 47.9467 82.0177C48.2183 82.2457 48.5265 82.381 48.8735 82.4397C49.7388 82.5858 50.8061 82.4658 51.6946 82.4646C53.1798 82.462 54.7264 82.5673 56.2039 82.4256C57.8898 82.2639 59.4154 81.5743 60.4911 80.2358C61.4366 79.0591 61.8812 77.3872 61.6992 75.8896C61.6221 75.2554 61.3133 74.7036 60.8394 74.2803C59.0126 72.6496 54.2085 71.6975 52.0411 69.9389C50.889 69.0039 50.3054 67.6862 50.1572 66.2284C49.8162 62.8816 50.5209 58.9577 52.6874 56.2999C54.279 54.3477 56.4219 53.3876 58.8768 53.1228Z" fill="#FCFCFF"/>
<path d="M31.9394 42.568C32.3594 41.4665 32.7964 40.3634 33.2629 39.2814C33.4022 38.958 33.6365 38.6371 33.7531 38.3159C33.8682 37.9981 33.524 37.8233 33.6298 37.5178C34.2633 37.2603 35.2121 37.4221 35.8919 37.4651C36.0678 39.6285 35.7539 41.8783 36.0573 44.0229C36.1325 44.5533 36.3728 44.9859 36.6179 45.4545C35.9305 45.5039 35.1334 45.6752 34.5798 45.1527C33.9058 44.5163 34.2592 42.1003 34.2755 41.2183C34.336 40.9054 34.4307 40.5969 34.336 40.2843C34.046 40.4553 33.9105 41.1035 33.8181 41.4215C33.2837 42.5558 32.9031 44.5422 32.0901 45.4245C31.6827 45.6003 31.1356 45.5227 30.6965 45.5097C30.2854 43.6777 30.408 41.7469 30.3599 39.8763C29.9881 41.232 29.4389 42.545 29.0921 43.9055C28.9835 44.3316 28.8838 44.7607 29.1314 45.1565C29.1876 45.2465 29.1619 45.2698 29.1472 45.3722C29.0791 45.4197 29.0236 45.4577 28.9427 45.4806C28.5489 45.5932 27.756 45.5594 27.4031 45.3562C26.7558 44.2851 29.3418 39.8011 29.4799 38.321C29.5118 37.9796 29.3871 37.9028 29.1783 37.6591L29.2245 37.5311C29.2402 37.5254 29.2558 37.519 29.2717 37.5136C29.7829 37.342 31.0125 37.3251 31.5113 37.5758C31.9693 38.0166 31.8629 41.7188 31.9394 42.568Z" fill="#92989C"/>
<path d="M17.2902 42.7035C17.552 41.8693 19.061 38.4925 19.105 38.1251C19.0315 37.9308 18.9347 37.7442 18.964 37.5324C19.5658 37.253 20.5864 37.4195 21.2498 37.4552C21.3534 39.2249 21.115 42.9679 21.4666 44.3275C21.5683 44.7208 21.8083 45.1278 21.9934 45.4905C21.5119 45.4962 20.4314 45.6509 20.0619 45.3374C19.6078 44.952 19.775 40.6754 19.7296 39.8266L19.372 40.8412C19.0651 41.7114 18.0261 44.8911 17.4451 45.4162C17.2992 45.5479 16.9533 45.5546 16.7625 45.5358C16.4993 45.5103 16.3271 45.4056 16.1694 45.1929C15.5205 44.3163 15.7363 41.0387 15.8213 39.9462C15.385 40.9038 14.3492 43.5731 14.2933 44.5463C14.2726 44.9074 14.5709 45.0528 14.5342 45.3989C14.2196 45.5757 13.4257 45.5406 13.0727 45.4573C12.8028 45.3935 12.7412 45.3259 12.5891 45.1144C12.5029 43.8949 14.4396 39.973 14.8124 38.4546C14.886 38.1544 14.7553 37.9464 14.6039 37.6999L14.5536 37.6192C14.7926 37.4297 15.1789 37.4428 15.4748 37.4112C15.9658 37.3997 16.5215 37.326 16.9387 37.6284C17.3588 38.5075 17.1898 41.528 17.2902 42.7035Z" fill="#92989C"/>
<path d="M88.0113 37.4099L89.1867 37.4673C89.1315 39.1656 88.5152 41.054 88.0954 42.7032C87.9734 43.1833 87.7311 43.8129 87.7063 44.2997C87.6884 44.65 87.7774 45.0605 87.8255 45.4092C87.2655 45.9677 86.4184 45.1849 85.8209 45.2162C85.3463 45.241 84.8731 45.5045 84.3478 45.5323C83.9766 45.5023 83.6368 45.4541 83.2958 45.295C83.0444 45.1779 82.79 44.9702 82.7075 44.6953C82.4366 43.7935 83.2636 40.8562 83.7117 40.0218C84.4023 38.7359 86.0341 39.3206 87.0909 38.8989C87.3382 38.8004 87.3748 38.7056 87.4736 38.4788C87.4619 38.1917 87.3478 37.9981 87.2085 37.7563L87.1514 37.6584L87.1922 37.5133L88.0113 37.4099ZM84.8434 44.146C85.2727 44.1246 85.6488 44.1351 85.9455 43.7731C86.3203 43.3156 86.8863 40.9424 86.8761 40.3369L86.7505 40.2939C86.1654 40.3341 85.7979 40.3787 85.3878 40.8457C84.7762 41.5424 84.5289 42.544 84.6162 43.457C84.6414 43.7208 84.7143 43.9163 84.8434 44.146Z" fill="#92989C"/>
<path d="M133.712 39.0138C134.405 38.9803 135.299 38.8929 135.968 39.0671C136.638 39.2415 136.95 39.5433 137.287 40.1395C137.273 41.462 137.059 43.0266 136.401 44.1913C135.993 44.9138 135.512 45.2423 134.727 45.4618C133.53 45.5537 132.697 45.4538 131.591 44.9948C131.401 44.6675 131.26 44.2914 131.106 43.9447C131.443 42.7514 131.515 41.4046 132.091 40.2932C132.476 39.5506 132.931 39.2594 133.712 39.0138ZM134.238 44.1584C134.882 43.7287 135.215 42.7003 135.363 41.9558C135.44 41.567 135.506 40.9829 135.264 40.6422C135.146 40.4773 134.956 40.3708 134.757 40.342C134.615 40.3216 134.467 40.3245 134.324 40.3258C133.595 40.9089 133.249 41.8521 133.14 42.766C133.099 43.1118 133.087 43.5491 133.307 43.8391C133.465 44.0468 133.702 44.146 133.955 44.1613C134.051 44.167 134.143 44.1635 134.238 44.1584Z" fill="#92989C"/>
<path d="M116.683 37.4073C116.983 37.4035 117.406 37.3818 117.687 37.48C118.666 37.8233 116.23 42.6393 116.906 43.7893C117.018 43.9804 117.175 44.0655 117.385 44.1204C117.676 44.1969 117.964 44.1903 118.219 44.0167C119.179 43.3644 119.921 39.3372 120.122 38.0887C120.029 37.8966 119.916 37.726 119.954 37.5059C120.512 37.267 121.421 37.4255 122.028 37.4666C121.985 37.9604 121.934 38.4309 121.811 38.912C121.439 40.3949 121.161 41.9436 120.713 43.4017C120.487 44.1389 120.115 44.7823 119.411 45.1469C118.476 45.6311 116.958 45.6793 115.97 45.338C115.557 45.1954 115.116 44.9226 114.949 44.4997C114.472 43.2913 115.534 40.3831 115.875 39.0565C115.93 38.844 116.106 38.3467 116.063 38.1384C116.032 37.984 115.885 37.756 115.815 37.6067L115.891 37.4969L116.683 37.4073Z" fill="#92989C"/>
<path d="M38.7526 39.0116C39.7313 38.9994 41.1661 38.8141 42.0753 39.135C43.8441 39.7586 41.247 43.7326 41.8653 44.9368C41.9402 45.0825 41.9765 45.1706 42.0033 45.3329C41.9842 45.3543 41.9663 45.377 41.9459 45.3971C41.4255 45.9141 40.3496 45.2545 39.7444 45.2219C39.3393 45.3958 39.0168 45.4937 38.5763 45.5221C38.0789 45.5151 37.5304 45.451 37.1575 45.0838C36.848 44.7795 36.7183 44.3527 36.7081 43.9281C36.6845 42.9606 37.0899 42.0416 37.7439 41.3491C38.7558 41.1255 40.0108 41.395 40.8691 40.7363L40.8573 40.5947C40.1819 40.2598 39.3167 40.4872 38.6194 40.2291C38.4983 40.1845 38.4317 40.1634 38.3883 40.04C38.3188 39.8409 38.2924 39.4017 38.3937 39.2132C38.4677 39.0754 38.6117 39.0632 38.7526 39.0116ZM39.8002 44.1093C40.3337 43.6902 40.3101 42.848 40.3894 42.2219L39.1051 42.2975C38.8243 42.4292 38.5961 42.7721 38.5065 43.0684C38.4482 43.2614 38.5037 43.4748 38.6038 43.6436C38.7319 43.8589 38.9228 44.0522 39.1774 44.0946C39.3747 44.1278 39.6003 44.1122 39.8002 44.1093Z" fill="#92989C"/>
<path d="M91.4068 39.0183C92.2309 38.9691 93.2352 38.8821 94.0125 39.1947C94.3758 39.3408 94.6789 39.5829 94.8264 39.9545C95.1174 40.6872 94.7917 41.5973 94.4762 42.2671C93.37 42.4888 92.1688 42.4072 91.0431 42.4065C90.8631 43.0987 90.8975 43.4088 91.1525 44.08C92.2118 44.1154 92.8929 44.1304 93.8426 43.6222C93.8936 43.5721 93.979 43.5587 94.0463 43.5364L94.117 43.6838C94.0797 44.0465 94.0357 44.428 93.8614 44.7549C93.6711 45.1109 93.3748 45.3725 92.9802 45.4752C92.1344 45.695 90.5769 45.6159 89.8295 45.1623C89.4554 44.9355 89.1905 44.5891 89.0882 44.1613C88.8161 43.0206 89.5207 40.9545 90.1298 39.9979C90.4459 39.5009 90.8217 39.1484 91.4068 39.0183ZM91.1448 41.3032L92.76 41.2658C92.9821 41.271 93.0341 41.2961 93.2199 41.1631C93.2635 40.9513 93.2858 40.8378 93.1462 40.6534C92.9901 40.4476 92.7622 40.3446 92.5114 40.3338C92.3313 40.3261 92.1487 40.3347 91.969 40.3414C91.6783 40.6524 91.4055 40.9666 91.1448 41.3032Z" fill="#92989C"/>
<path d="M54.936 39.0163C55.5636 38.9949 56.2405 38.934 56.8619 39.0204C57.3263 39.0852 57.7938 39.2565 58.0669 39.6616C58.5501 40.379 58.2304 41.4562 58.0631 42.2333C58.0469 42.2368 58.0306 42.2406 58.014 42.2438C57.9866 42.2489 57.9592 42.2534 57.9318 42.2588C57.014 42.4378 55.2665 42.1181 54.5307 42.6154C54.3034 42.7689 54.2751 42.8808 54.219 43.1293C54.2872 43.4167 54.4389 43.6757 54.653 43.8818C55.0313 44.2458 56.0961 44.0994 56.5939 44.0847L57.355 43.4735L57.4538 43.5086C57.507 43.5765 57.5137 43.5756 57.5484 43.6697C57.6498 43.9443 57.5076 44.3676 57.376 44.6184C57.15 45.0493 56.6694 45.3316 56.2137 45.4592C55.1167 45.767 53.7823 45.5284 52.8055 44.9798C52.4617 43.5973 52.6341 41.6709 53.2753 40.3745C53.66 39.5965 54.1323 39.2894 54.936 39.0163ZM54.7933 41.3057L56.3928 41.2629L56.6682 41.2326L56.7714 41.0961C56.7099 40.7988 56.599 40.6712 56.3514 40.5012C56.0438 40.2897 55.6671 40.3436 55.3124 40.3656C55.0383 40.6444 54.93 40.9471 54.7933 41.3057Z" fill="#92989C"/>
<path d="M96.2628 39.0325C96.6456 39.0127 97.2068 38.917 97.5771 39.0092C97.8652 39.081 97.8923 39.2076 98.0163 39.4529C98.8169 39.5231 99.3762 38.6382 100.34 38.9636C100.896 39.1512 101.056 39.4332 101.297 39.9308C101.145 41.2514 100.273 43.3124 100.284 44.4358C100.287 44.7095 100.479 45.0789 100.58 45.3354L100.459 45.4474C100.037 45.5274 99.5053 45.5682 99.0833 45.4901C98.8892 45.4541 98.7681 45.3714 98.6719 45.2017C98.2572 44.4719 98.9475 42.6275 99.1674 41.8307C99.2503 41.3362 99.2908 40.8281 99.3497 40.3298C98.9632 40.3397 98.5546 40.3203 98.1871 40.4558C97.9679 40.5369 97.8286 40.8558 97.7381 41.0574C97.486 41.6185 96.7166 44.1194 96.8215 44.6955C96.8562 44.885 97.0385 45.1647 97.1141 45.3615L96.9589 45.4665C96.433 45.5421 95.7864 45.5644 95.2879 45.3692C94.3423 44.3631 96.5567 40.8016 95.9495 39.3981C95.8925 39.266 95.9158 39.2676 95.9514 39.1352L96.2628 39.0325Z" fill="#92989C"/>
<path d="M138.664 39.0287C139.199 39.0109 139.728 39.0045 140.263 39.0233C140.354 39.1168 140.388 39.1784 140.415 39.304C140.424 39.3449 140.431 39.3857 140.44 39.4265C141.243 39.3694 141.917 38.674 142.772 38.972C143.307 39.1586 143.465 39.4795 143.69 39.9602C143.504 41.1213 142.688 43.4598 142.665 44.3884C142.656 44.7444 142.95 45.0675 142.93 45.427C142.771 45.4774 142.62 45.5058 142.453 45.5115C141.925 45.5291 141.473 45.5961 141.072 45.2254C140.687 44.2869 141.291 42.8139 141.546 41.8834C141.617 41.4291 141.684 40.9854 141.696 40.5254C141.613 40.4052 141.623 40.3688 141.472 40.3289C141.167 40.2479 140.742 40.4154 140.481 40.5784C139.93 40.9226 139.217 43.9829 139.215 44.6158C139.214 44.9268 139.523 45.108 139.454 45.4238C139.347 45.4637 139.261 45.4949 139.147 45.5109C138.758 45.5648 138.088 45.6146 137.764 45.3482C136.947 44.6758 138.181 41.7066 138.353 40.7822C138.44 40.3108 138.427 39.698 138.371 39.2256C138.368 39.2036 138.365 39.1815 138.362 39.1595L138.664 39.0287Z" fill="#92989C"/>
<path d="M79.0555 39.0329C78.9771 40.5079 78.3464 41.9025 78.2575 43.3507C78.239 43.6544 78.2804 43.8764 78.4879 44.1071C78.7174 44.1859 78.8264 44.227 79.068 44.1361C79.4284 44.0012 79.7251 43.6353 79.8717 43.2898C80.1299 42.6815 80.8278 40.2425 80.7606 39.7175C80.7408 39.5624 80.5996 39.3194 80.5378 39.1669C80.9993 38.8859 82.0162 39.0246 82.5609 39.0425C82.5185 39.7915 82.407 40.5344 82.2272 41.2626C82.0293 42.5265 81.1905 44.0181 81.7148 45.2449C81.731 45.2835 81.7482 45.3214 81.7651 45.3597L81.6963 45.4446C81.3183 45.5285 80.1576 45.6229 79.8198 45.4411C79.654 45.3517 79.5533 45.1205 79.3529 45.1151C78.5679 45.094 77.8515 45.7996 77.0174 45.4053C76.7328 45.2707 76.4024 44.9667 76.3246 44.6516C76.062 43.5852 77.5229 40.3727 77.2488 39.617C77.195 39.468 77.0449 39.3356 76.9821 39.165L77.2119 39.0514C77.8241 39.0023 78.4417 39.0253 79.0555 39.0329Z" fill="#92989C"/>
<path d="M123.305 39.0243C123.598 39.0135 123.932 38.9742 124.221 39.0237C124.524 39.0757 124.573 39.2351 124.745 39.468C125.682 39.1018 126.259 38.9752 127.267 39.0163C127.335 39.0731 127.401 39.1308 127.467 39.1899C127.631 39.3379 127.894 39.5551 127.954 39.7726C128.141 40.461 127 43.5613 126.853 44.4267C126.801 44.7351 127.048 45.086 127.066 45.4104C126.814 45.5922 126.192 45.5623 125.885 45.524C125.651 45.495 125.388 45.4056 125.251 45.2002C124.822 44.5584 125.7 42.3963 125.87 41.6103C125.987 41.196 126.026 40.78 126.07 40.3526C125.592 40.3395 125.117 40.3723 124.64 40.401C124.594 40.491 124.551 40.5822 124.512 40.6751C124.073 41.6853 123.517 43.3772 123.517 44.4774C123.517 44.7339 123.666 45.035 123.763 45.2707C123.664 45.3587 123.571 45.4146 123.443 45.4528C123.106 45.553 122.142 45.5801 121.839 45.3945C121.686 45.3007 121.603 45.1849 121.594 44.9993C121.534 43.722 122.631 41.5287 122.76 40.1947C122.788 39.905 122.703 39.5918 122.624 39.3136L122.597 39.2214C122.805 39.0597 123.047 39.0651 123.305 39.0243Z" fill="#92989C"/>
<path d="M69.4194 37.4108L71.715 37.3987C71.6761 37.7518 71.6474 38.0871 71.5148 38.4198C71.126 38.8663 70.5836 38.8175 70.0373 38.8766C69.3037 38.9557 69.072 39.2329 68.6284 39.7818C69.2744 40.3117 70.1106 40.5528 70.7458 41.0929C71.1337 41.4227 71.3536 41.7363 71.3883 42.261C71.4396 43.0314 71.2656 44.047 70.7276 44.6368C70.0061 45.4286 68.746 45.4426 67.7529 45.5029C67.3759 45.5051 66.9306 45.5459 66.5619 45.4796C66.3885 45.4486 66.2598 45.4037 66.1741 45.2432C65.9691 44.8585 66.0494 44.085 66.1843 43.6811C66.2187 43.5784 66.1919 43.6234 66.3181 43.5609C66.4124 43.7239 66.5119 43.8751 66.6231 44.0272C67.3191 44.1654 68.0719 44.093 68.7788 44.076C69.0411 43.8652 69.3289 43.6237 69.5169 43.3414C69.6762 43.1019 69.7094 42.9213 69.6632 42.6403C69.3066 41.9242 68.1863 41.8316 67.5655 41.4001C67.2159 41.1573 66.9982 40.7586 66.944 40.3385C66.8523 39.6255 67.1652 38.8217 67.62 38.2823C68.1357 37.6701 68.6363 37.4775 69.4194 37.4108Z" fill="#92989C"/>
<path d="M44.8955 39.0227C45.865 39.0026 46.8271 39.0195 47.796 39.0542C47.6717 39.3563 47.5455 39.7589 47.3319 40.0067C46.8265 40.5933 45.517 40.4109 44.7843 40.4827C45.3675 41.0383 46.0176 41.2945 46.6767 41.7296C47.0904 42.0026 47.4454 42.3851 47.5254 42.8917C47.622 43.5019 47.3721 44.1753 46.9999 44.6528C46.5008 45.2933 45.9708 45.3813 45.2116 45.4665C44.5618 45.5016 43.1806 45.6796 42.6452 45.3013C42.4893 45.0665 42.4578 44.8617 42.4925 44.5794C42.6522 43.2882 44.4732 44.5619 45.7512 43.6221C45.8178 43.4971 45.8879 43.4464 45.8478 43.3019C45.719 42.8381 44.7438 42.4387 44.3547 42.201C43.8827 41.913 43.4712 41.5682 43.3568 40.993C43.266 40.5372 43.4358 40.1474 43.6825 39.7761C44.0203 39.2673 44.3139 39.1349 44.8955 39.0227Z" fill="#92989C"/>
<path d="M107.627 39.0224C108.378 39.0064 109.149 38.9582 109.899 38.9908C110.138 39.0013 110.362 38.9713 110.529 39.1503C110.533 39.2938 110.537 39.4399 110.522 39.5828C110.393 40.7704 108.806 40.1139 108.132 40.6565C108.313 41.1985 109.43 41.602 109.917 41.8789C110.192 42.0346 110.417 42.1925 110.486 42.5153C110.657 43.3214 110.162 44.4219 109.754 45.0879C109.216 45.3204 108.698 45.4315 108.116 45.4793C107.404 45.501 106.437 45.6439 105.778 45.3578C105.708 45.2783 105.586 45.1759 105.555 45.0761C105.459 44.7702 105.599 44.2008 105.758 43.9249C105.777 43.8936 105.784 43.8515 105.815 43.833C105.88 43.7944 107.746 44.1699 108.377 43.9475C108.626 43.8598 108.668 43.7708 108.778 43.5517C108.687 42.2837 107.311 42.6177 106.731 41.7787C106.306 41.1628 106.493 40.3838 106.597 39.6996C106.927 39.3844 107.167 39.1283 107.627 39.0224Z" fill="#92989C"/>
<path d="M50.6024 38.0417C50.8762 38.0191 51.1207 38.0067 51.3931 38.0548C51.4913 38.2449 51.1857 38.4985 51.1512 38.7247C51.1318 38.8555 51.1847 38.8689 51.2612 38.9671C51.7144 39.1343 52.1026 38.9021 52.5443 38.9732C52.732 39.0035 52.7416 39.0679 52.8365 39.2172C52.8333 39.4769 52.8257 39.6434 52.703 39.875C52.2759 40.2258 51.4661 40.2979 50.9262 40.4045C50.6783 41.223 50.0027 42.8967 50.2563 43.7277C50.3335 43.9803 50.4558 44.0151 50.6716 44.1185C51.3246 44.1172 51.744 43.7229 52.2355 43.3497L51.868 44.8231C51.8345 44.9427 51.7644 45.0454 51.7032 45.1526C51.3855 45.3497 51.099 45.4362 50.7312 45.4863C49.9851 45.5871 48.9991 45.6123 48.37 45.1373C47.7934 44.2527 49.0513 41.5075 49.0513 40.3748C49.0513 40.0115 48.7728 40.133 48.5564 39.9008C48.7387 39.2954 50.0938 38.5253 50.6024 38.0417Z" fill="#92989C"/>
<path d="M24.6666 39.0274C25.5873 39.0045 26.4938 39.0042 27.4134 39.0587C26.3214 41.4428 26.1044 39.8332 25.0837 40.5171C24.4973 40.9098 24.1721 42.3937 24.0909 43.0432C24.0434 43.4228 24.0356 43.6993 24.2754 44.0075C24.7932 44.1804 25.4441 44.0993 25.9867 44.0901C26.2146 43.9137 26.4425 43.6859 26.7351 43.6448C26.8665 43.8971 26.7616 44.13 26.7111 44.4046C26.6506 44.6707 26.5416 44.9625 26.344 45.1574C25.6884 45.8043 23.9292 45.5102 23.057 45.4627C22.7864 45.2075 22.3141 44.8206 22.2111 44.4525C21.9345 43.4639 22.661 41.1915 23.1259 40.2961C23.5048 39.5662 23.888 39.2724 24.6666 39.0274Z" fill="#92989C"/>
<path d="M74.7974 37.897L75.0731 38.0255C75.2258 38.3231 75.0941 38.6782 75.0298 38.9921L76.5037 39.0074C76.4923 39.3206 76.4939 39.6134 76.3721 39.9082C76.1446 40.1104 76.0898 40.0961 75.7797 40.1203C75.7099 40.1257 75.6398 40.1283 75.5703 40.1366C75.2538 40.1729 74.9816 40.3541 74.7923 40.6084C74.3662 41.1809 73.7999 43.4237 73.9162 44.0828C74.3646 44.4949 75.1847 43.6161 75.786 43.8502C75.8963 44.2257 75.6646 44.7278 75.5518 45.0987C74.7168 45.4736 73.5166 45.7342 72.6322 45.3801C72.223 45.2165 72.099 44.9664 71.9492 44.5836C72.0547 43.9679 72.9439 40.5229 72.8304 40.3152C72.7036 40.0836 72.5261 40.0948 72.426 39.7777C72.4553 39.7123 72.5076 39.5401 72.5528 39.4954C72.7233 39.3264 74.5227 38.052 74.7974 37.897Z" fill="#92989C"/>
<path d="M104.348 37.8934C104.476 37.9308 104.582 37.9818 104.701 38.0389C104.847 38.3247 104.722 38.6915 104.667 38.9959C104.985 38.9888 105.605 38.9059 105.887 39.0338C106.052 39.1085 106.061 39.1818 106.128 39.3384C106.115 39.5209 106.107 39.7139 106 39.8696C105.718 40.2833 104.666 40.3136 104.201 40.4016C104.025 41.4396 103.572 42.5752 103.508 43.6052C103.493 43.841 103.475 43.877 103.628 44.0528C104.299 44.1778 104.663 44.0477 105.273 43.7673L105.403 43.8285C105.413 44.2617 105.235 44.7131 105.112 45.1255C104.546 45.3976 103.998 45.4975 103.372 45.522C102.848 45.5427 102.12 45.4707 101.736 45.0671C101.59 44.914 101.486 44.7555 101.488 44.5408C101.501 43.3615 102.503 41.594 102.442 40.3193C102.248 40.1531 102.12 40.0574 102.06 39.8035C102.085 39.7337 102.133 39.5263 102.176 39.4794C102.445 39.192 103.028 38.9445 103.364 38.7014C103.705 38.4552 104.015 38.154 104.348 37.8934Z" fill="#92989C"/>
<path d="M59.9263 39.0191C60.3451 39.008 60.7588 39.0032 61.1769 39.0281C61.3407 39.038 61.3828 39.148 61.4876 39.2667C61.5858 39.3008 61.6358 39.3053 61.7362 39.2737C62.3586 39.0785 62.7723 38.9694 63.4435 38.9981C63.4056 39.3311 63.4037 39.9206 63.1538 40.1662C62.9476 40.3688 62.7414 40.3324 62.4734 40.3311C62.1145 40.3295 61.8481 40.3263 61.5431 40.5394C60.7607 41.0862 60.5131 43.3982 60.3107 44.3421C60.0191 44.8068 60.4681 44.9887 60.4273 45.4174C60.3311 45.4521 60.254 45.4802 60.1513 45.4911C59.6895 45.5402 58.8925 45.5606 58.5295 45.2442C58.1547 44.189 59.6108 40.9398 59.5834 39.6861C59.5793 39.4893 59.4145 39.3882 59.2854 39.2561C59.4524 39.0832 59.7001 39.0647 59.9263 39.0191Z" fill="#92989C"/>
<path d="M129.652 39.0134C130.14 39.0552 130.627 39.1063 131.114 39.1659C130.89 40.3028 130.638 41.4342 130.359 42.559C130.224 43.1134 130.003 43.714 129.93 44.2767C129.876 44.6914 130.256 45.072 130.16 45.4343L129.893 45.5064L129.654 45.5086C129.181 45.5106 128.62 45.5852 128.268 45.2027C128.195 45.1233 128.1 45.0059 128.087 44.8965C127.978 43.9692 129.174 40.9296 129.236 39.6185C129.143 39.4654 129.036 39.3362 129.059 39.1487L129.652 39.0134Z" fill="#92989C"/>
<path d="M129.954 37.3999C130.267 37.3865 130.675 37.34 130.982 37.4012C131.217 37.4484 131.384 37.5345 131.518 37.7333C131.538 38.1393 131.358 38.4073 131.111 38.7231L130.537 38.7186C130.211 38.7167 129.915 38.6679 129.644 38.4711C129.461 38.3384 129.462 38.2181 129.451 38.0086C129.591 37.7428 129.716 37.5834 129.954 37.3999Z" fill="#92989C"/>
<path d="M33.8181 41.4215C33.9105 41.1035 34.046 40.4553 34.336 40.2843C34.4307 40.5969 34.336 40.9054 34.2754 41.2183L33.8181 41.4215Z" fill="#92989C" fill-opacity="0.0392157"/>
<path d="M160.643 0H162.358C162.176 3.21217 160.832 5.91514 158.85 8.41083C161.327 7.08583 163.984 6.36125 166.777 7.06768C166.64 9.49925 165.765 11.2681 164.234 13.1064C163.82 13.6022 163.284 14.1233 162.983 14.693C163.194 14.6953 163.375 14.5787 163.518 14.429C163.868 14.0611 164.142 13.6369 164.509 13.2734C168.318 9.49909 172.63 6.05559 177.076 3.06467C178.201 2.30731 179.368 1.47739 180.6 0.909092C182.064 0.233229 184.778 0.489965 185.679 0H187.044C187.689 0.246061 188.424 0.244473 189.102 0.356564C190.007 0.506013 190.852 0.746427 191.715 1.06071C190.268 4.39156 187.563 7.24927 184.363 8.98115C187.769 8.51454 190.931 8.44784 193.962 10.2942C192.466 14.035 189.246 15.9235 185.752 17.5589C188.683 17.1995 191.997 17.169 194.444 19.0944C194.719 19.3104 194.993 19.5339 195.243 19.7779C194.083 22.8312 191.36 24.4476 188.525 25.7226C188.005 25.956 187.487 26.1922 186.949 26.3792C189.846 26.6592 193.219 27.3738 195.17 29.7354C195.371 29.9817 195.566 30.2322 195.756 30.4867C193.99 33.6528 190.822 34.6548 187.658 35.8787C190.159 36.4587 193.368 38.1388 194.741 40.3927C194.894 40.6435 195.091 41.0597 195.032 41.3561C194.883 42.0999 193.031 43.2738 192.433 43.5931C190.76 44.4872 188.668 44.9383 186.779 44.7498C189.848 46.3824 192 48.0347 193.495 51.2412C191.466 53.1765 188.75 54.2237 185.948 54.1516C185.899 54.151 185.85 54.1494 185.802 54.1468C188.18 55.9328 190.116 58.4758 190.645 61.4548C188.38 63.0514 185.482 64.1321 182.67 63.9391C184.573 66.5092 186.006 69.0866 186.056 72.3584C184.228 74.0188 181.716 74.6204 179.299 74.5046C178.799 74.4807 178.318 74.4009 177.823 74.333C179.445 76.4077 180.37 80.1771 180.083 82.7938C180.033 83.2455 179.897 83.7 179.525 83.99C178.055 85.1329 173.924 85.4727 172.082 85.2098C171.831 85.1741 171.579 85.1288 171.336 85.0557C172.892 86.8408 171.776 89.4042 172.483 91.4616C172.831 92.476 173.707 93.4078 174.278 94.3236C175.887 96.9058 178.256 101.022 178.904 103.923C179.106 104.824 179.136 105.741 179.073 106.659C178.961 108.274 178.654 109.936 178.057 111.444C175.947 111.784 173.506 111.821 171.532 110.858C171.307 113.136 171.148 116.024 169.943 118.03C167.291 118.082 165.191 117.102 162.982 115.753C162.471 118.261 161.017 120.364 159.397 122.283C156.774 121.145 154.94 119.781 153.247 117.457C152.266 119.586 150.971 121.075 148.804 122.046C146.536 120.923 144.502 118.674 143.68 116.265C143.657 116.197 143.637 116.128 143.616 116.059C144.108 114.024 144.39 111.954 144.855 109.923L144.794 109.884C144.178 110.168 143.182 111.307 142.587 111.782C136.336 116.768 129.314 120.803 122.173 124.36C121.498 124.696 119.817 125.831 119.066 125.68C118.174 125.501 116.702 124.294 115.922 123.753C110.528 120.009 104.89 115.631 101.364 109.999C99.9884 107.801 98.8972 105.083 98.9415 102.451C98.9711 100.663 99.5607 98.8468 99.9884 97.1192C100.566 94.7864 101.165 92.4575 101.716 90.1187C104.805 77.0077 108.199 63.963 111.196 50.831C112.435 50.7311 113.743 50.8345 114.99 50.8383L122.765 50.8472C129.781 50.8475 136.834 50.6916 143.845 50.8868C144.945 49.0561 146.94 44.8168 147.164 42.8298C147.41 40.653 146.127 35.9409 145.618 33.6991C144.889 30.586 144.177 27.4689 143.482 24.348C143.156 22.8282 142.642 21.043 142.715 19.4913C142.748 18.8114 142.998 18.1763 143.288 17.5681C144.959 14.0653 150.892 4.25845 153.944 2.39371C155.32 1.55258 156.929 0.899477 158.494 0.511241C159.178 0.341393 159.911 0.270536 160.572 0.0273221C160.595 0.0185856 160.619 0.00910738 160.643 0Z" fill="#92989C"/>
<path d="M111.196 50.8309C112.435 50.7311 113.743 50.8345 114.99 50.8383L122.765 50.8472C129.781 50.8475 136.834 50.6916 143.845 50.8868C143.544 51.5021 143.254 52.2699 142.858 52.8208C141.011 56.3076 139.087 59.753 137.086 63.1534C133.67 63.1522 130.255 63.2558 126.84 63.244L124.729 63.2405C122.12 63.2223 120.577 63.155 118.582 65.128C118.417 65.2913 118.254 65.4556 118.091 65.6208C116.222 65.994 114.23 66.4186 113.081 68.107C112.066 69.5983 112.111 71.4631 112.049 73.1913C113.629 71.8025 114.987 71.0315 117.155 71.1667C118.914 71.2764 120.942 71.8474 122.429 72.8069C123.075 73.1751 123.799 73.5661 124.346 74.0768C124.261 74.1795 124.202 74.2571 124.165 74.3878C123.751 75.8293 120.284 89.9394 120.33 90.2607C120.336 90.3047 120.37 90.3774 120.384 90.4131C119.623 90.3028 118.875 90.2418 118.107 90.3206C116.928 90.5956 115.986 91.3267 115.355 92.3561C115.05 92.8543 114.752 93.4537 114.729 94.0474C114.851 94.1539 114.968 94.2282 115.107 94.3089C115.231 94.8994 114.856 95.559 114.9 96.1782C115.078 96.2819 115.22 96.2806 115.418 96.2867C115.801 96.7115 115.433 97.7349 115.992 98.1534C116.857 97.7058 117.59 97.39 118.573 97.2946C119.555 96.5689 120.219 95.9472 121.518 96.1345C122.238 96.2385 122.86 96.5568 123.3 97.1498C123.534 97.4666 123.668 97.8321 123.608 98.2306C123.376 99.7805 120.911 100.424 120.034 102.845C119.9 103.213 119.743 103.732 119.804 104.124C119.99 104.216 120.319 104.242 120.371 104.446C120.523 105.037 120.1 105.804 120.556 106.316C120.704 106.328 120.954 106.303 121.053 106.415C121.254 106.642 121.336 107.316 121.439 107.624C121.553 107.964 121.746 108.278 121.917 108.591C122.981 107.61 123.429 107.613 124.539 106.918C125.911 106.059 125.689 105.088 127.884 105.173C128.557 105.199 129.176 105.419 129.631 105.932C130.031 106.384 130.224 106.948 130.182 107.551C130.111 108.543 129.522 110.465 128.756 111.109C128.554 111.276 128.347 111.439 128.137 111.597C128.618 111.823 129.061 112.007 129.583 112.119C130.452 112.342 131.199 112.019 132.003 111.732C132.045 112.768 130.924 116.562 130.604 117.807C134.154 115.742 137.563 113.442 140.807 110.923C142.079 109.917 143.915 107.942 145.086 107.194C145.118 108.128 144.883 109.002 144.855 109.923L144.794 109.884C144.178 110.168 143.182 111.307 142.587 111.782C136.336 116.768 129.314 120.803 122.173 124.36C121.498 124.696 119.817 125.831 119.066 125.68C118.174 125.501 116.702 124.294 115.922 123.753C110.528 120.009 104.89 115.631 101.364 109.999C99.9884 107.801 98.8972 105.083 98.9415 102.451C98.9711 100.663 99.5607 98.8468 99.9884 97.1192C100.566 94.7864 101.165 92.4575 101.716 90.1187C104.805 77.0077 108.199 63.963 111.196 50.8309Z" fill="#F9B939"/>
<path d="M111.196 50.8309C112.435 50.7311 113.743 50.8345 114.99 50.8383L122.765 50.8472C129.781 50.8475 136.834 50.6916 143.845 50.8868C143.544 51.5021 143.254 52.2699 142.858 52.8208C141.011 56.3076 139.087 59.753 137.086 63.1534C133.67 63.1522 130.255 63.2558 126.84 63.244L124.729 63.2405C124.927 61.911 125.308 60.5916 125.624 59.2854L127.204 52.7822L117.917 52.795C116.129 52.795 114.317 52.8546 112.532 52.7621C111.46 56.8037 110.523 60.887 109.538 64.9509L104.514 85.6551L102.15 95.3814C101.674 97.3393 100.964 99.4698 100.887 101.487C100.793 103.91 101.767 106.359 102.963 108.421C105.215 112.304 108.301 114.861 111.498 117.861C111.92 115.43 116.334 98.8031 116.075 98.2366L115.992 98.1534C116.857 97.7058 117.59 97.39 118.573 97.2946C119.555 96.5689 120.219 95.9472 121.518 96.1345C122.238 96.2385 122.86 96.5568 123.3 97.1498C123.534 97.4666 123.668 97.8321 123.608 98.2306C123.376 99.7805 120.911 100.424 120.034 102.845C119.9 103.213 119.743 103.732 119.804 104.124C119.99 104.216 120.319 104.242 120.371 104.446C120.523 105.037 120.1 105.804 120.556 106.316C120.704 106.328 120.954 106.303 121.053 106.415C121.254 106.642 121.336 107.316 121.439 107.624C121.553 107.964 121.746 108.278 121.917 108.591C122.981 107.61 123.429 107.613 124.539 106.918C125.911 106.059 125.689 105.088 127.884 105.173C128.557 105.199 129.176 105.419 129.631 105.932C130.031 106.384 130.224 106.948 130.182 107.551C130.111 108.543 129.522 110.465 128.756 111.109C128.554 111.276 128.347 111.439 128.137 111.597C128.618 111.823 129.061 112.007 129.583 112.119C130.452 112.342 131.199 112.019 132.003 111.732C132.045 112.768 130.924 116.562 130.604 117.807C134.154 115.742 137.563 113.442 140.807 110.923C142.079 109.917 143.915 107.942 145.086 107.194C145.118 108.128 144.883 109.002 144.855 109.923L144.794 109.884C144.178 110.168 143.182 111.307 142.587 111.782C136.336 116.768 129.314 120.803 122.173 124.36C121.498 124.696 119.817 125.831 119.066 125.68C118.174 125.501 116.702 124.294 115.922 123.753C110.528 120.009 104.89 115.631 101.364 109.999C99.9884 107.801 98.8972 105.083 98.9415 102.451C98.9711 100.663 99.5607 98.8468 99.9884 97.1192C100.566 94.7864 101.165 92.4575 101.716 90.1187C104.805 77.0077 108.199 63.963 111.196 50.8309Z" fill="#FEDEA6"/>
<path d="M118.573 97.2947C119.555 96.569 120.219 95.9473 121.518 96.1345C122.238 96.2385 122.86 96.5569 123.3 97.1499C123.534 97.4666 123.668 97.8322 123.608 98.2306C123.375 99.7806 120.911 100.424 120.034 102.845C119.9 103.213 119.743 103.732 119.803 104.124C119.99 104.216 120.318 104.242 120.371 104.446C120.523 105.037 120.1 105.804 120.556 106.316C120.704 106.328 120.954 106.303 121.053 106.415C121.254 106.642 121.336 107.316 121.439 107.624C121.553 107.964 121.746 108.278 121.917 108.591C122.981 107.61 123.429 107.613 124.539 106.918C125.911 106.059 125.689 105.088 127.884 105.173C128.557 105.199 129.176 105.419 129.631 105.932C130.031 106.384 130.224 106.949 130.182 107.551C130.111 108.543 129.522 110.465 128.756 111.109C128.554 111.277 128.347 111.439 128.137 111.597C128.618 111.823 129.061 112.007 129.583 112.119L129.669 112.194C129.866 112.603 128.318 118.368 128.056 119.213C126.932 120 125.615 120.611 124.399 121.244C122.816 122.068 121.227 122.938 119.585 123.638C117.382 122.341 115.284 120.781 113.252 119.233C113.691 117.906 113.974 116.497 114.303 115.139L115.929 108.394L117.638 101.353C117.964 100.01 118.344 98.6564 118.573 97.2947Z" fill="#F9B939"/>
<path d="M129.39 52.7615C130.669 52.8473 131.973 52.7956 133.256 52.7956C136.448 52.7953 139.669 52.7053 142.858 52.8208C141.011 56.3077 139.087 59.753 137.086 63.1534C133.67 63.1522 130.255 63.2558 126.84 63.244C127.836 59.8136 128.547 56.2359 129.39 52.7615Z" fill="#F9B939"/>
<path d="M122.429 72.8069C123.075 73.175 123.799 73.5661 124.346 74.0768C124.261 74.1795 124.202 74.257 124.165 74.3878C123.751 75.8293 120.284 89.9394 120.33 90.2606C120.336 90.3046 120.37 90.3773 120.384 90.4131C119.623 90.3027 118.875 90.2418 118.107 90.3206C118.287 90.0957 121.145 77.8249 121.462 76.5075C121.745 75.3355 121.927 73.8946 122.429 72.8069Z" fill="#FEDEA6"/>
<path d="M144.925 98.4076C145.385 101.17 145.563 104.425 145.086 107.194C143.915 107.942 142.079 109.917 140.807 110.923C137.563 113.442 134.154 115.742 130.604 117.807C130.924 116.562 132.045 112.768 132.003 111.732C133.61 110.828 134.202 109.006 134.129 107.222C134.098 106.467 133.86 105.444 134.145 104.729C134.394 104.108 135.078 103.552 135.584 103.136C138.377 100.833 141.604 99.6989 144.925 98.4076Z" fill="#F9B939"/>
<path d="M120.384 90.4131C120.369 90.3773 120.336 90.3046 120.33 90.2606C120.284 89.9394 123.751 75.8293 124.165 74.3878C124.202 74.257 124.261 74.1795 124.346 74.0768C125.634 75.1247 126.95 76.413 127.584 77.9799C127.881 78.7129 127.959 79.5637 128.12 80.3356C128.425 81.8036 129.165 83.247 130.078 84.4318C129.089 86.3205 126.129 90.8412 124.663 92.0702C124.472 92.2303 124.229 92.3292 124 92.423C122.878 91.4718 121.857 90.7295 120.384 90.4131Z" fill="#F9B939"/>
<path d="M180.51 3C181.221 4.91801 181.634 6.955 182.155 8.93007C177.491 11.5317 173.227 14.6691 168.734 17.5259L168.996 17.6765C173.224 15.1073 178.066 12.7046 182.625 10.7657C183.024 12.8198 183.478 14.8701 183.792 16.9389C178.708 18.9125 173.67 21.0018 168.681 23.2054L168.717 23.4655C170.181 22.865 171.81 22.4682 173.326 22.0142C176.89 20.9429 180.473 19.9365 184.072 18.9954C184.426 19.8524 184.86 24.3169 184.846 25.3413C178.842 26.4107 172.902 27.8158 167.055 29.55C168.896 29.446 170.763 29.0917 172.593 28.8474C176.712 28.2976 180.889 27.6971 185.033 27.4027C185.128 29.7054 185.163 32.0101 185.141 34.3144C179.184 34.2915 173.23 34.5751 167.303 35.1642C168.666 35.5199 170.673 35.3776 172.118 35.4386C174.854 35.5684 177.589 35.7215 180.323 35.8979C181.902 35.9952 183.546 36.0185 185.109 36.2517C184.995 38.4683 184.798 40.6747 184.624 42.8869C183.06 42.5376 181.386 42.3915 179.796 42.1979C176.721 41.8161 173.638 41.5041 170.55 41.2617C170.429 41.3867 170.336 41.4869 170.263 41.6483C174.989 42.507 179.685 43.5236 184.343 44.6959C184.083 46.3805 183.671 50.1174 183.011 51.5627C181.223 50.8303 179.254 50.3512 177.393 49.837C172.908 48.6038 168.373 47.5633 163.799 46.7186C166.006 47.5572 168.301 48.2121 170.544 48.9521C174.616 50.2957 178.703 51.698 182.686 53.2891C183.688 53.6814 184.73 54.0403 185.686 54.5341C187.759 56.1855 189.325 58.0053 190.155 60.5684C188.017 61.8172 185.886 62.3911 183.407 62.4679C182.373 62.0274 181.343 61.3569 180.345 60.8252C174.526 57.8337 168.518 55.2276 162.359 53.0243C161.929 52.8664 160.321 52.1822 159.99 52.2658C161.856 53.4122 163.982 54.2811 165.942 55.2729C170.51 57.5839 175.321 60.0012 179.658 62.7078C180.612 63.253 181.894 63.8173 182.697 64.5525C184.339 66.6282 185.348 68.7941 185.729 71.4273C183.739 72.6746 181.559 73.2615 179.214 72.9097C178.244 72.4373 177.023 71.3543 176.115 70.7007C174.753 69.6541 173.249 68.7198 171.803 67.7909C168.669 65.779 165.46 63.8865 162.183 62.1174C160.261 61.0848 158.297 60.1387 156.368 59.1199L156.189 59.3648C162.634 63.282 169.286 67.951 175.113 72.7569C176.123 73.5043 177.228 74.3164 178.094 75.2274C179.304 77.6109 179.909 80.0164 179.666 82.6975C177.453 83.5718 175.463 83.7527 173.101 83.7709C172.092 82.9051 171.157 81.7574 170.264 80.7628C168.566 79.2173 166.908 77.6505 165.141 76.1815C160.61 72.4816 155.81 69.1243 150.782 66.1376L150.689 66.4151C156.687 70.8873 164.067 77.217 168.972 82.8656C169.745 83.694 171.22 84.9913 171.616 86.066C171.977 88.105 171.623 91.5344 171.235 93.5657C169.948 94.0605 167.378 94.7074 166.116 94.0978C166.019 94.0515 165.938 93.9782 165.864 93.9022L163.31 90.4712C158.413 84.0404 153.048 77.8671 146.553 73C145.763 72.4076 144.583 71.3186 143.588 71.1747C142.798 71.0608 142.035 71.3591 141.31 71.634C141.766 71.7058 142.234 71.7718 142.666 71.94C144.005 72.4609 145.206 73.4223 146.338 74.2858C152.734 79.1682 158.291 85.5397 163.018 92.0202C166.467 96.7476 168.723 102.367 170.438 107.923C170.712 108.891 170.934 109.86 171.136 110.846C170.8 112.846 170.715 114.692 169.939 116.598C168.145 116.23 165.937 115.669 164.541 114.397C164.314 113.492 164.169 112.543 164.008 111.622C162.721 106.36 160.93 100.087 158.037 95.5C158.533 97.1789 159.175 98.8118 159.668 100.492C160.758 104.29 161.632 108.148 162.286 112.046C162.478 113.054 162.569 114.08 162.67 115.1C162.122 117.083 161.203 119.006 159.789 120.522C158.017 119.566 156.085 118.289 155.113 116.46C155.336 114.595 155.164 112.645 155.176 110.766C154.877 106.118 154.048 100.78 151.925 96.6025C153.509 102.182 154.261 108.053 153.453 113.839C153.343 114.756 153.206 115.695 152.941 116.582C152.242 118.255 151.223 119.508 149.625 120.384C147.762 119.258 146.666 117.66 145.613 115.814C145.694 114.942 145.976 114.016 146.161 113.155C147.285 107.935 147.801 102.018 146.573 96.7878C147.968 96.1473 149.176 95.2969 150.502 94.5415C150.933 94.9463 151.301 95.4528 151.678 95.9096C151.433 95.3412 151.077 94.2107 150.455 93.9979C149.701 93.7399 146.525 96.064 145.657 96.4876C143.367 97.6054 140.914 98.3199 138.651 99.5171C137.642 100.05 136.807 100.926 135.775 101.401C135.608 101.23 135.701 100.985 135.642 100.76C135.618 100.667 135.611 100.637 135.522 100.593C135.138 100.403 134.156 100.806 133.752 100.926C133.781 100.307 133.947 99.7008 133.891 99.0775L133.777 98.9847L133.347 99.0453C133.191 98.7626 133.578 98.103 133.709 97.8146C135.304 94.2946 136.19 90.751 137.548 87.1764C137.796 86.5231 139.076 83.7537 138.944 83.2726C138.653 82.2059 137.151 81.4002 136.248 80.8719C136.817 81.5211 137.676 82.1456 137.98 82.9721C138.127 83.3718 137.988 83.6752 137.827 84.0366C137.621 84.4829 137.424 84.9339 137.238 85.3888C136.975 86.155 136.632 86.9678 136.476 87.7627C136.338 87.5234 133.147 85.1314 132.385 84.2264C132.343 83.8599 131.101 82.3176 130.836 81.8707C129.787 80.1035 130.189 78.9851 129.603 77.3544C129.336 76.6118 128.822 75.9021 128.343 75.2788C125.829 72.0105 122.154 70.1134 118.11 69.5779C117.673 69.5364 117.213 69.5635 116.774 69.5651C115.616 69.5606 114.836 70.0598 114 70.812C114.131 70.2133 114.25 69.5983 114.497 69.0346C115.055 67.7599 116.037 67.2078 117.282 66.7232C117.947 66.5663 118.622 66.4837 119.299 66.3925C119.75 66.3169 120.168 65.653 120.496 65.3219C120.949 64.8655 121.422 64.4077 122.057 64.2281C123.78 63.7417 126.563 63.9908 128.399 63.9921L138.069 63.9911C137.45 64.6253 136.839 65.2865 136.427 66.0792C136.117 66.6744 135.661 67.945 135.863 68.5954C136.31 68.2876 136.639 67.1622 136.973 66.6757C137.231 66.2993 137.645 65.9526 137.983 65.6435C139.394 64.3548 140.956 63.209 142.41 61.9655C147.039 58.0276 151.525 53.9232 155.858 49.6609C157.871 47.6468 160.096 45.5004 161.61 43.0789C161.916 42.588 162.131 42.0572 162.295 41.5028C162.897 39.4597 163.093 37.1789 163.342 35.0653C163.788 30.9986 164.209 26.929 164.604 22.8567C164.844 20.576 165.013 18.1715 165.524 15.9333C165.626 15.4862 165.748 15.0686 166.011 14.6887C166.592 13.8515 167.523 13.125 168.273 12.4385C172.06 8.93017 176.156 5.77117 180.51 3Z" fill="#FCFCFF"/>
<path d="M174.325 73.132C175.334 73.8793 176.439 74.6915 177.305 75.6025C178.515 77.986 179.12 80.3915 178.877 83.0726C176.664 83.9469 174.674 84.1278 172.312 84.1459C171.303 83.2802 170.369 82.1325 169.476 81.1379C170.44 80.3053 173.353 74.7406 174.325 73.132Z" fill="#F9B939"/>
<path d="M177.305 75.6025C178.515 77.986 179.12 80.3915 178.877 83.0726C176.664 83.9469 174.674 84.1278 172.312 84.146C173.36 82.551 174.352 80.8898 175.278 79.2205C175.946 78.0154 176.563 76.7633 177.305 75.6025Z" fill="#92989C"/>
<path d="M168.183 83.2407C168.956 84.0691 170.431 85.3665 170.827 86.4411C171.188 88.4801 170.834 91.9095 170.446 93.9408C169.159 94.4356 166.589 95.0825 165.327 94.4729C165.231 94.4267 165.149 94.3533 165.075 94.2774L162.522 90.8463C164.522 88.3866 166.306 85.792 168.183 83.2407Z" fill="#F9B939"/>
<path d="M170.827 86.4412C171.188 88.4801 170.834 91.9096 170.446 93.9409C169.159 94.4356 166.589 95.0825 165.327 94.4729C165.231 94.4267 165.149 94.3533 165.075 94.2774C165.805 93.1728 166.683 92.1376 167.478 91.0789C168.61 89.5446 169.727 87.9985 170.827 86.4412Z" fill="#92989C"/>
<path d="M178.869 63.0829C179.823 63.628 181.105 64.1923 181.908 64.9276C183.551 67.0032 184.559 69.1692 184.94 71.8024C182.95 73.0496 180.771 73.6366 178.426 73.2847C177.456 72.8123 176.234 71.7294 175.326 71.0758C176.728 68.5682 177.803 65.7477 178.869 63.0829Z" fill="#F9B939"/>
<path d="M181.908 64.9276C183.551 67.0033 184.559 69.1692 184.94 71.8024C182.95 73.0497 180.771 73.6366 178.426 73.2848C178.81 72.2276 179.357 71.1861 179.809 70.152C180.556 68.4298 181.256 66.6878 181.908 64.9276Z" fill="#92989C"/>
<path d="M181.897 53.6642C182.899 54.0565 183.941 54.4154 184.898 54.9092C186.971 56.5606 188.536 58.3804 189.366 60.9435C187.228 62.1923 185.097 62.7662 182.619 62.843C181.585 62.4025 180.554 61.732 179.556 61.2003C180.584 58.9007 181.18 56.0942 181.897 53.6642Z" fill="#92989C"/>
<path d="M181.897 53.6642C182.899 54.0565 183.941 54.4154 184.898 54.9092C184.204 57.5664 183.533 60.2513 182.619 62.843C181.585 62.4025 180.554 61.732 179.556 61.2003C180.584 58.9007 181.18 56.0942 181.897 53.6642Z" fill="#F9B939"/>
<path d="M154.387 111.141C154.494 112.098 154.449 113.088 154.449 114.051C155.803 113.968 160.477 113.327 161.444 112.574L161.498 112.421C161.689 113.429 161.781 114.455 161.882 115.475C161.333 117.458 160.414 119.381 159.001 120.897C157.228 119.941 155.297 118.664 154.324 116.836C154.547 114.97 154.376 113.02 154.387 111.141Z" fill="#F9B939"/>
<path d="M154.324 116.835C156.908 116.734 159.398 116.165 161.882 115.475C161.333 117.458 160.414 119.381 159.001 120.897C157.228 119.941 155.297 118.664 154.324 116.835Z" fill="#92989C"/>
<path d="M169.649 108.298C169.923 109.267 170.145 110.235 170.348 111.221C170.011 113.221 169.926 115.067 169.151 116.973C167.356 116.606 165.149 116.044 163.752 114.772C163.525 113.867 163.381 112.918 163.219 111.997C164.826 111.245 168.565 109.551 169.649 108.298Z" fill="#F9B939"/>
<path d="M170.348 111.221C170.011 113.221 169.926 115.067 169.151 116.973C167.356 116.606 165.149 116.044 163.752 114.772C166.073 113.966 168.29 112.551 170.348 111.221Z" fill="#92989C"/>
<path d="M145.372 113.531C147.775 114.01 150.217 114.192 152.665 114.214C152.555 115.132 152.418 116.07 152.152 116.957C151.453 118.63 150.434 119.883 148.836 120.759C146.973 119.633 145.877 118.035 144.824 116.19C144.905 115.317 145.187 114.391 145.372 113.531Z" fill="#F9B939"/>
<path d="M144.824 116.19C147.279 116.65 149.659 116.87 152.152 116.957C151.453 118.63 150.434 119.883 148.836 120.759C146.973 119.633 145.877 118.035 144.824 116.19Z" fill="#92989C"/>
<path d="M117.321 69.9529C120.494 69.6154 124.546 71.4911 126.963 73.4458C128.348 74.5658 129.596 75.9241 130.639 77.3662C130.458 79.2989 130.884 80.8907 132.122 82.3985C133.318 83.855 134.846 84.8142 136.449 85.7639C136.187 86.5301 135.843 87.3428 135.687 88.1378C135.549 87.8985 132.359 85.5064 131.596 84.6015C131.554 84.235 130.313 82.6927 130.047 82.2458C128.999 80.4786 129.4 79.3602 128.814 77.7295C128.547 76.9869 128.033 76.2772 127.554 75.6539C125.041 72.3855 121.365 70.4885 117.321 69.9529Z" fill="#92989C"/>
<path d="M115.985 69.9402C116.63 69.8445 117.284 69.7022 117.936 69.6808C121.301 69.5698 124.97 70.9191 127.651 72.9115C129.172 74.0423 130.694 75.5492 131.802 77.0861C131.792 79.0935 131.983 80.6122 133.473 82.1022C134.464 83.0939 135.754 83.862 137.038 84.4116C136.832 84.8579 136.636 85.309 136.449 85.7638C134.846 84.8142 133.318 83.855 132.122 82.3985C130.884 80.8907 130.458 79.2989 130.639 77.3662C129.596 75.924 128.348 74.5658 126.963 73.4458C124.546 71.4911 120.494 69.6154 117.321 69.9529C116.884 69.9114 116.425 69.9386 115.985 69.9402Z" fill="#F9B939"/>
<path d="M165.907 41.3035C167.19 41.4327 168.478 41.498 169.761 41.6368C169.64 41.7619 169.548 41.862 169.475 42.0234C168.29 41.8614 167.029 41.7335 165.907 41.3035Z" fill="#92989C"/>
<path d="M116.493 67.0984C117.159 66.9414 117.834 66.8588 118.511 66.7676L118.367 67.2563C117.928 67.314 117.461 67.3446 117.052 67.5223C116.828 67.4199 116.671 67.2633 116.493 67.0984Z" fill="#FCFCFF"/>
<path d="M117.052 67.5223C117.461 67.3446 117.928 67.314 118.367 67.2562C118.54 67.4872 118.618 67.5475 118.64 67.8416L118.529 67.9299C118.367 67.8907 118.208 67.8575 118.054 67.794C117.675 67.6374 117.297 67.7267 116.903 67.7829C116.932 67.6326 116.939 67.6263 117.052 67.5223Z" fill="#92989C"/>
<path d="M153.8 58.6959C154.418 58.931 154.997 59.1805 155.579 59.495L155.4 59.74C154.842 59.421 154.323 59.0679 153.8 58.6959Z" fill="#FCFCFF"/>
<path d="M148.477 65.6696C148.992 65.9158 149.543 66.1586 149.993 66.5126L149.9 66.7902C149.405 66.439 148.941 66.0606 148.477 65.6696Z" fill="#FCFCFF"/>
<path d="M167.945 17.901L168.207 18.0516C167.95 18.2241 167.513 18.5785 167.208 18.5396C167.329 18.2454 167.689 18.073 167.945 17.901Z" fill="#FCFCFF"/>
<path d="M167.892 23.5804L167.928 23.8405C167.445 24.041 166.927 24.1622 166.422 24.3001C166.892 24.0369 167.371 23.7228 167.892 23.5804Z" fill="#FCFCFF"/>
<path d="M121.452 65.4575C122.712 65.1943 123.997 65.2335 125.27 65.3541L125.42 65.4597L125.392 65.7005C124.949 65.9883 123.615 65.4855 123.45 65.6884C123.102 66.1162 123.358 66.9267 122.42 67.1069C122.033 66.9975 121.845 66.7835 121.647 66.4269C121.548 66.2495 121.524 66.0262 121.5 65.8284L121.452 65.4575Z" fill="#92989C"/>
<path d="M121.452 65.4575L121.5 65.8285C120.838 66.0387 120.192 66.7443 119.569 67.0962C120.104 66.365 120.616 65.8288 121.452 65.4575Z" fill="#92989C"/>
<path d="M154.427 3.98544C156.516 2.81851 158.597 1.96325 160.988 1.68164C160.364 4.02563 159.181 6.54611 157.463 8.30108C156.998 8.81979 156.514 9.39297 155.978 9.8385C154.047 12.1887 152.097 14.5034 150.236 16.9131C149.508 17.8565 148.702 18.8154 148.059 19.8185L148.364 19.9416C151.034 16.9204 153.862 14.042 156.834 11.3185C157.644 11.9338 158.892 14.9082 159.604 15.913L149.373 24.9032L149.593 25.111C153.115 22.4862 156.746 19.8964 160.47 17.5701C160.979 17.1397 161.645 16.7865 162.21 16.4268C162.69 16.1598 163.168 15.9249 163.675 15.7135C163.506 16.5207 163.365 17.3333 163.252 18.15C163.056 19.5217 163.008 20.9868 162.707 22.3325L162.74 22.5258C161.705 23.2409 160.525 23.7988 159.44 24.4397C156.97 25.9062 154.541 27.4411 152.156 29.0426C151.221 29.6721 150.218 30.2779 149.348 30.993C151.744 29.9609 154.065 28.6843 156.414 27.5451C158.415 26.5753 160.539 25.7043 162.483 24.6423C162.297 26.7994 162.089 28.9547 161.862 31.1079C158.151 32.4248 154.309 33.8956 150.767 35.6153C151.981 35.3897 153.189 34.97 154.375 34.6264C156.802 33.924 159.231 33.1792 161.687 32.5855L161.039 38.2511C158.554 38.8007 156.08 39.4004 153.619 40.0492L153.724 40.2843C156.091 39.8489 158.506 39.4855 160.902 39.2654C160.321 41.8135 159.952 43.1765 158.058 45.1051C156.602 45.3045 155.095 45.3616 153.656 45.6276C154.637 46.219 156.227 45.4688 157.336 45.8541C156.999 46.7527 152.809 50.7062 151.898 51.4657L151.574 51.786C148.007 55.174 144.351 58.465 140.607 61.6558L139.854 61.6028C141.966 58.1696 148.778 46.0503 148.818 42.4212C148.836 40.8052 148.436 39.1528 148.115 37.5761C147.548 34.8908 146.946 32.2129 146.308 29.5434C145.623 26.5855 144.738 23.5137 144.391 20.4977C144.337 20.0242 144.304 19.5251 144.439 19.0617C144.735 18.0424 145.375 17.0464 145.893 16.1232C147.963 12.3793 150.346 8.81723 153.016 5.47495C153.423 4.93685 153.885 4.39109 154.427 3.98544Z" fill="#FCFCFF"/>
<path d="M154.427 3.98544C156.516 2.81851 158.597 1.96325 160.988 1.68164C160.364 4.02563 159.181 6.54611 157.463 8.30108C156.405 6.89951 155.492 5.38713 154.427 3.98544Z" fill="#92989C"/>
<path d="M153.016 5.47498C153.423 4.93689 153.885 4.39113 154.427 3.98547C155.492 5.38717 156.405 6.89955 157.463 8.30112C156.998 8.81982 156.514 9.39301 155.978 9.83854C155.382 8.81028 153.831 6.21162 153.016 5.47498Z" fill="#F9B939"/>
<path d="M162.21 16.4268C162.69 16.1598 163.168 15.9249 163.675 15.7135C163.506 16.5207 163.365 17.3333 163.252 18.15C163.056 19.5217 163.008 20.9868 162.707 22.3325C161.996 20.7282 161.166 19.1793 160.469 17.5701C160.979 17.1398 161.645 16.7865 162.21 16.4268Z" fill="#F9B939"/>
<path d="M162.21 16.4268C162.69 16.1598 163.168 15.9249 163.675 15.7135C163.506 16.5207 163.365 17.3333 163.252 18.15C162.807 17.7421 162.521 16.9557 162.21 16.4268Z" fill="#92989C"/>
<path d="M152.558 45.6908C152.925 45.6813 153.29 45.6602 153.656 45.6277C154.637 46.2191 156.227 45.4688 157.336 45.8542C155.825 45.8998 154.313 45.9224 152.801 45.9224L152.558 45.6908Z" fill="#92989C"/>
<path d="M146.659 21.7577C147.086 21.0938 147.526 20.4027 148.059 19.8185L148.364 19.9415C147.846 20.5868 147.298 21.2304 146.659 21.7577Z" fill="#FCFCFF"/>
<path d="M149.584 51.5289C150.291 51.4472 151.204 51.3123 151.898 51.4657L151.574 51.786C150.92 51.6708 150.243 51.6131 149.584 51.5289Z" fill="#FCFCFF"/>
<path d="M149.373 24.9032L149.593 25.111C149.099 25.5295 148.558 25.9031 148.038 26.2897C148.417 25.7433 148.877 25.3377 149.373 24.9032Z" fill="#FCFCFF"/>
<path d="M153.724 40.2843C153.485 40.3392 153.237 40.4093 152.993 40.4323C152.817 40.4492 152.727 40.4661 152.59 40.3561C152.888 40.1324 153.26 40.1098 153.619 40.0492L153.724 40.2843Z" fill="#FCFCFF"/>
<path d="M152.801 45.9224C152.499 45.9249 152.255 45.9186 151.964 45.8178C152.109 45.6895 152.364 45.7087 152.558 45.6908L152.801 45.9224Z" fill="#92989C"/>
<path d="M171.876 92.7332C172.386 93.6343 172.997 94.4885 173.542 95.3702C174.712 97.2647 175.83 99.2702 176.678 101.333C177.117 102.201 177.481 103.105 177.764 104.036C178.155 106.104 177.86 108.495 177.144 110.475C175.726 110.533 173.423 110.604 172.157 109.902C171.76 109.041 171.473 108.093 171.133 107.204C169.588 103.034 167.226 99.3241 164.82 95.6216C167.152 96.0337 169.272 95.709 171.436 94.7842C171.573 94.0987 171.72 93.4148 171.876 92.7332Z" fill="#FCFCFF"/>
<path d="M176.678 101.333C177.117 102.201 177.481 103.105 177.764 104.036C178.155 106.104 177.86 108.495 177.144 110.475C175.726 110.533 173.423 110.604 172.157 109.902C171.76 109.041 171.473 108.093 171.133 107.204C173.222 105.439 174.965 103.452 176.678 101.333Z" fill="#F9B939"/>
<path d="M177.764 104.036C178.155 106.104 177.86 108.495 177.145 110.475C175.726 110.533 173.423 110.604 172.157 109.902C172.883 109.084 173.795 108.385 174.582 107.619C175.731 106.5 176.761 105.286 177.764 104.036Z" fill="#92989C"/>
<path d="M186.787 27.5055C189.655 27.8299 192.307 28.3702 194.391 30.5501C192.69 32.8053 189.783 34.0758 187.094 34.6998C186.184 34.6672 185.263 34.6924 184.352 34.6896C184.375 32.3852 184.339 30.0805 184.245 27.7778C185.068 27.6045 185.949 27.6245 186.787 27.5055Z" fill="#92989C"/>
<path d="M186.787 27.5055C186.938 29.893 187.12 32.3064 187.094 34.6998C186.184 34.6672 185.263 34.6924 184.352 34.6896C184.375 32.3852 184.339 30.0805 184.245 27.7778C185.068 27.6045 185.949 27.6245 186.787 27.5055Z" fill="#F9B939"/>
<path d="M131.596 84.6016C132.359 85.5065 135.549 87.8986 135.687 88.1379C135.093 89.7969 134.715 91.5383 134.125 93.2043C132.941 93.3131 131.724 93.5447 130.591 93.9077C129.844 94.1469 129.11 94.4765 128.338 94.621C128.164 94.441 128.421 94.1272 128.303 93.8634C127.81 93.6879 127.107 93.7705 126.583 93.7699C126.757 93.346 127.207 92.5166 127.098 92.0856C126.926 92.0247 126.776 91.9941 126.676 91.8289C127.103 91.0116 127.871 90.3277 128.407 89.5688C129.541 87.963 130.561 86.2715 131.596 84.6016Z" fill="#FCFCFF"/>
<path d="M185.733 18.7628C188.14 18.3035 191.228 18.3208 193.325 19.7196C193.51 19.8456 193.691 19.9778 193.868 20.116C192.337 22.8274 189.316 24.1844 186.549 25.2726C185.733 25.4684 184.893 25.6357 184.057 25.7164C184.071 24.6921 183.637 20.2275 183.284 19.3705C184.091 19.2515 184.937 18.9625 185.733 18.7628Z" fill="#92989C"/>
<path d="M183.284 19.3705C184.091 19.2516 184.937 18.9625 185.733 18.7628C186.051 20.9206 186.389 23.0965 186.549 25.2726C185.733 25.4684 184.893 25.6357 184.057 25.7165C184.071 24.6921 183.637 20.2275 183.284 19.3705Z" fill="#F9B939"/>
<path d="M184.32 36.6267C185.227 36.6318 186.2 36.7505 187.1 36.8771C189.884 37.7116 191.936 38.7639 193.78 41.096C191.979 42.9127 189.588 43.6802 187.068 43.6814C186.946 43.6814 186.825 43.6802 186.703 43.6773L183.835 43.262C184.009 41.0498 184.207 38.8434 184.32 36.6267Z" fill="#92989C"/>
<path d="M184.32 36.6267C185.227 36.6318 186.2 36.7505 187.1 36.8771C187.004 39.1458 186.872 41.4128 186.703 43.6773L183.835 43.262C184.009 41.0498 184.207 38.8434 184.32 36.6267Z" fill="#F9B939"/>
<path d="M183.554 45.071C184.522 45.3406 185.529 45.5808 186.462 45.9537C188.839 47.133 190.769 48.6284 192.114 50.9522C189.977 52.5433 187.902 52.9861 185.301 52.9229C184.283 52.5784 183.264 52.2007 182.222 51.9379C182.883 50.4926 183.294 46.7556 183.554 45.071Z" fill="#92989C"/>
<path d="M183.554 45.071C184.522 45.3406 185.529 45.5808 186.462 45.9537C186.118 48.2817 185.792 50.6205 185.301 52.9229C184.283 52.5784 183.264 52.2007 182.222 51.9379C182.883 50.4926 183.294 46.7556 183.554 45.071Z" fill="#F9B939"/>
<path d="M184.018 10.2765C186.896 9.69194 189.826 9.51928 192.552 10.8005C190.967 13.3635 188.122 15.373 185.321 16.4405C184.557 16.754 183.78 17.033 183.003 17.3141C182.689 15.2452 182.235 13.1949 181.836 11.1408C182.558 10.833 183.276 10.5332 184.018 10.2765Z" fill="#92989C"/>
<path d="M181.836 11.1408C182.558 10.8329 183.276 10.5332 184.018 10.2765C184.475 12.3263 184.91 14.3811 185.321 16.4405C184.557 16.754 183.78 17.033 183.003 17.3141C182.689 15.2452 182.235 13.1949 181.836 11.1408Z" fill="#F9B939"/>
<path d="M181.841 2.23506C184.657 1.81931 187.126 1.59951 189.933 2.20822C188.254 4.58968 186.058 6.76711 183.488 8.18221C182.784 8.56273 182.077 8.93706 181.367 9.30517C180.845 7.3301 180.433 5.29311 179.721 3.3751C180.39 2.90587 181.074 2.52032 181.841 2.23506Z" fill="#92989C"/>
<path d="M179.721 3.37515C180.39 2.90592 181.074 2.52037 181.841 2.23511C182.351 4.22812 182.957 6.19513 183.488 8.18226C182.784 8.56278 182.077 8.93711 181.367 9.30522C180.845 7.33015 180.433 5.29316 179.721 3.37515Z" fill="#F9B939"/>
<path d="M158.477 9.95946C160.587 8.47971 163.064 7.84393 165.618 7.96349C164.915 10.5164 163.32 12.8574 161.283 14.557C160.748 15.0012 160.191 15.5456 159.604 15.913C158.892 14.9082 157.644 11.9338 156.834 11.3185C157.37 10.8573 157.867 10.3212 158.477 9.95946Z" fill="#92989C"/>
<path d="M158.477 9.95947C159.437 11.4664 160.265 13.0981 161.283 14.557C160.748 15.0013 160.191 15.5456 159.604 15.913C158.892 14.9082 157.644 11.9338 156.834 11.3185C157.37 10.8573 157.867 10.3212 158.477 9.95947Z" fill="#F9B939"/>
<path d="M132.365 100.203C132.413 100.224 132.461 100.285 132.499 100.322C132.439 100.907 132.382 101.493 132.328 102.079C133.033 101.833 133.775 101.684 134.502 101.511C134.035 102.427 133.302 103.296 133.012 104.29C132.607 105.676 133.304 107.341 132.631 109.246C132.477 109.684 132.22 110.317 131.761 110.508C131.481 110.624 131.256 110.585 130.986 110.472C130.266 109.712 131.575 107.878 131.433 106.785C131.316 105.891 130.611 105.188 129.926 104.67C125.995 102.361 124.489 106.185 123.241 106.198C123.013 106.2 122.813 106.102 122.67 105.925C122.548 105.773 122.495 105.578 122.522 105.385C122.578 104.98 123.028 104.512 123.307 104.234C124.387 103.158 125.871 102.559 127.375 102.443C128.117 102.386 128.826 102.377 129.532 102.114C130.587 101.719 131.494 100.903 132.365 100.203Z" fill="#92989C"/>
<path d="M126.645 92.382C126.396 92.9737 126.197 93.5919 125.935 94.175C126.532 94.1785 127.201 94.1217 127.784 94.2554C127.818 94.8774 126.659 95.7291 126.455 96.4022L126.438 96.4605C126.076 97.6571 126.394 99.1656 125.584 100.211C124.998 100.202 124.448 100.221 123.865 100.301C124.455 99.4664 124.897 98.6711 124.709 97.6137C124.56 96.7779 124.029 96.0404 123.33 95.5741C122.548 95.0528 121.282 94.7272 120.354 94.939C119.585 95.1141 117.961 96.5278 117.326 96.1677C117.144 96.064 117.137 95.9942 117.066 95.8149C117.089 95.3942 117.292 95.0471 117.598 94.7654C118.616 93.827 120.082 93.4652 121.434 93.5463C124.026 93.7016 124.306 93.5721 126.645 92.382Z" fill="#92989C"/>
<path d="M132.621 94.7877C132.904 95.2206 130.926 99.1116 130.765 99.9582C130.345 100.331 129.91 100.666 129.406 100.916L128.072 100.176C127.76 100.017 127.424 99.9017 127.096 99.7767C127.323 98.8692 127.192 97.4251 127.678 96.6611C128.227 95.7986 131.572 94.9801 132.621 94.7877Z" fill="#F9B939"/>
<path d="M123.856 100.742L123.865 100.301C124.448 100.221 124.998 100.202 125.584 100.211C125.593 100.373 125.568 100.523 125.666 100.656C126.553 100.77 127.348 101.103 128.165 101.444C127.04 101.396 125.856 101.282 124.743 101.489C124.004 101.626 123.245 102.255 122.506 102.212C122.43 102.139 122.336 102.058 122.282 101.967C122.159 101.759 122.21 101.644 122.282 101.438C122.736 100.972 123.242 100.875 123.856 100.742Z" fill="#92989C"/>
<path d="M123.856 100.742L123.865 100.301C124.448 100.221 124.998 100.202 125.584 100.211C125.593 100.373 125.568 100.523 125.666 100.656C125.062 100.661 124.458 100.69 123.856 100.742Z" fill="#FCFCFF"/>
<path d="M125.449 101.79C126.33 101.714 127.226 101.81 128.106 101.876C126.483 102.12 125.16 102.374 123.78 103.334C123.502 103.578 123.053 104.059 122.673 104.093C122.435 104.114 122.362 104.072 122.181 103.927C122.121 103.635 122.196 103.431 122.368 103.189C123.036 102.247 124.376 101.944 125.449 101.79Z" fill="#92989C"/>
<path d="M121.002 93.0811C119.539 93.1759 117.695 94.3032 117.213 94.2965C117.041 94.1561 116.953 94.0818 116.951 93.8448C116.949 93.6091 117.1 93.4336 117.274 93.2946C118.1 92.6362 119.666 92.5204 120.666 92.6923C121.051 92.7414 121.433 92.7695 121.787 92.9437L121.727 93.0374C121.485 93.0595 121.245 93.0741 121.002 93.0811Z" fill="#92989C"/>
<path d="M120.666 92.6923C121.052 92.7414 121.433 92.7695 121.787 92.9436L121.727 93.0374C121.485 93.0594 121.245 93.0741 121.002 93.0811L120.583 92.9918L120.511 92.8728L120.666 92.6923Z" fill="#92989C"/>
<path d="M118.522 91.4422C120.173 91.276 121.601 92.0036 122.892 92.9443C122.404 92.7714 121.917 92.5954 121.431 92.4161C119.87 92.0429 118.088 92.6585 117.586 92.5316C117.479 92.5044 117.441 92.3909 117.383 92.3044C117.376 92.0531 117.366 92.0001 117.496 91.7743C117.797 91.5558 118.165 91.5133 118.522 91.4422Z" fill="#92989C"/>
<path d="M139.853 61.6028L140.607 61.6557L139.061 62.9856L139.853 61.6028Z" fill="#FCFCFF"/>
</g>
<defs>
<clipPath id="clip0_249_310">
<rect width="196" height="126" fill="white"/>
</clipPath>
</defs>
</svg>
