<svg width="448" height="201" viewBox="0 0 448 201" fill="none" xmlns="http://www.w3.org/2000/svg"><g clip-path="url(#a)"><mask id="b" style="mask-type:luminance" maskUnits="userSpaceOnUse" x="0" y="0" width="448" height="201"><path d="M448 0H0v200.72h448z" fill="#fff"/></mask><g mask="url(#b)"><mask id="c" style="mask-type:luminance" maskUnits="userSpaceOnUse" x="-6" y="0" width="460" height="203"><path d="M-6 0h459.8v202.72H-6z" fill="#fff"/></mask><g mask="url(#c)"><path d="M261.07 113.77c1.04-.26 2.28.46 2.28 1.36.02 40.04-.52 38.46.18 38.39.38-.03.54-.43.56-.77.04-.43-.25-.91.27-1.26h-.02c.66.06 1.35.13 2.03.18v1.76c.43-.69.92-.88 1.53-.77.22.03.43-.03.43-.27-.04-.74.13-1.46-.09-2.19-.2-.61-.75-.13-1.1-.29-.47-.21-1.24.51-1.31-.08-.07-.54.81-.21 1.24-.29.57-.11 1.06-.42 1.67-.42.41.02 0-80.02 0-80.18-.05-1.73.48-1.14 1.87-1.52.04.03-.02.21.14.08-.07-.02-.13-.03-.18-.06.57-.74 2.5.13 3.39-2.48.05-.18.2-.3.34-.27.79.19 1.33-.46 2.1-.42.66.03 1.58-1.07 1.62-1.71.09-1.18-.25-2.37-.18-3.54.74-12.75-1.01-13.12.66-15.89.16-.29 1.1.24 1.13.74.09 1.31.43 2.72.14 3.89-.84 3.44.57 6.43-.27 14.86 0 .14-.34 1.31.83.69.2-.11.23-.05.36.64-.04.02-.09.03-.14.06.02.02.04.03.05.06.04-.05.07-.1.09-.13 1.51 1.22 3.47.27 3.31 1.15-.14.75.34 1.47.11 2.22-.07.26.38.27 1.13.03l-.02.02c1.04.35 2.14.1 3.22.16.14 0 .36-.13.14-.37-.14-.19-.2-.43-.31-.66l.04.03c.2-.08.2-.16 0-.22l-.04.02c.09-.37-.59-.29-.5-.69.52-.14.59.59 1.1.43.07-.02.13-.02.2-.02l-.05-.1c-.05.05-.11.08-.14.13.31.1.22-.4.59-.26-.27.64-.13.86.74.72.68-.13 1.4.03 2.1-.11.36-.06.66.08.75.45.09-.06-.04 0-.13.05l.16.14-.04-.02c-.05.22-.65.3-.34.51.9.62 1.72-.62 2.34-.22.38.26.52.77-.05 1.14-.09.05-.07 5.3-.07 5.39 0 .29 0 .66.36.67.54.03 1.53.34.84.7 1.56.16 2.98.24 4.4.37 1.08.1 2.14-.38 3.23.03.43.16.65.37.61.66-.86 6.54.04 34.87-.43 47.24 1.04.18 11.44.69 12.05 1.1.29-1.6-.14-5.52.13-7.45.34-2.58.31-2.88 1.74-2.83 2.34.06.14-1.84 2.57-1.86 2.41 0 1.63-.16 5.33-.51l.05-.03-.05.02c.57-.7-.45-.75-.57-1.17.34-.11.63-.19 1.11 0 .86.32 1.85.03 2.78-.03.9-.08-.47-5.41.38-7.07.31-.62.92 0 1.4-.14 1.45-.43 2.93.24 3.05-.46.07-.38 1.56-.05 2.12-.11.41-.03.34-.48.36-.77.13-1.17.16-1.18 1.45-1.2 5.78-.02 2.77-.45 3.93-1.15.5.1-.23.69.36.74.93.1-.04-.91.79-.9.16.19-.22.4-.16.66.04.22-.04.51.4.48.81-.06.92.37.84.93-.16 1.12 1.02.56 2.07 1.22 1.1.69 1.56-.22 2.17-.66.4-.29-.32-.72.02-1.1.57.14.02.7.47.9.32-.14-.22-.45.22-.61.13 1.41 1.28.96 2.19.96 2.91.02 3.81-.67 3.81.93.05 24.86-.22 42.12-.22 42.12 0 .9.75.26 2.93.67.56.11 1.17-.14 1.37.67.11.42.86.22 1.31.26 1.81.1 1.83.08 1.81-1.55-.02-4.54.16-9.09-.05-13.61-.02-.4-.54-2.98.41-4.35 1.2-1.71-.88-3.81 1.74-5.76.92-.69 1.17-1.73 1.44-2.61.4-1.3 1.1-2.5 1.42-3.79.11-.43.41-.54.65-.03 1.98 4.32 1.62 4.13 2.6 4 7.53-1.07 7.71.56 7.65-2.06-.09-3.79.27-7.58.25-11.36 0-.35-.4-.59.5-.64-.02-.03-.04-.05-.05-.08-.05.03-.09.06-.14.11.92-.54 2.01-.43 3.02-.66 1.6-.35 3.23-.08 4.87-.05-.02-.53 4.01-.35 6.66-.22 3.22.16 1.31-1.1 2.87-1.82l-.04.05s.07.08.09.13c.05-.05.11-.1.16-.13l-.02-.05c3.22-2.98 6.99-2.26 7.67-1.98 2.17.86 3.36-1.1 3.47.7.05.96 2.59.1 3.63.32.79.18 1.89-.43 2.3.7.13.32.38.13.59.14 1.76.21 1.31.32 1.33 7.23.09 20 0 23.5.18 23.8.16-2.03 2.96-1.12 6.45-1.3.52-.03.99.27 1.56.22.4-.03.47.37.47.69 0 2.82-.32 3.18.84 3.14 7.49-.27 4.62-1.76 5.25 11.2.05.88.47 1.1 1.26.8.65-.24 1.19.16 1.8.14 1.53-.05 1.08-.16 1.26-5.07 0-.13.11-.26.32-.37 0 5.15-.13 4.91.25 5.04 1.94.7 1.51-1.28 3.99-.18.81.37.93.13.92-.54-.02-1.86.34-3.71.22-5.58-.02-.16-.07-.35.25-.48.36.38-.05 1.63.02 2.53.11 1.07 0 1.06 1.2.85 1.45-.26.34 2.05 1.06 2.1.36.03.36-.38.34-.54-.34-1.62 1.22-.94 1.38-1.09 1.17-1.01 2.44-.06 3.65-.19 1.78-.18-.27 3.14 1.37 3.33 0 17.66 0 35.32.02 52.98 0 1.31 27.02.83-453.97.83 0-60.82-1.26-47.03 2.96-48.55 1.83-.66 4.72.26 4.94-.38.68-1.97 1.51-.13 1.24-1.57-.52-2.7 2.3.62 2.48-1.86.02-.21-.22-.51.27-.54.32 0 .7.03.77-.37.07-.42-.52-.27-.68-.53.18-.34.54-.26.72-.19 2.68.9 6.79-.27 7.78.82.32.35 1.37.22 2.08.22 1.78 0 .68 1.7 2.73 1.52.27-.03.54 0 .83 0 1.26 0 1.24 0 1.24 1.23-.02.4.02.88.7.72.68-.14.65.67 1.29.64 1.04-.06 2.14.14 3.11-.24.86-.35 1.67-.24 2.48-.14 1.19.14 2.44-.42 3.56.35 1.01.69-.29-3.58.43-15.33.02-.16.09-.32-.09-.42-.93-.53-1.38-1.49-2.42-2.08 2.1-.51 2.42-1.89 2.37-3.47-.09-2.78 1.92-5.76 4.85-6.67.41-.13 1.01-.46.77-1.09-.09-.3.16-.61.27-.62 1.02-.03.72-.72.68-1.18-.05-1.06.27-2.13-.2-3.18-.05-.14 1.08-2.16-1.19-3.17 3.41-2.14 1.49-.96 2.69-5.79.45-1.84 3.75-1.52 4.87-2.94.65-.83.66-.88-.56-1.28 1.62-.11.66-1.06 1.26-2.4.23-.56.09-.8-.52-1.1-.95-.5-.77-2.11.2-2.54.7-.32.57-1.68-.09-2.26-.84-.72-1.78-1.39-1.96-2.59-.07-.45-1.04-.34-1.37-.82.05-.4 1.74-.11 1.44-1.3-.07-.26.09-.38.4-.38.04.03-.02.21.14.08-.05-.02-.11-.03-.18-.06-.27-1.14 2.26-1.36 2.1-3.28-.31-3.87 1.2-1.94.79.18-.38 1.86 3.9 3.41 2.12 4.43.5.32 1.54-.14 1.6.54.04.43-.2.34-1.17.32l-.05-.02.07.02c-.18.53-.31 1.01-.68 1.55-.65.91-2.3 1.39-1.9 2.86.09.34-.04.62.56.78.93.26 1.1 1.82.31 2.42-.32.26-.9.43-.79.9.22.83-.18 1.79.61 2.51.2.18.48.37.23.54-.75.59-.14.77.27 1.15 2.03 1.81 4.96 1.49 4.65 5.39-.27 3.34 3.04 3.31 1.89 4.1-1.87 1.26-.38 2.38-.74 3.09-.54 1.1-.22 2.29-.34 3.42-.04.3.31.29.41.46.2.34 1.31.35.5 1.1-.04.03.31.35.57.46 3 1.28 4.44 3.52 4.89 6.49.59-.1.2-.58.61-.77.2 1.26-.11 2.54.38 3.74 0-.16-.25-34.3-.07-34.31 1.22-.16 2.34-.7 3.59-.77 1.53-.06.86-.69.22-2.08 1.31-.56 1.13.72 2.35 1.74.72.59 1.58.54 1.99-1.15.04-.14.07-.38.25-.3.7.24 1.35-.06 2.03-.03.22 0 .45.1.66-.13.47-.5.95-.98 1.45 0 .32.61 1.33-.53 1.94.16.04.05.14.1.18.08 2.25-1.12 4.62-.1 6.92-.29 4.08-.34 5.68.42 5.21-.67-.09-.19-.25-.56.29-.62 1.83-.18-.43 1.5 2.48 1.49q1.58-.02 1.71 1.33c.02.21-.07.51.29.48 1.01-.08 1.87.46 2.91.42 1.35-.05 2.68.43 4.04.4.68-.02.83.37.83.96-.13 18.49.09 34.06.2 35.35-.04.02-.07.05-.11.06.07 0 .07.03.09-.08.18 13.9-.57 13.79 1.01 13.81.75 0 1.69-.35 2.14.74.11.26 1.19.56 1.72.19 1.31-.9 2.96.9 3.86-.5.04-.05.22-.1.25-.06 1.31.9.43-.3.75-5.98.05-.96.27-1.9.02-2.86-.13-.45.34-.54.83-.56.52-.02.84.08.79.62-.34 3.25.05 6.48.02 8.54-.02.88.65.72 1.24.7.36 0 .4 0 .38-.64-.16-3.55-.23-7.1-.25-10.65 0-1.06-.66-6.26.36-6.81.36-.19.79-.19 1.19-.19 2.41 0 4.8-.16 7.19-.34 1.85-.14 4.38.1 6.14-.4.77-.21.81-.54.97-1.15.29-1.12.22-2.38.23-3.52.13-6.24-.05-12.48-.09-18.73-.05-11.57-.02-23.15.11-34.71.27-27.63-1.26-26.41 1.15-27.52 1.56-.72 3.23-.1 4.81-.34 2.12-.34 3.86.54 5.66 1.26.34-.3-.05-.82.4-1.06.47.22-.41 1.52 1.47 1.78 1.04.14 1.99.88 2.98 1.36.36.16.25.46.27.72.05 4.51-.27 4.91.74 4.26.5-.34.05.7.65.66.43-.05.25-.38.25-.59.02-2.42.05-4.83 0-7.26-.05-1.87 1.33-.9 1.89-2.64.66-2.08.72-2.88.59-17.89-.02-2.66 1.85-.34 2.8-5.01.16-.77.2-1.55-.11-2.34-.77-2.05 1.11-4.77-.13-7.07-.11-.21-.16-.53-.05-.7 1.08-1.84-.22-12.11 1.2-12.13.92-.02-.07 1.1.83 2.5.36.58 0 1.18 0 1.76 0 2.14-.32 4.34.11 6.41.38 1.92-.52 3.76-.05 5.6.7 2.8-.38 7.9 1.65 7.98 1.62.06 1.08 1.28 1.56 1.46 1.6.53 1.02.72 1.11 12.43.02 2.37.16 4.75.13 7.12-.02.74.27 1.14.93 1.31.97.24.75.45.79 5.1 0 .21-.13.45.23.51.54.11.29-.74.83-.58 1.13.37 2.32.19 3.47.29 1.29.1 2.57.43 3.9.29.79-.08 1.49.35 2.26.5 1.9.37.86 2.32 1.1 10.86.05 1.7.32 22.32-.02 23.31l-.04-.02s.04.03.05.03l-.05.38s-.23-.02-.09.13c.02-.05.04-.11.07-.16.36.62 1.15.46 1.69.58 1.51.35 3.09.4 4.58-.3 1.26 3.47.95 3.36.95 19.52 0 1.17-.05 1.65.43 1.76.52.11 1.04-.1 1.22-.66.14-.51.32-.14.5-.02-.05-.02-.11-.05-.16-.06 0 .03-.02.06-.02.08.05 0 .13-.02.18-.02.32.21-.23.43.04.74.16.18.22.37.48.19 1.78-1.17 3 .19 4.45.75.22-.16.02-.43.11-.66.22-.51 1.04-.4 1.06.05.02.66.16 1.31.16 1.95-.02.62.38.85.92.86 5.14.11 4.63.06 4.67-.5.14-2.03.04-2.13.47-2.32.22-.11.47.08.5.21.18.46.52.24.86.27.65.06 1.22-.66 1.96-.03.4.34 1.04-.35 1.72-.1.25.1.25-.56.07-1.01 1.76 1.54 2.14 3.33 1.72 5.42.56-.18.77-.34 1.29 0 .56.37 1.63.11 2.5.1.2 0 .23.14.43-2.62.04-.58.5-.66.75-.3.38.51.81.35 1.26.35 1.69 0 3.34-.11 4.98-.56.09-.02.27.02.29-.02.27-1.15 1.01-.4 1.65-.38 1.22.05 2.5.35 3.68-.21.38-.16.65.29 1.02.29 1.01-.02 1.99-.02 3 0 2.26.05 1.56-9.02 1.71 32.95 0 .48-.25 1.06.29 1.47l-.02-.03c.22.13.43.27.65.4l-.02-.03s0 .03-.02.05c1.15.06 2.28-.1 3.36-.34 2.07-.45.5-2.83 1.31-5.12.27-.75 1.28-1.28 2.1-1.06l-.04-.03c.09.21.16.14.25.02l-.02.02h.41l-.02-.03c.07.18.16.06.25.02l-.02.02h.4l-.02-.03c.09.19.16.14.25.02l-.02.02c.23-.16.43-.38.7-.48 2.21-.83-1.2-1.7.57-1.82.27-.02.14.37.18-6.78 0-.98.43-1.42 1.53-1.36 2.26.13 4.54-.18 6.74.13 1.83.24 1.22-.64 1.22-1.3.02-3.9 0-7.82 0-11.73 0-1.26 1.49-2.18 2.75-1.78-.18-2.26-.04-4.54-.07-6.81-.02-.32.32-.37.43-.59l-.04.02.23-.21-.04.02c.05-.02.11-.05.16-.06l-.16-.14.04.03c.97-.64 2.1-.48 3.18-.51 5.96-.22 5.89.19 5.87 1.23 0 1.92 0 3.84.02 5.76 0 .61.29.96 1.04.85l-.04.03c.23-.22.48-.06.72-.03l.02-.03c.13.91.63-.22.84.11v-.02c.34.02.29.88.88.32l-.02.03z" fill="#5E376D"/></g><path d="M170.56 50.08c-.11.06-.1-.06-.03-.04.01 0 .02.02.03.04m-.74-.11s-.06 0-.07-.02c-.02-.06.02-.01.06.02zm.56.06-.02-.11c.07.02.01.03.02.11m-65.72.27h.02l-.02.01z" fill="#5E376D"/></g><path fill="#5E376D" d="M0 193h448v8H0z"/></g><defs><clipPath id="a"><path fill="#fff" d="M0 0h448v201H0z"/></clipPath></defs></svg>