<svg width="448" height="201" viewBox="0 0 448 201" fill="none" xmlns="http://www.w3.org/2000/svg">
<g clip-path="url(#clip0_249_78)">
<mask id="mask0_249_78" style="mask-type:luminance" maskUnits="userSpaceOnUse" x="0" y="0" width="448" height="201">
<path d="M448 0H0V200.72H448V0Z" fill="white"/>
</mask>
<g mask="url(#mask0_249_78)">
<mask id="mask1_249_78" style="mask-type:luminance" maskUnits="userSpaceOnUse" x="-6" y="0" width="460" height="203">
<path d="M-6 0H453.8V202.72H-6V0Z" fill="white"/>
</mask>
<g mask="url(#mask1_249_78)">
<path d="M261.07 113.77C262.11 113.51 263.35 114.23 263.35 115.13C263.37 155.17 262.83 153.59 263.53 153.52C263.91 153.49 264.07 153.09 264.09 152.75C264.13 152.32 263.84 151.84 264.36 151.49H264.34C265 151.55 265.69 151.62 266.37 151.67V153.43C266.8 152.74 267.29 152.55 267.9 152.66C268.12 152.69 268.33 152.63 268.33 152.39C268.29 151.65 268.46 150.93 268.24 150.2C268.04 149.59 267.49 150.07 267.14 149.91C266.67 149.7 265.9 150.42 265.83 149.83C265.76 149.29 266.64 149.62 267.07 149.54C267.64 149.43 268.13 149.12 268.74 149.12C269.15 149.14 268.74 69.1 268.74 68.94C268.69 67.21 269.22 67.8 270.61 67.42C270.65 67.45 270.59 67.63 270.75 67.5C270.68 67.48 270.62 67.47 270.57 67.44C271.14 66.7 273.07 67.57 273.96 64.96C274.01 64.78 274.16 64.66 274.3 64.69C275.09 64.88 275.63 64.23 276.4 64.27C277.06 64.3 277.98 63.2001 278.02 62.5601C278.11 61.3801 277.77 60.1901 277.84 59.0201C278.58 46.2701 276.83 45.9001 278.5 43.1301C278.66 42.8401 279.6 43.37 279.63 43.87C279.72 45.18 280.06 46.59 279.77 47.76C278.93 51.2 280.34 54.19 279.5 62.62C279.5 62.76 279.16 63.9301 280.33 63.3101C280.53 63.2001 280.56 63.2601 280.69 63.9501C280.65 63.9701 280.6 63.9801 280.55 64.0101C280.57 64.0301 280.59 64.04 280.6 64.07C280.64 64.02 280.67 63.97 280.69 63.94C282.2 65.16 284.16 64.21 284 65.09C283.86 65.84 284.34 66.56 284.11 67.31C284.04 67.57 284.49 67.58 285.24 67.34L285.22 67.36C286.26 67.71 287.36 67.46 288.44 67.52C288.58 67.52 288.8 67.39 288.58 67.15C288.44 66.96 288.38 66.72 288.27 66.49L288.31 66.52C288.51 66.44 288.51 66.36 288.31 66.3L288.27 66.32C288.36 65.95 287.68 66.03 287.77 65.63C288.29 65.49 288.36 66.22 288.87 66.06C288.94 66.04 289 66.04 289.07 66.04L289.02 65.94C288.97 65.99 288.91 66.02 288.88 66.07C289.19 66.17 289.1 65.67 289.47 65.81C289.2 66.45 289.34 66.67 290.21 66.53C290.89 66.4 291.61 66.56 292.31 66.42C292.67 66.36 292.97 66.5 293.06 66.87C293.15 66.81 293.02 66.87 292.93 66.92L293.09 67.06L293.05 67.04C293 67.26 292.4 67.34 292.71 67.55C293.61 68.17 294.43 66.93 295.05 67.33C295.43 67.59 295.57 68.1 295 68.47C294.91 68.52 294.93 73.77 294.93 73.86C294.93 74.15 294.93 74.52 295.29 74.53C295.83 74.56 296.82 74.87 296.13 75.23C297.69 75.39 299.11 75.47 300.53 75.6C301.61 75.7 302.67 75.22 303.76 75.63C304.19 75.79 304.41 76 304.37 76.29C303.51 82.83 304.41 111.16 303.94 123.53C304.98 123.71 315.38 124.22 315.99 124.63C316.28 123.03 315.85 119.11 316.12 117.18C316.46 114.6 316.43 114.3 317.86 114.35C320.2 114.41 318 112.51 320.43 112.49C322.84 112.49 322.06 112.33 325.76 111.98L325.81 111.95L325.76 111.97C326.33 111.27 325.31 111.22 325.19 110.8C325.53 110.69 325.82 110.61 326.3 110.8C327.16 111.12 328.15 110.83 329.08 110.77C329.98 110.69 328.61 105.36 329.46 103.7C329.77 103.08 330.38 103.7 330.86 103.56C332.31 103.13 333.79 103.8 333.91 103.1C333.98 102.72 335.47 103.05 336.03 102.99C336.44 102.96 336.37 102.51 336.39 102.22C336.52 101.05 336.55 101.04 337.84 101.02C343.62 101 340.61 100.57 341.77 99.87C342.27 99.97 341.54 100.56 342.13 100.61C343.06 100.71 342.09 99.7 342.92 99.71C343.08 99.9 342.7 100.11 342.76 100.37C342.8 100.59 342.72 100.88 343.16 100.85C343.97 100.79 344.08 101.22 344 101.78C343.84 102.9 345.02 102.34 346.07 103C347.17 103.69 347.63 102.78 348.24 102.34C348.64 102.05 347.92 101.62 348.26 101.24C348.83 101.38 348.28 101.94 348.73 102.14C349.05 102 348.51 101.69 348.95 101.53C349.08 102.94 350.23 102.49 351.14 102.49C354.05 102.51 354.95 101.82 354.95 103.42C355 128.28 354.73 145.54 354.73 145.54C354.73 146.44 355.48 145.8 357.66 146.21C358.22 146.32 358.83 146.07 359.03 146.88C359.14 147.3 359.89 147.1 360.34 147.14C362.15 147.24 362.17 147.22 362.15 145.59C362.13 141.05 362.31 136.5 362.1 131.98C362.08 131.58 361.56 129 362.51 127.63C363.71 125.92 361.63 123.82 364.25 121.87C365.17 121.18 365.42 120.14 365.69 119.26C366.09 117.96 366.79 116.76 367.11 115.47C367.22 115.04 367.52 114.93 367.76 115.44C369.74 119.76 369.38 119.57 370.36 119.44C377.89 118.37 378.07 120 378.01 117.38C377.92 113.59 378.28 109.8 378.26 106.02C378.26 105.67 377.86 105.43 378.76 105.38C378.74 105.35 378.72 105.33 378.71 105.3C378.66 105.33 378.62 105.36 378.57 105.41C379.49 104.87 380.58 104.98 381.59 104.75C383.19 104.4 384.82 104.67 386.46 104.7C386.44 104.17 390.47 104.35 393.12 104.48C396.34 104.64 394.43 103.38 395.99 102.66L395.95 102.71C395.95 102.71 396.02 102.79 396.04 102.84C396.09 102.79 396.15 102.74 396.2 102.71L396.18 102.66C399.4 99.68 403.17 100.4 403.85 100.68C406.02 101.54 407.21 99.58 407.32 101.38C407.37 102.34 409.91 101.48 410.95 101.7C411.74 101.88 412.84 101.27 413.25 102.4C413.38 102.72 413.63 102.53 413.84 102.54C415.6 102.75 415.15 102.86 415.17 109.77C415.26 129.77 415.17 133.27 415.35 133.57C415.51 131.54 418.31 132.45 421.8 132.27C422.32 132.24 422.79 132.54 423.36 132.49C423.76 132.46 423.83 132.86 423.83 133.18C423.83 136 423.51 136.36 424.67 136.32C432.16 136.05 429.29 134.56 429.92 147.52C429.97 148.4 430.39 148.62 431.18 148.32C431.83 148.08 432.37 148.48 432.98 148.46C434.51 148.41 434.06 148.3 434.24 143.39C434.24 143.26 434.35 143.13 434.56 143.02C434.56 148.17 434.43 147.93 434.81 148.06C436.75 148.76 436.32 146.78 438.8 147.88C439.61 148.25 439.73 148.01 439.72 147.34C439.7 145.48 440.06 143.63 439.94 141.76C439.92 141.6 439.87 141.41 440.19 141.28C440.55 141.66 440.14 142.91 440.21 143.81C440.32 144.88 440.21 144.87 441.41 144.66C442.86 144.4 441.75 146.71 442.47 146.76C442.83 146.79 442.83 146.38 442.81 146.22C442.47 144.6 444.03 145.28 444.19 145.13C445.36 144.12 446.63 145.07 447.84 144.94C449.62 144.76 447.57 148.08 449.21 148.27C449.21 165.93 449.21 183.59 449.23 201.25C449.23 202.56 476.25 202.08 -4.73988 202.08C-4.73988 141.26 -5.99988 155.05 -1.77988 153.53C0.0501236 152.87 2.94012 153.79 3.16012 153.15C3.84012 151.18 4.67012 153.02 4.40012 151.58C3.88012 148.88 6.70012 152.2 6.88012 149.72C6.90012 149.51 6.66012 149.21 7.15012 149.18C7.47012 149.18 7.85012 149.21 7.92012 148.81C7.99012 148.39 7.40012 148.54 7.24012 148.28C7.42012 147.94 7.78012 148.02 7.96012 148.09C10.6401 148.99 14.7501 147.82 15.7401 148.91C16.0601 149.26 17.1101 149.13 17.8201 149.13C19.6001 149.13 18.5001 150.83 20.5501 150.65C20.8201 150.62 21.0901 150.65 21.3801 150.65C22.6401 150.65 22.6201 150.65 22.6201 151.88C22.6001 152.28 22.6401 152.76 23.3201 152.6C24.0001 152.46 23.9701 153.27 24.6101 153.24C25.6501 153.18 26.7501 153.38 27.7201 153C28.5801 152.65 29.3901 152.76 30.2001 152.86C31.3901 153 32.6401 152.44 33.7601 153.21C34.7701 153.9 33.4701 149.63 34.1901 137.88C34.2101 137.72 34.2801 137.56 34.1001 137.46C33.1701 136.93 32.7201 135.97 31.6801 135.38C33.7801 134.87 34.1001 133.49 34.0501 131.91C33.9601 129.13 35.9701 126.15 38.9001 125.24C39.3101 125.11 39.9101 124.78 39.6701 124.15C39.5801 123.85 39.8301 123.54 39.9401 123.53C40.9601 123.5 40.6601 122.81 40.6201 122.35C40.5701 121.29 40.8901 120.22 40.4201 119.17C40.3701 119.03 41.5001 117.01 39.2301 116C42.6401 113.86 40.7201 115.04 41.9201 110.21C42.3701 108.37 45.6701 108.69 46.7901 107.27C47.4401 106.44 47.4501 106.39 46.2301 105.99C47.8501 105.88 46.8901 104.93 47.4901 103.59C47.7201 103.03 47.5801 102.79 46.9701 102.49C46.0201 101.99 46.2001 100.38 47.1701 99.95C47.8701 99.63 47.7401 98.27 47.0801 97.69C46.2401 96.97 45.3001 96.3 45.1201 95.1C45.0501 94.65 44.0801 94.76 43.7501 94.28C43.8001 93.88 45.4901 94.17 45.1901 92.98C45.1201 92.72 45.2801 92.6 45.5901 92.6C45.6301 92.63 45.5701 92.81 45.7301 92.68C45.6801 92.66 45.6201 92.65 45.5501 92.62C45.2801 91.48 47.8101 91.26 47.6501 89.34C47.3401 85.47 48.8501 87.4 48.4401 89.52C48.0601 91.38 52.3401 92.93 50.5601 93.95C51.0601 94.27 52.1001 93.81 52.1601 94.49C52.2001 94.92 51.9601 94.83 50.9901 94.81L50.9401 94.79L51.0101 94.81C50.8301 95.34 50.7001 95.82 50.3301 96.36C49.6801 97.27 48.0301 97.75 48.4301 99.22C48.5201 99.56 48.3901 99.84 48.9901 100C49.9201 100.26 50.0901 101.82 49.3001 102.42C48.9801 102.68 48.4001 102.85 48.5101 103.32C48.7301 104.15 48.3301 105.11 49.1201 105.83C49.3201 106.01 49.6001 106.2 49.3501 106.37C48.6001 106.96 49.2101 107.14 49.6201 107.52C51.6501 109.33 54.5801 109.01 54.2701 112.91C54.0001 116.25 57.3101 116.22 56.1601 117.01C54.2901 118.27 55.7801 119.39 55.4201 120.1C54.8801 121.2 55.2001 122.39 55.0801 123.52C55.0401 123.82 55.3901 123.81 55.4901 123.98C55.6901 124.32 56.8001 124.33 55.9901 125.08C55.9501 125.11 56.3001 125.43 56.5601 125.54C59.5601 126.82 61.0001 129.06 61.4501 132.03C62.0401 131.93 61.6501 131.45 62.0601 131.26C62.2601 132.52 61.9501 133.8 62.4401 135C62.4401 134.84 62.1901 100.7 62.3701 100.69C63.5901 100.53 64.7101 99.99 65.9601 99.92C67.4901 99.86 66.8201 99.23 66.1801 97.84C67.4901 97.28 67.3101 98.56 68.5301 99.58C69.2501 100.17 70.1101 100.12 70.5201 98.43C70.5601 98.29 70.5901 98.05 70.7701 98.13C71.4701 98.37 72.1201 98.07 72.8001 98.1C73.0201 98.1 73.2501 98.2 73.4601 97.97C73.9301 97.47 74.4101 96.99 74.9101 97.97C75.2301 98.58 76.2401 97.44 76.8501 98.13C76.8901 98.18 76.9901 98.23 77.0301 98.21C79.2801 97.09 81.6501 98.11 83.9501 97.92C88.0301 97.58 89.6301 98.34 89.1601 97.25C89.0701 97.06 88.9101 96.69 89.4501 96.63C91.2801 96.45 89.0201 98.13 91.9301 98.12C92.9835 98.1067 93.5535 98.55 93.6401 99.45C93.6601 99.66 93.5701 99.96 93.9301 99.93C94.9401 99.85 95.8001 100.39 96.8401 100.35C98.1901 100.3 99.5201 100.78 100.88 100.75C101.56 100.73 101.71 101.12 101.71 101.71C101.58 120.2 101.8 135.77 101.91 137.06C101.87 137.08 101.84 137.11 101.8 137.12C101.87 137.12 101.87 137.15 101.89 137.04C102.07 150.94 101.32 150.83 102.9 150.85C103.65 150.85 104.59 150.5 105.04 151.59C105.15 151.85 106.23 152.15 106.76 151.78C108.07 150.88 109.72 152.68 110.62 151.28C110.66 151.23 110.84 151.18 110.87 151.22C112.18 152.12 111.3 150.92 111.62 145.24C111.67 144.28 111.89 143.34 111.64 142.38C111.51 141.93 111.98 141.84 112.47 141.82C112.99 141.8 113.31 141.9 113.26 142.44C112.92 145.69 113.31 148.92 113.28 150.98C113.26 151.86 113.93 151.7 114.52 151.68C114.88 151.68 114.92 151.68 114.9 151.04C114.74 147.49 114.67 143.94 114.65 140.39C114.65 139.33 113.99 134.13 115.01 133.58C115.37 133.39 115.8 133.39 116.2 133.39C118.61 133.39 121 133.23 123.39 133.05C125.24 132.91 127.77 133.15 129.53 132.65C130.3 132.44 130.34 132.11 130.5 131.5C130.79 130.38 130.72 129.12 130.73 127.98C130.86 121.74 130.68 115.5 130.64 109.25C130.59 97.68 130.62 86.1 130.75 74.54C131.02 46.91 129.49 48.1301 131.9 47.0201C133.46 46.3001 135.13 46.92 136.71 46.68C138.83 46.34 140.57 47.22 142.37 47.94C142.71 47.64 142.32 47.1201 142.77 46.8801C143.24 47.1001 142.36 48.4 144.24 48.66C145.28 48.8 146.23 49.5401 147.22 50.0201C147.58 50.1801 147.47 50.4801 147.49 50.7401C147.54 55.2501 147.22 55.65 148.23 55C148.73 54.66 148.28 55.7 148.88 55.66C149.31 55.61 149.13 55.28 149.13 55.07C149.15 52.65 149.18 50.2401 149.13 47.8101C149.08 45.9401 150.46 46.91 151.02 45.17C151.68 43.09 151.74 42.2901 151.61 27.2801C151.59 24.6201 153.46 26.9401 154.41 22.2701C154.57 21.5001 154.61 20.72 154.3 19.93C153.53 17.88 155.41 15.16 154.17 12.86C154.06 12.65 154.01 12.33 154.12 12.16C155.2 10.32 153.9 0.0500489 155.32 0.0300489C156.24 0.0100489 155.25 1.13005 156.15 2.53005C156.51 3.11005 156.15 3.71005 156.15 4.29005C156.15 6.43005 155.83 8.63005 156.26 10.7C156.64 12.62 155.74 14.46 156.21 16.3C156.91 19.1 155.83 24.2001 157.86 24.2801C159.48 24.3401 158.94 25.56 159.42 25.74C161.02 26.27 160.44 26.46 160.53 38.17C160.55 40.54 160.69 42.9201 160.66 45.2901C160.64 46.0301 160.93 46.43 161.59 46.6C162.56 46.84 162.34 47.0501 162.38 51.7001C162.38 51.9101 162.25 52.15 162.61 52.21C163.15 52.32 162.9 51.4701 163.44 51.6301C164.57 52.0001 165.76 51.82 166.91 51.92C168.2 52.02 169.48 52.35 170.81 52.21C171.6 52.13 172.3 52.56 173.07 52.71C174.97 53.08 173.93 55.03 174.17 63.57C174.22 65.27 174.49 85.89 174.15 86.88L174.11 86.86C174.11 86.86 174.15 86.89 174.16 86.89L174.11 87.27C174.11 87.27 173.88 87.25 174.02 87.4C174.04 87.35 174.06 87.29 174.09 87.24C174.45 87.86 175.24 87.7 175.78 87.82C177.29 88.17 178.87 88.22 180.36 87.52C181.62 90.99 181.31 90.88 181.31 107.04C181.31 108.21 181.26 108.69 181.74 108.8C182.26 108.91 182.78 108.7 182.96 108.14C183.1 107.63 183.28 108 183.46 108.12C183.41 108.1 183.35 108.07 183.3 108.06C183.3 108.09 183.28 108.12 183.28 108.14C183.33 108.14 183.41 108.12 183.46 108.12C183.78 108.33 183.23 108.55 183.5 108.86C183.66 109.04 183.72 109.23 183.98 109.05C185.76 107.88 186.98 109.24 188.43 109.8C188.65 109.64 188.45 109.37 188.54 109.14C188.76 108.63 189.58 108.74 189.6 109.19C189.62 109.85 189.76 110.5 189.76 111.14C189.74 111.76 190.14 111.99 190.68 112C195.82 112.11 195.31 112.06 195.35 111.5C195.49 109.47 195.39 109.37 195.82 109.18C196.04 109.07 196.29 109.26 196.32 109.39C196.5 109.85 196.84 109.63 197.18 109.66C197.83 109.72 198.4 109 199.14 109.63C199.54 109.97 200.18 109.28 200.86 109.53C201.11 109.63 201.11 108.97 200.93 108.52C202.69 110.06 203.07 111.85 202.65 113.94C203.21 113.76 203.42 113.6 203.94 113.94C204.5 114.31 205.57 114.05 206.44 114.04C206.64 114.04 206.67 114.18 206.87 111.42C206.91 110.84 207.37 110.76 207.62 111.12C208 111.63 208.43 111.47 208.88 111.47C210.57 111.47 212.22 111.36 213.86 110.91C213.95 110.89 214.13 110.93 214.15 110.89C214.42 109.74 215.16 110.49 215.8 110.51C217.02 110.56 218.3 110.86 219.48 110.3C219.86 110.14 220.13 110.59 220.5 110.59C221.51 110.57 222.49 110.57 223.5 110.59C225.76 110.64 225.06 101.57 225.21 143.54C225.21 144.02 224.96 144.6 225.5 145.01L225.48 144.98C225.7 145.11 225.91 145.25 226.13 145.38L226.11 145.35C226.11 145.35 226.11 145.38 226.09 145.4C227.24 145.46 228.37 145.3 229.45 145.06C231.52 144.61 229.95 142.23 230.76 139.94C231.03 139.19 232.04 138.66 232.86 138.88L232.82 138.85C232.91 139.06 232.98 138.99 233.07 138.87L233.05 138.89H233.46L233.44 138.86C233.51 139.04 233.6 138.92 233.69 138.88L233.67 138.9H234.07L234.05 138.87C234.14 139.06 234.21 139.01 234.3 138.89L234.28 138.91C234.51 138.75 234.71 138.53 234.98 138.43C237.19 137.6 233.78 136.73 235.55 136.61C235.82 136.59 235.69 136.98 235.73 129.83C235.73 128.85 236.16 128.41 237.26 128.47C239.52 128.6 241.8 128.29 244 128.6C245.83 128.84 245.22 127.96 245.22 127.3C245.24 123.4 245.22 119.48 245.22 115.57C245.22 114.31 246.71 113.39 247.97 113.79C247.79 111.53 247.93 109.25 247.9 106.98C247.88 106.66 248.22 106.61 248.33 106.39L248.29 106.41L248.52 106.2L248.48 106.22C248.53 106.2 248.59 106.17 248.64 106.16L248.48 106.02L248.52 106.05C249.49 105.41 250.62 105.57 251.7 105.54C257.66 105.32 257.59 105.73 257.57 106.77C257.57 108.69 257.57 110.61 257.59 112.53C257.59 113.14 257.88 113.49 258.63 113.38L258.59 113.41C258.82 113.19 259.07 113.35 259.31 113.38L259.33 113.35C259.46 114.26 259.96 113.13 260.17 113.46V113.44C260.51 113.46 260.46 114.32 261.05 113.76L261.03 113.79L261.07 113.77Z" fill="#5E376D"/>
</g>
<path d="M170.56 50.08C170.45 50.14 170.46 50.02 170.53 50.04C170.54 50.04 170.55 50.06 170.56 50.08ZM169.82 49.97C169.82 49.97 169.76 49.97 169.75 49.95C169.73 49.89 169.77 49.94 169.81 49.97H169.82ZM170.38 50.03L170.36 49.92C170.43 49.94 170.37 49.95 170.38 50.03ZM104.66 50.3H104.68L104.66 50.31V50.3Z" fill="#5E376D"/>
</g>
<rect y="193" width="448" height="8" fill="#5E376D"/>
</g>
<defs>
<clipPath id="clip0_249_78">
<rect width="448" height="201" fill="white"/>
</clipPath>
</defs>
</svg>
